<svg width="100" height="50" viewBox="0 0 100 50" fill="none" xmlns="http://www.w3.org/2000/svg">
<rect width="100" height="50" rx="7.97674" fill="white"/>
<rect x="9.11627" y="14.5" width="51" height="5" rx="0.569767" fill="#222222"/>
<rect x="9.11627" y="21.5" width="4" height="4" rx="2" fill="#C0C8DB"/>
<rect x="9.11627" y="26.5" width="21" height="3" rx="0.569767" fill="#222222"/>
<rect x="9.11627" y="30.5" width="25.9225" height="2" rx="0.569767" fill="#222222"/>
<rect x="9.11627" y="33.5" width="16" height="2" rx="0.569767" fill="#222222"/>
<rect x="37.0388" y="21.5" width="4" height="4" rx="2" fill="#C0C8DB"/>
<rect x="37.0388" y="26.5" width="14" height="3" rx="0.569767" fill="#222222"/>
<rect x="37.0388" y="30.5" width="25.9225" height="2" rx="0.569767" fill="#222222"/>
<rect x="37.0388" y="33.5" width="20" height="2" rx="0.569767" fill="#222222"/>
<rect x="64.9612" y="21.5" width="4" height="4" rx="2" fill="#C0C8DB"/>
<rect x="64.9612" y="26.5" width="25" height="3" rx="0.569767" fill="#222222"/>
<rect x="64.9612" y="30.5" width="25.9225" height="2" rx="0.569767" fill="#222222"/>
<rect x="64.9612" y="33.5" width="8" height="2" rx="0.569767" fill="#222222"/>
</svg>
