<svg width="32" height="32" viewBox="0 0 32 32" fill="none" xmlns="http://www.w3.org/2000/svg">
<path fill-rule="evenodd" clip-rule="evenodd" d="M27 16C27 22.0751 22.0751 27 16 27C9.92487 27 5 22.0751 5 16C5 9.92487 9.92487 5 16 5C22.0751 5 27 9.92487 27 16ZM30 16C30 23.732 23.732 30 16 30C8.26801 30 2 23.732 2 16C2 8.26801 8.26801 2 16 2C23.732 2 30 8.26801 30 16ZM22.2 12.9C22.6971 12.2373 22.5627 11.2971 21.9 10.8C21.2373 10.3029 20.2971 10.4373 19.8 11.1L14.8377 17.7164L12.0607 14.9393C11.4749 14.3536 10.5251 14.3536 9.93934 14.9393C9.35355 15.5251 9.35355 16.4749 9.93934 17.0607L13.9393 21.0607C14.2468 21.3681 14.6726 21.5271 15.1063 21.4962C15.5401 21.4654 15.9391 21.2479 16.2 20.9L22.2 12.9Z" fill="#348BDC"/>
</svg>
