<svg width="296" height="320" viewBox="0 0 296 320" fill="none" xmlns="http://www.w3.org/2000/svg">
<rect width="296" height="320" fill="#4761D6"/>
<g clip-path="url(#clip0_407_10631)">
<path fill-rule="evenodd" clip-rule="evenodd" d="M40.4968 234.144C40.3694 232.806 41.4217 231.649 42.766 231.649C43.8883 231.649 44.7982 230.739 44.7982 229.617C44.7982 228.494 43.8883 227.585 42.766 227.585C39.0248 227.585 36.0961 230.805 36.4508 234.53L36.9917 240.21C37.1059 241.408 36.3267 242.51 35.1587 242.802L34.7814 242.897C33.1043 243.316 31.9277 244.823 31.9277 246.552C31.9277 248.28 33.1043 249.787 34.7814 250.206L35.1587 250.301C36.3267 250.593 37.1059 251.695 36.9917 252.893L36.4508 258.573C36.0961 262.298 39.0248 265.519 42.766 265.519C43.8883 265.519 44.7982 264.609 44.7982 263.486C44.7982 262.364 43.8883 261.454 42.766 261.454C41.4217 261.454 40.3694 260.297 40.4968 258.959L41.0378 253.279C41.3213 250.302 39.5408 247.548 36.7807 246.552C39.5408 245.555 41.3213 242.801 41.0378 239.824L40.4968 234.144ZM65.3569 258.959C65.4843 260.297 64.432 261.454 63.0877 261.454C61.9654 261.454 61.0556 262.364 61.0556 263.486C61.0556 264.609 61.9654 265.519 63.0877 265.519C66.8289 265.519 69.7576 262.298 69.4029 258.573L68.862 252.893C68.7478 251.695 69.527 250.593 70.695 250.301L71.0724 250.206C72.7495 249.787 73.926 248.28 73.926 246.552C73.926 244.823 72.7495 243.316 71.0724 242.897L70.695 242.802C69.527 242.51 68.7478 241.408 68.862 240.21L69.4029 234.53C69.7576 230.805 66.8289 227.585 63.0877 227.585C61.9654 227.585 61.0556 228.494 61.0556 229.617C61.0556 230.739 61.9654 231.649 63.0877 231.649C64.432 231.649 65.4843 232.806 65.3569 234.144L64.8159 239.824C64.5324 242.801 66.3129 245.555 69.0731 246.552C66.3129 247.548 64.5324 250.302 64.8159 253.279L65.3569 258.959Z" fill="white"/>
</g>
<defs>
<clipPath id="clip0_407_10631">
<rect width="43.353" height="43.353" fill="white" transform="translate(31.25 224.875)"/>
</clipPath>
</defs>
</svg>
