<svg width="296" height="320" viewBox="0 0 296 320" fill="none" xmlns="http://www.w3.org/2000/svg">
<rect width="296" height="320" fill="#5B768C"/>
<path fill-rule="evenodd" clip-rule="evenodd" d="M67.8295 239.71V253.111C67.8295 254.806 66.7786 256.322 65.1923 256.917L52.2495 261.77V245.274L67.8295 239.71ZM66.0584 236.027C65.9077 235.924 65.7489 235.83 65.5828 235.747L56.9893 231.45C55.9784 230.945 54.8028 230.883 53.7446 231.28L40.6616 236.186C40.4438 236.268 40.2362 236.367 40.04 236.481L50.3505 241.636L66.0584 236.027ZM38.0243 240.017L48.1852 245.098V261.313L40.271 257.356C38.8941 256.668 38.0243 255.26 38.0243 253.721V240.017ZM34.6821 236.642C34.2152 237.673 33.96 238.811 33.96 239.992V253.721C33.96 256.8 35.6995 259.614 38.4534 260.991L47.0469 265.288C49.0686 266.299 51.4199 266.422 53.5363 265.629L66.6194 260.722C69.792 259.533 71.8939 256.5 71.8939 253.111V239.382C71.8939 236.303 70.1543 233.489 67.4004 232.112L58.8069 227.815C56.7852 226.804 54.4339 226.681 52.3175 227.474L39.2345 232.38C37.539 233.016 36.1493 234.179 35.2228 235.64C35.0762 235.789 34.9503 235.962 34.8519 236.159C34.7735 236.316 34.7173 236.478 34.6821 236.642Z" fill="white"/>
</svg>
