<svg width="296" height="320" viewBox="0 0 296 320" fill="none" xmlns="http://www.w3.org/2000/svg">
<rect width="296" height="320" fill="#277270"/>
<path fill-rule="evenodd" clip-rule="evenodd" d="M48.8619 230.294H56.9906C58.487 230.294 59.7001 231.507 59.7001 233.004V241.132C59.7001 242.629 58.487 243.842 56.9906 243.842H48.8619C47.3654 243.842 46.1523 242.629 46.1523 241.132V233.004C46.1523 231.507 47.3654 230.294 48.8619 230.294ZM42.088 233.004C42.088 229.263 45.1208 226.23 48.8619 226.23H56.9906C60.7317 226.23 63.7645 229.263 63.7645 233.004V241.132C63.7645 242.096 63.5634 243.012 63.2008 243.842H66.4741C70.2152 243.842 73.248 246.875 73.248 250.616V258.745C73.248 262.486 70.2152 265.519 66.4741 265.519H58.3454H57.668H48.1845H47.5071H39.3784C35.6373 265.519 32.6045 262.486 32.6045 258.745V250.616C32.6045 246.875 35.6373 243.842 39.3784 243.842H42.6516C42.2891 243.012 42.088 242.096 42.088 241.132V233.004ZM48.1845 247.906C49.6809 247.906 50.8941 249.119 50.8941 250.616V258.745C50.8941 260.241 49.6809 261.454 48.1845 261.454H39.3784C37.882 261.454 36.6688 260.241 36.6688 258.745V250.616C36.6688 249.119 37.882 247.906 39.3784 247.906H48.1845ZM57.668 261.454C56.1715 261.454 54.9584 260.241 54.9584 258.745V250.616C54.9584 249.119 56.1715 247.906 57.668 247.906H66.4741C67.9705 247.906 69.1836 249.119 69.1836 250.616V258.745C69.1836 260.241 67.9705 261.454 66.4741 261.454H57.668Z" fill="white"/>
</svg>
