<svg width="160" height="32" viewBox="0 0 160 32" fill="none" xmlns="http://www.w3.org/2000/svg">
<path d="M104.71 6.77114C105.049 7.10445 105.463 7.27111 105.953 7.27111C106.423 7.27111 106.818 7.10445 107.138 6.77114C107.477 6.43783 107.647 6.03045 107.647 5.54901C107.647 5.06756 107.477 4.66018 107.138 4.32687C106.818 3.99356 106.423 3.8269 105.953 3.8269C105.463 3.8269 105.049 3.99356 104.71 4.32687C104.372 4.66018 104.202 5.06756 104.202 5.54901C104.202 6.03045 104.372 6.43783 104.71 6.77114Z" fill="black"/>
<path d="M113.888 20.4724V11.9022H118.192V9.95248H113.888V6.25059C113.422 6.25059 113.189 6.25059 112.996 6.29092C112.251 6.44632 111.669 7.02836 111.514 7.77327C111.473 7.96657 111.473 8.19942 111.473 8.66511V9.95248H109.815V11.9022H111.473V20.4724C111.473 23.0562 112.684 24.4523 115.506 24.4523H118.192V22.2817H115.649C114.322 22.2817 113.888 21.8264 113.888 20.4724Z" fill="black"/>
<path d="M107.083 9.9519V24.4921H104.669V9.9519H107.083Z" fill="black"/>
<path d="M99.7195 9.9519L95.2089 21.753L90.6717 9.9519H88.0715L93.7761 24.4921H96.5886L102.293 9.9519H99.7195Z" fill="black"/>
<path d="M40 15.2689C40 10.0905 44.1971 5.89334 49.378 5.89334C53.088 5.89334 56.2963 8.05251 57.8145 11.1811H54.9329C53.6737 9.47592 51.6524 8.36597 49.3756 8.36597C45.5687 8.36597 42.4726 11.4621 42.4726 15.2689C42.4726 19.0757 45.5687 22.1718 49.3756 22.1718C52.7235 22.1718 55.5191 19.7764 56.1466 16.6119L56.1678 16.5052H48.84V14.5037H58.719C58.74 14.756 58.7511 15.0109 58.7511 15.2689C58.7511 20.4473 54.554 24.6445 49.3756 24.6445C44.1972 24.6445 40 20.4473 40 15.2689Z" fill="black"/>
<path d="M138.963 5.99547V17.1254C138.963 19.5644 139.686 21.491 141.012 22.8078C142.333 24.1187 144.11 24.6835 145.948 24.6835C147.786 24.6835 149.572 24.1174 150.896 22.7629C152.22 21.4079 152.932 19.4184 152.932 16.8702V5.99547H150.508V16.6151C150.508 19.602 149.551 22.2598 145.948 22.2598C142.344 22.2598 141.387 19.8124 141.387 16.8702V5.99547H138.963Z" fill="black"/>
<path d="M159.352 5.99547V24.4921H156.928V5.99547H159.352Z" fill="black"/>
<path d="M119.382 9.9524L125.899 23.7403L122.903 30.345H123.117C124.321 30.345 124.923 30.345 125.397 30.0374C125.872 29.7299 126.118 29.1807 126.61 28.0822L134.73 9.9524H132.075L127.203 20.8276L122.063 9.9524H119.382Z" fill="black"/>
<path fill-rule="evenodd" clip-rule="evenodd" d="M78.1797 9.69484C74.0231 9.69484 70.6535 13.0644 70.6535 17.2211C70.6535 21.3777 74.0231 24.7473 78.1797 24.7473C80.4356 24.7473 82.1934 23.8629 83.3715 22.4415V24.4922H85.7952V9.95003H83.3715V12.0007C82.1934 10.5792 80.4356 9.69484 78.1797 9.69484ZM72.9977 17.2211C72.9977 14.3591 75.3178 12.0391 78.1797 12.0391C81.0417 12.0391 83.3617 14.3591 83.3617 17.2211C83.3617 20.083 81.0417 22.4031 78.1797 22.4031C75.3178 22.4031 72.9977 20.083 72.9977 17.2211Z" fill="black"/>
<path d="M69.5051 9.82234C67.2476 9.82234 65.3593 10.0776 64.1383 11.9288V9.95008H61.7237V24.4902H64.1383L64.1709 16.5934C64.1709 13.6571 65.5241 12.0613 68.2305 12.0613H69.5051V9.82234Z" fill="black"/>
<path d="M26.4582 26.4567C32.5294 20.3855 32.5294 10.5422 26.4582 4.47107L22.0925 8.83678C25.6603 12.541 25.6455 18.4085 22.0272 22.0268C18.4089 25.6451 12.5414 25.66 8.83714 22.0922L4.47266 26.4567C10.5438 32.5278 20.3871 32.5278 26.4582 26.4567Z" fill="url(#paint0_radial_407_11504)"/>
<path fill-rule="evenodd" clip-rule="evenodd" d="M4.55336 4.55336C-0.740224 9.84695 -1.4182 18.0083 2.51943 24.0365L2.51914 24.0368C2.79915 24.4814 2.93916 24.7038 3.0199 24.9118C3.20672 25.3931 3.23354 25.7905 3.11311 26.2925C3.06107 26.5095 2.92808 26.8017 2.66212 27.386C1.77448 29.336 1.58263 30.786 2.25692 31.4603C4.15982 33.3632 10.2534 30.3548 20.3048 20.3034C30.3561 10.252 33.3645 4.15844 31.4616 2.25554C30.7874 1.58131 29.3377 1.77306 27.3879 2.6605C26.8011 2.92758 26.5077 3.06112 26.2895 3.11321C25.7901 3.23244 25.3953 3.20606 24.9162 3.02142C24.7094 2.94171 24.4886 2.80372 24.052 2.52962C18.0224 -1.41937 9.8515 -0.744784 4.55336 4.55336ZM17.4318 17.4308C21.0928 13.7698 23.5616 10.3028 21.8635 8.60467C18.1678 4.90903 12.2041 4.88099 8.54302 8.54203C4.88198 12.2031 4.91002 18.1668 8.60565 21.8625C10.3038 23.5606 13.7707 21.0918 17.4318 17.4308Z" fill="url(#paint1_radial_407_11504)"/>
<path fill-rule="evenodd" clip-rule="evenodd" d="M4.55336 4.55336C-0.740224 9.84695 -1.4182 18.0083 2.51943 24.0365L2.51914 24.0368C2.79915 24.4814 2.93916 24.7038 3.0199 24.9118C3.20672 25.3931 3.23354 25.7905 3.11311 26.2925C3.06107 26.5095 2.92808 26.8017 2.66212 27.386C1.77448 29.336 1.58263 30.786 2.25692 31.4603C4.15982 33.3632 10.2534 30.3548 20.3048 20.3034C30.3561 10.252 33.3645 4.15844 31.4616 2.25554C30.7874 1.58131 29.3377 1.77306 27.3879 2.6605C26.8011 2.92758 26.5077 3.06112 26.2895 3.11321C25.7901 3.23244 25.3953 3.20606 24.9162 3.02142C24.7094 2.94171 24.4886 2.80372 24.052 2.52962C18.0224 -1.41937 9.8515 -0.744784 4.55336 4.55336ZM17.4318 17.4308C21.0928 13.7698 23.5616 10.3028 21.8635 8.60467C18.1678 4.90903 12.2041 4.88099 8.54302 8.54203C4.88198 12.2031 4.91002 18.1668 8.60565 21.8625C10.3038 23.5606 13.7707 21.0918 17.4318 17.4308Z" fill="url(#paint2_linear_407_11504)"/>
<defs>
<radialGradient id="paint0_radial_407_11504" cx="0" cy="0" r="1" gradientUnits="userSpaceOnUse" gradientTransform="translate(15.4305 15.6628) rotate(45) scale(15.3407 15.3407)">
<stop offset="0.646153" stop-color="#FFFF00"/>
<stop offset="1" stop-color="#FF3377"/>
</radialGradient>
<radialGradient id="paint1_radial_407_11504" cx="0" cy="0" r="1" gradientUnits="userSpaceOnUse" gradientTransform="translate(16.5576 16.6869) rotate(-45.6031) scale(17.2462 17.2462)">
<stop offset="0.653098" stop-color="#FFFF00"/>
<stop offset="1" stop-color="#FF3377"/>
</radialGradient>
<linearGradient id="paint2_linear_407_11504" x1="7.18729" y1="6.80321" x2="20.4084" y2="20.9228" gradientUnits="userSpaceOnUse">
<stop offset="0.557292" stop-color="#FFFF00" stop-opacity="0"/>
<stop offset="1" stop-color="#FF3377"/>
</linearGradient>
</defs>
</svg>
