<svg width="296" height="320" viewBox="0 0 296 320" fill="none" xmlns="http://www.w3.org/2000/svg">
<rect width="296" height="320" fill="#77E369"/>
<path fill-rule="evenodd" clip-rule="evenodd" d="M69.1836 242.482V256.035C69.1836 258.28 67.3639 260.099 65.1193 260.099H40.7332C38.4885 260.099 36.6688 258.28 36.6688 256.035V242.482C36.6688 242.428 36.6699 242.374 36.6721 242.32L48.4554 251.158C51.1048 253.145 54.7477 253.145 57.397 251.158L69.1804 242.32C69.1825 242.374 69.1836 242.428 69.1836 242.482ZM66.999 238.876L54.93 232.037C53.687 231.332 52.1655 231.332 50.9225 232.037L38.8535 238.876L50.8941 247.906C52.0983 248.809 53.7542 248.809 54.9584 247.906L66.999 238.876ZM32.6045 242.482C32.6045 239.555 34.1787 236.853 36.7256 235.41L48.9187 228.501C51.4047 227.092 54.4478 227.092 56.9338 228.501L69.1268 235.41C71.6738 236.853 73.248 239.555 73.248 242.482V256.035C73.248 260.524 69.6086 264.164 65.1193 264.164H40.7332C36.2438 264.164 32.6045 260.524 32.6045 256.035V242.482Z" fill="black"/>
</svg>
