<svg width="296" height="320" viewBox="0 0 296 320" fill="none" xmlns="http://www.w3.org/2000/svg">
<rect width="296" height="320" fill="#F7AF49"/>
<path fill-rule="evenodd" clip-rule="evenodd" d="M43.4431 233.004H62.4101C64.6548 233.004 66.4744 234.823 66.4744 237.068V256.035C66.4744 258.28 64.6548 260.099 62.4101 260.099H43.4431C41.1985 260.099 39.3788 258.28 39.3788 256.035V237.068C39.3788 234.823 41.1985 233.004 43.4431 233.004ZM35.3145 237.068C35.3145 232.579 38.9538 228.939 43.4431 228.939H62.4101C66.8994 228.939 70.5388 232.579 70.5388 237.068V256.035C70.5388 260.524 66.8994 264.164 62.4101 264.164H43.4431C38.9538 264.164 35.3145 260.524 35.3145 256.035V237.068ZM59.7008 242.894C61.4217 242.894 62.8168 241.499 62.8168 239.778C62.8168 238.057 61.4217 236.662 59.7008 236.662C57.9799 236.662 56.5848 238.057 56.5848 239.778C56.5848 241.499 57.9799 242.894 59.7008 242.894ZM56.0429 246.551C56.0429 248.272 54.6478 249.667 52.9269 249.667C51.206 249.667 49.8109 248.272 49.8109 246.551C49.8109 244.831 51.206 243.435 52.9269 243.435C54.6478 243.435 56.0429 244.831 56.0429 246.551ZM46.153 256.441C47.8739 256.441 49.269 255.046 49.269 253.325C49.269 251.604 47.8739 250.209 46.153 250.209C44.4321 250.209 43.037 251.604 43.037 253.325C43.037 255.046 44.4321 256.441 46.153 256.441Z" fill="black"/>
</svg>
