<svg width="816" height="460" viewBox="0 0 816 460" fill="none" xmlns="http://www.w3.org/2000/svg">
<g clip-path="url(#clip0_394_43793)">
<rect width="816" height="460" rx="24" fill="#A6AAC1"/>
<rect width="816" height="460" rx="24" fill="url(#paint0_radial_394_43793)"/>
<rect width="816" height="460" rx="24" fill="url(#paint1_radial_394_43793)"/>
<g opacity="0.3">
<circle cx="616" cy="138" r="553" stroke="white" stroke-width="2"/>
<circle cx="616" cy="138" r="500" stroke="white" stroke-width="2"/>
<circle cx="616" cy="138" r="387" stroke="white" stroke-width="2"/>
<circle cx="616" cy="138" r="330" stroke="white" stroke-width="2"/>
<circle cx="616" cy="138" r="444" stroke="white" stroke-width="2"/>
</g>
<path d="M438.295 99V75.7273H442.511V85.5795H453.295V75.7273H457.523V99H453.295V89.1136H442.511V99H438.295ZM469.54 99.3409C467.835 99.3409 466.358 98.9659 465.108 98.2159C463.858 97.4659 462.888 96.4167 462.199 95.0682C461.517 93.7197 461.176 92.1439 461.176 90.3409C461.176 88.5379 461.517 86.9583 462.199 85.6023C462.888 84.2462 463.858 83.1932 465.108 82.4432C466.358 81.6932 467.835 81.3182 469.54 81.3182C471.244 81.3182 472.722 81.6932 473.972 82.4432C475.222 83.1932 476.188 84.2462 476.869 85.6023C477.559 86.9583 477.903 88.5379 477.903 90.3409C477.903 92.1439 477.559 93.7197 476.869 95.0682C476.188 96.4167 475.222 97.4659 473.972 98.2159C472.722 98.9659 471.244 99.3409 469.54 99.3409ZM469.562 96.0455C470.487 96.0455 471.259 95.7917 471.881 95.2841C472.502 94.7689 472.964 94.0795 473.267 93.2159C473.578 92.3523 473.733 91.3902 473.733 90.3295C473.733 89.2614 473.578 88.2955 473.267 87.4318C472.964 86.5606 472.502 85.8674 471.881 85.3523C471.259 84.8371 470.487 84.5795 469.562 84.5795C468.616 84.5795 467.828 84.8371 467.199 85.3523C466.578 85.8674 466.112 86.5606 465.801 87.4318C465.498 88.2955 465.347 89.2614 465.347 90.3295C465.347 91.3902 465.498 92.3523 465.801 93.2159C466.112 94.0795 466.578 94.7689 467.199 95.2841C467.828 95.7917 468.616 96.0455 469.562 96.0455ZM484.497 99L479.565 81.5455H483.759L486.827 93.8182H486.986L490.122 81.5455H494.27L497.406 93.75H497.577L500.599 81.5455H504.804L499.861 99H495.577L492.304 87.2045H492.065L488.793 99H484.497ZM524.33 81.5455V84.7273H514.295V81.5455H524.33ZM516.773 77.3636H520.886V93.75C520.886 94.303 520.97 94.7273 521.136 95.0227C521.311 95.3106 521.538 95.5076 521.818 95.6136C522.098 95.7197 522.409 95.7727 522.75 95.7727C523.008 95.7727 523.242 95.7538 523.455 95.7159C523.674 95.678 523.841 95.6439 523.955 95.6136L524.648 98.8295C524.428 98.9053 524.114 98.9886 523.705 99.0795C523.303 99.1705 522.811 99.2235 522.227 99.2386C521.197 99.2689 520.269 99.1136 519.443 98.7727C518.617 98.4242 517.962 97.8864 517.477 97.1591C517 96.4318 516.765 95.5227 516.773 94.4318V77.3636ZM535.196 99.3409C533.491 99.3409 532.014 98.9659 530.764 98.2159C529.514 97.4659 528.545 96.4167 527.855 95.0682C527.173 93.7197 526.832 92.1439 526.832 90.3409C526.832 88.5379 527.173 86.9583 527.855 85.6023C528.545 84.2462 529.514 83.1932 530.764 82.4432C532.014 81.6932 533.491 81.3182 535.196 81.3182C536.901 81.3182 538.378 81.6932 539.628 82.4432C540.878 83.1932 541.844 84.2462 542.526 85.6023C543.215 86.9583 543.56 88.5379 543.56 90.3409C543.56 92.1439 543.215 93.7197 542.526 95.0682C541.844 96.4167 540.878 97.4659 539.628 98.2159C538.378 98.9659 536.901 99.3409 535.196 99.3409ZM535.219 96.0455C536.143 96.0455 536.916 95.7917 537.537 95.2841C538.158 94.7689 538.62 94.0795 538.923 93.2159C539.234 92.3523 539.389 91.3902 539.389 90.3295C539.389 89.2614 539.234 88.2955 538.923 87.4318C538.62 86.5606 538.158 85.8674 537.537 85.3523C536.916 84.8371 536.143 84.5795 535.219 84.5795C534.272 84.5795 533.484 84.8371 532.855 85.3523C532.234 85.8674 531.768 86.5606 531.457 87.4318C531.154 88.2955 531.003 89.2614 531.003 90.3295C531.003 91.3902 531.154 92.3523 531.457 93.2159C531.768 94.0795 532.234 94.7689 532.855 95.2841C533.484 95.7917 534.272 96.0455 535.219 96.0455ZM561.466 99.3068C560.095 99.3068 558.867 98.9545 557.784 98.25C556.701 97.5455 555.845 96.5227 555.216 95.1818C554.587 93.8409 554.273 92.2121 554.273 90.2955C554.273 88.3561 554.591 86.7197 555.227 85.3864C555.871 84.0455 556.739 83.0341 557.83 82.3523C558.92 81.6629 560.136 81.3182 561.477 81.3182C562.5 81.3182 563.341 81.4924 564 81.8409C564.659 82.1818 565.182 82.5947 565.568 83.0795C565.955 83.5568 566.254 84.0076 566.466 84.4318H566.636V75.7273H570.761V99H566.716V96.25H566.466C566.254 96.6742 565.947 97.125 565.545 97.6023C565.144 98.072 564.614 98.4735 563.955 98.8068C563.295 99.1402 562.466 99.3068 561.466 99.3068ZM562.614 95.9318C563.485 95.9318 564.227 95.697 564.841 95.2273C565.455 94.75 565.92 94.0871 566.239 93.2386C566.557 92.3902 566.716 91.4015 566.716 90.2727C566.716 89.1439 566.557 88.1629 566.239 87.3295C565.928 86.4962 565.466 85.8485 564.852 85.3864C564.246 84.9242 563.5 84.6932 562.614 84.6932C561.697 84.6932 560.932 84.9318 560.318 85.4091C559.705 85.8864 559.242 86.5455 558.932 87.3864C558.621 88.2273 558.466 89.1894 558.466 90.2727C558.466 91.3636 558.621 92.3371 558.932 93.1932C559.25 94.0417 559.716 94.7121 560.33 95.2045C560.951 95.6894 561.712 95.9318 562.614 95.9318ZM582.759 99.3409C581.054 99.3409 579.577 98.9659 578.327 98.2159C577.077 97.4659 576.107 96.4167 575.418 95.0682C574.736 93.7197 574.395 92.1439 574.395 90.3409C574.395 88.5379 574.736 86.9583 575.418 85.6023C576.107 84.2462 577.077 83.1932 578.327 82.4432C579.577 81.6932 581.054 81.3182 582.759 81.3182C584.463 81.3182 585.94 81.6932 587.19 82.4432C588.44 83.1932 589.406 84.2462 590.088 85.6023C590.777 86.9583 591.122 88.5379 591.122 90.3409C591.122 92.1439 590.777 93.7197 590.088 95.0682C589.406 96.4167 588.44 97.4659 587.19 98.2159C585.94 98.9659 584.463 99.3409 582.759 99.3409ZM582.781 96.0455C583.705 96.0455 584.478 95.7917 585.099 95.2841C585.721 94.7689 586.183 94.0795 586.486 93.2159C586.796 92.3523 586.952 91.3902 586.952 90.3295C586.952 89.2614 586.796 88.2955 586.486 87.4318C586.183 86.5606 585.721 85.8674 585.099 85.3523C584.478 84.8371 583.705 84.5795 582.781 84.5795C581.834 84.5795 581.046 84.8371 580.418 85.3523C579.796 85.8674 579.33 86.5606 579.02 87.4318C578.717 88.2955 578.565 89.2614 578.565 90.3295C578.565 91.3902 578.717 92.3523 579.02 93.2159C579.33 94.0795 579.796 94.7689 580.418 95.2841C581.046 95.7917 581.834 96.0455 582.781 96.0455ZM602.551 99V81.5455H606.665V99H602.551ZM604.619 79.0682C603.968 79.0682 603.407 78.8523 602.938 78.4205C602.468 77.9811 602.233 77.4545 602.233 76.8409C602.233 76.2197 602.468 75.6932 602.938 75.2614C603.407 74.822 603.968 74.6023 604.619 74.6023C605.278 74.6023 605.839 74.822 606.301 75.2614C606.771 75.6932 607.006 76.2197 607.006 76.8409C607.006 77.4545 606.771 77.9811 606.301 78.4205C605.839 78.8523 605.278 79.0682 604.619 79.0682ZM619.611 81.5455V84.7273H609.577V81.5455H619.611ZM612.054 77.3636H616.168V93.75C616.168 94.303 616.251 94.7273 616.418 95.0227C616.592 95.3106 616.819 95.5076 617.099 95.6136C617.38 95.7197 617.69 95.7727 618.031 95.7727C618.289 95.7727 618.524 95.7538 618.736 95.7159C618.955 95.678 619.122 95.6439 619.236 95.6136L619.929 98.8295C619.709 98.9053 619.395 98.9886 618.986 99.0795C618.584 99.1705 618.092 99.2235 617.509 99.2386C616.478 99.2689 615.55 99.1136 614.724 98.7727C613.899 98.4242 613.243 97.8864 612.759 97.1591C612.281 96.4318 612.046 95.5227 612.054 94.4318V77.3636ZM636.011 99.3523C634.905 99.3523 633.909 99.1553 633.023 98.7614C632.144 98.3598 631.447 97.7689 630.932 96.9886C630.424 96.2083 630.17 95.2462 630.17 94.1023C630.17 93.1174 630.352 92.303 630.716 91.6591C631.08 91.0152 631.576 90.5 632.205 90.1136C632.833 89.7273 633.542 89.4356 634.33 89.2386C635.125 89.0341 635.947 88.8864 636.795 88.7955C637.818 88.6894 638.648 88.5947 639.284 88.5114C639.92 88.4205 640.383 88.2841 640.67 88.1023C640.966 87.9129 641.114 87.6212 641.114 87.2273V87.1591C641.114 86.303 640.86 85.6402 640.352 85.1705C639.845 84.7008 639.114 84.4659 638.159 84.4659C637.152 84.4659 636.352 84.6856 635.761 85.125C635.178 85.5644 634.784 86.0833 634.58 86.6818L630.739 86.1364C631.042 85.0758 631.542 84.1894 632.239 83.4773C632.936 82.7576 633.788 82.2197 634.795 81.8636C635.803 81.5 636.917 81.3182 638.136 81.3182C638.977 81.3182 639.814 81.4167 640.648 81.6136C641.481 81.8106 642.242 82.1364 642.932 82.5909C643.621 83.0379 644.174 83.6477 644.591 84.4205C645.015 85.1932 645.227 86.1591 645.227 87.3182V99H641.273V96.6023H641.136C640.886 97.0871 640.534 97.5417 640.08 97.9659C639.633 98.3826 639.068 98.7197 638.386 98.9773C637.712 99.2273 636.92 99.3523 636.011 99.3523ZM637.08 96.3295C637.905 96.3295 638.621 96.1667 639.227 95.8409C639.833 95.5076 640.299 95.0682 640.625 94.5227C640.958 93.9773 641.125 93.3826 641.125 92.7386V90.6818C640.996 90.7879 640.777 90.8864 640.466 90.9773C640.163 91.0682 639.822 91.1477 639.443 91.2159C639.064 91.2841 638.689 91.3447 638.318 91.3977C637.947 91.4508 637.625 91.4962 637.352 91.5341C636.739 91.6174 636.189 91.7538 635.705 91.9432C635.22 92.1326 634.837 92.3977 634.557 92.7386C634.277 93.072 634.136 93.5038 634.136 94.0341C634.136 94.7917 634.413 95.3636 634.966 95.75C635.519 96.1364 636.223 96.3295 637.08 96.3295ZM653.477 88.7727V99H649.364V81.5455H653.295V84.5114H653.5C653.902 83.5341 654.542 82.7576 655.42 82.1818C656.307 81.6061 657.402 81.3182 658.705 81.3182C659.909 81.3182 660.958 81.5758 661.852 82.0909C662.754 82.6061 663.451 83.3523 663.943 84.3295C664.443 85.3068 664.689 86.4924 664.682 87.8864V99H660.568V88.5227C660.568 87.3561 660.265 86.4432 659.659 85.7841C659.061 85.125 658.231 84.7955 657.17 84.7955C656.451 84.7955 655.811 84.9545 655.25 85.2727C654.697 85.5833 654.261 86.0341 653.943 86.625C653.633 87.2159 653.477 87.9318 653.477 88.7727ZM675.341 99.3068C673.97 99.3068 672.742 98.9545 671.659 98.25C670.576 97.5455 669.72 96.5227 669.091 95.1818C668.462 93.8409 668.148 92.2121 668.148 90.2955C668.148 88.3561 668.466 86.7197 669.102 85.3864C669.746 84.0455 670.614 83.0341 671.705 82.3523C672.795 81.6629 674.011 81.3182 675.352 81.3182C676.375 81.3182 677.216 81.4924 677.875 81.8409C678.534 82.1818 679.057 82.5947 679.443 83.0795C679.83 83.5568 680.129 84.0076 680.341 84.4318H680.511V75.7273H684.636V99H680.591V96.25H680.341C680.129 96.6742 679.822 97.125 679.42 97.6023C679.019 98.072 678.489 98.4735 677.83 98.8068C677.17 99.1402 676.341 99.3068 675.341 99.3068ZM676.489 95.9318C677.36 95.9318 678.102 95.697 678.716 95.2273C679.33 94.75 679.795 94.0871 680.114 93.2386C680.432 92.3902 680.591 91.4015 680.591 90.2727C680.591 89.1439 680.432 88.1629 680.114 87.3295C679.803 86.4962 679.341 85.8485 678.727 85.3864C678.121 84.9242 677.375 84.6932 676.489 84.6932C675.572 84.6932 674.807 84.9318 674.193 85.4091C673.58 85.8864 673.117 86.5455 672.807 87.3864C672.496 88.2273 672.341 89.1894 672.341 90.2727C672.341 91.3636 672.496 92.3371 672.807 93.1932C673.125 94.0417 673.591 94.7121 674.205 95.2045C674.826 95.6894 675.587 95.9318 676.489 95.9318ZM704.548 105.909C703.071 105.909 701.802 105.708 700.741 105.307C699.681 104.913 698.829 104.383 698.185 103.716C697.541 103.049 697.094 102.311 696.844 101.5L700.548 100.602C700.715 100.943 700.957 101.28 701.276 101.614C701.594 101.955 702.022 102.235 702.56 102.455C703.105 102.682 703.791 102.795 704.616 102.795C705.783 102.795 706.749 102.511 707.514 101.943C708.279 101.383 708.662 100.458 708.662 99.1705V95.8636H708.457C708.245 96.2879 707.935 96.7235 707.526 97.1705C707.124 97.6174 706.59 97.9924 705.923 98.2955C705.264 98.5985 704.435 98.75 703.435 98.75C702.094 98.75 700.878 98.4356 699.787 97.8068C698.704 97.1705 697.84 96.2235 697.196 94.9659C696.56 93.7008 696.241 92.1174 696.241 90.2159C696.241 88.2992 696.56 86.6818 697.196 85.3636C697.84 84.0379 698.707 83.0341 699.798 82.3523C700.889 81.6629 702.105 81.3182 703.446 81.3182C704.469 81.3182 705.31 81.4924 705.969 81.8409C706.635 82.1818 707.166 82.5947 707.56 83.0795C707.954 83.5568 708.253 84.0076 708.457 84.4318H708.685V81.5455H712.741V99.2841C712.741 100.777 712.385 102.011 711.673 102.989C710.961 103.966 709.988 104.697 708.753 105.182C707.518 105.667 706.116 105.909 704.548 105.909ZM704.582 95.5227C705.454 95.5227 706.196 95.3106 706.81 94.8864C707.423 94.4621 707.889 93.8523 708.207 93.0568C708.526 92.2614 708.685 91.3068 708.685 90.1932C708.685 89.0947 708.526 88.1326 708.207 87.3068C707.897 86.4811 707.435 85.8409 706.821 85.3864C706.215 84.9242 705.469 84.6932 704.582 84.6932C703.666 84.6932 702.901 84.9318 702.287 85.4091C701.673 85.8864 701.211 86.5417 700.901 87.375C700.59 88.2008 700.435 89.1402 700.435 90.1932C700.435 91.2614 700.59 92.197 700.901 93C701.219 93.7955 701.685 94.4167 702.298 94.8636C702.92 95.303 703.681 95.5227 704.582 95.5227ZM724.685 99.3409C722.935 99.3409 721.423 98.9773 720.151 98.25C718.885 97.5152 717.912 96.4773 717.23 95.1364C716.548 93.7879 716.207 92.2008 716.207 90.375C716.207 88.5795 716.548 87.0038 717.23 85.6477C717.92 84.2841 718.882 83.2235 720.116 82.4659C721.351 81.7008 722.802 81.3182 724.469 81.3182C725.545 81.3182 726.56 81.4924 727.514 81.8409C728.476 82.1818 729.325 82.7121 730.06 83.4318C730.802 84.1515 731.385 85.0682 731.81 86.1818C732.234 87.2879 732.446 88.6061 732.446 90.1364V91.3977H718.139V88.625H728.503C728.495 87.8371 728.325 87.1364 727.991 86.5227C727.658 85.9015 727.192 85.4129 726.594 85.0568C726.003 84.7008 725.313 84.5227 724.526 84.5227C723.685 84.5227 722.946 84.7273 722.31 85.1364C721.673 85.5379 721.177 86.0682 720.821 86.7273C720.473 87.3788 720.295 88.0947 720.287 88.875V91.2955C720.287 92.3106 720.473 93.1818 720.844 93.9091C721.215 94.6288 721.734 95.1818 722.401 95.5682C723.067 95.947 723.848 96.1364 724.741 96.1364C725.34 96.1364 725.882 96.053 726.366 95.8864C726.851 95.7121 727.272 95.4583 727.628 95.125C727.984 94.7917 728.253 94.3788 728.435 93.8864L732.276 94.3182C732.033 95.3333 731.571 96.2197 730.889 96.9773C730.215 97.7273 729.351 98.3106 728.298 98.7273C727.245 99.1364 726.041 99.3409 724.685 99.3409ZM744.642 81.5455V84.7273H734.608V81.5455H744.642ZM737.085 77.3636H741.199V93.75C741.199 94.303 741.282 94.7273 741.449 95.0227C741.623 95.3106 741.85 95.5076 742.131 95.6136C742.411 95.7197 742.722 95.7727 743.062 95.7727C743.32 95.7727 743.555 95.7538 743.767 95.7159C743.987 95.678 744.153 95.6439 744.267 95.6136L744.96 98.8295C744.741 98.9053 744.426 98.9886 744.017 99.0795C743.616 99.1705 743.123 99.2235 742.54 99.2386C741.509 99.2689 740.581 99.1136 739.756 98.7727C738.93 98.4242 738.275 97.8864 737.79 97.1591C737.313 96.4318 737.078 95.5227 737.085 94.4318V77.3636ZM446.83 121.545V124.727H436.795V121.545H446.83ZM439.273 117.364H443.386V133.75C443.386 134.303 443.47 134.727 443.636 135.023C443.811 135.311 444.038 135.508 444.318 135.614C444.598 135.72 444.909 135.773 445.25 135.773C445.508 135.773 445.742 135.754 445.955 135.716C446.174 135.678 446.341 135.644 446.455 135.614L447.148 138.83C446.928 138.905 446.614 138.989 446.205 139.08C445.803 139.17 445.311 139.223 444.727 139.239C443.697 139.269 442.769 139.114 441.943 138.773C441.117 138.424 440.462 137.886 439.977 137.159C439.5 136.432 439.265 135.523 439.273 134.432V117.364ZM454.759 128.773V139H450.645V115.727H454.668V124.511H454.872C455.281 123.527 455.914 122.75 456.77 122.182C457.634 121.606 458.732 121.318 460.065 121.318C461.277 121.318 462.334 121.572 463.236 122.08C464.137 122.587 464.834 123.33 465.327 124.307C465.827 125.284 466.077 126.477 466.077 127.886V139H461.963V128.523C461.963 127.348 461.66 126.436 461.054 125.784C460.455 125.125 459.615 124.795 458.531 124.795C457.804 124.795 457.152 124.955 456.577 125.273C456.009 125.583 455.562 126.034 455.236 126.625C454.918 127.216 454.759 127.932 454.759 128.773ZM477.997 139.341C476.247 139.341 474.736 138.977 473.463 138.25C472.198 137.515 471.224 136.477 470.543 135.136C469.861 133.788 469.52 132.201 469.52 130.375C469.52 128.58 469.861 127.004 470.543 125.648C471.232 124.284 472.194 123.223 473.429 122.466C474.664 121.701 476.115 121.318 477.781 121.318C478.857 121.318 479.872 121.492 480.827 121.841C481.789 122.182 482.637 122.712 483.372 123.432C484.115 124.152 484.698 125.068 485.122 126.182C485.546 127.288 485.759 128.606 485.759 130.136V131.398H471.452V128.625H481.815C481.808 127.837 481.637 127.136 481.304 126.523C480.971 125.902 480.505 125.413 479.906 125.057C479.315 124.701 478.626 124.523 477.838 124.523C476.997 124.523 476.259 124.727 475.622 125.136C474.986 125.538 474.49 126.068 474.134 126.727C473.785 127.379 473.607 128.095 473.599 128.875V131.295C473.599 132.311 473.785 133.182 474.156 133.909C474.527 134.629 475.046 135.182 475.713 135.568C476.38 135.947 477.16 136.136 478.054 136.136C478.652 136.136 479.194 136.053 479.679 135.886C480.164 135.712 480.584 135.458 480.94 135.125C481.296 134.792 481.565 134.379 481.747 133.886L485.588 134.318C485.346 135.333 484.884 136.22 484.202 136.977C483.527 137.727 482.664 138.311 481.611 138.727C480.558 139.136 479.353 139.341 477.997 139.341ZM497.176 139V121.545H501.165V124.455H501.347C501.665 123.447 502.21 122.67 502.983 122.125C503.763 121.572 504.653 121.295 505.653 121.295C505.881 121.295 506.134 121.307 506.415 121.33C506.703 121.345 506.941 121.371 507.131 121.409V125.193C506.956 125.133 506.68 125.08 506.301 125.034C505.93 124.981 505.57 124.955 505.222 124.955C504.472 124.955 503.797 125.117 503.199 125.443C502.608 125.761 502.142 126.205 501.801 126.773C501.46 127.341 501.29 127.996 501.29 128.739V139H497.176ZM509.864 139V121.545H513.977V139H509.864ZM511.932 119.068C511.28 119.068 510.72 118.852 510.25 118.42C509.78 117.981 509.545 117.455 509.545 116.841C509.545 116.22 509.78 115.693 510.25 115.261C510.72 114.822 511.28 114.602 511.932 114.602C512.591 114.602 513.152 114.822 513.614 115.261C514.083 115.693 514.318 116.22 514.318 116.841C514.318 117.455 514.083 117.981 513.614 118.42C513.152 118.852 512.591 119.068 511.932 119.068ZM525.798 145.909C524.321 145.909 523.052 145.708 521.991 145.307C520.931 144.913 520.079 144.383 519.435 143.716C518.791 143.049 518.344 142.311 518.094 141.5L521.798 140.602C521.965 140.943 522.207 141.28 522.526 141.614C522.844 141.955 523.272 142.235 523.81 142.455C524.355 142.682 525.041 142.795 525.866 142.795C527.033 142.795 527.999 142.511 528.764 141.943C529.529 141.383 529.912 140.458 529.912 139.17V135.864H529.707C529.495 136.288 529.185 136.723 528.776 137.17C528.374 137.617 527.84 137.992 527.173 138.295C526.514 138.598 525.685 138.75 524.685 138.75C523.344 138.75 522.128 138.436 521.037 137.807C519.954 137.17 519.09 136.223 518.446 134.966C517.81 133.701 517.491 132.117 517.491 130.216C517.491 128.299 517.81 126.682 518.446 125.364C519.09 124.038 519.957 123.034 521.048 122.352C522.139 121.663 523.355 121.318 524.696 121.318C525.719 121.318 526.56 121.492 527.219 121.841C527.885 122.182 528.416 122.595 528.81 123.08C529.204 123.557 529.503 124.008 529.707 124.432H529.935V121.545H533.991V139.284C533.991 140.777 533.635 142.011 532.923 142.989C532.211 143.966 531.238 144.697 530.003 145.182C528.768 145.667 527.366 145.909 525.798 145.909ZM525.832 135.523C526.704 135.523 527.446 135.311 528.06 134.886C528.673 134.462 529.139 133.852 529.457 133.057C529.776 132.261 529.935 131.307 529.935 130.193C529.935 129.095 529.776 128.133 529.457 127.307C529.147 126.481 528.685 125.841 528.071 125.386C527.465 124.924 526.719 124.693 525.832 124.693C524.916 124.693 524.151 124.932 523.537 125.409C522.923 125.886 522.461 126.542 522.151 127.375C521.84 128.201 521.685 129.14 521.685 130.193C521.685 131.261 521.84 132.197 522.151 133C522.469 133.795 522.935 134.417 523.548 134.864C524.17 135.303 524.931 135.523 525.832 135.523ZM542.321 128.773V139H538.207V115.727H542.23V124.511H542.435C542.844 123.527 543.476 122.75 544.332 122.182C545.196 121.606 546.295 121.318 547.628 121.318C548.84 121.318 549.897 121.572 550.798 122.08C551.7 122.587 552.397 123.33 552.889 124.307C553.389 125.284 553.639 126.477 553.639 127.886V139H549.526V128.523C549.526 127.348 549.223 126.436 548.616 125.784C548.018 125.125 547.177 124.795 546.094 124.795C545.366 124.795 544.715 124.955 544.139 125.273C543.571 125.583 543.124 126.034 542.798 126.625C542.48 127.216 542.321 127.932 542.321 128.773ZM566.548 121.545V124.727H556.514V121.545H566.548ZM558.991 117.364H563.105V133.75C563.105 134.303 563.188 134.727 563.355 135.023C563.529 135.311 563.757 135.508 564.037 135.614C564.317 135.72 564.628 135.773 564.969 135.773C565.226 135.773 565.461 135.754 565.673 135.716C565.893 135.678 566.06 135.644 566.173 135.614L566.866 138.83C566.647 138.905 566.332 138.989 565.923 139.08C565.522 139.17 565.029 139.223 564.446 139.239C563.416 139.269 562.488 139.114 561.662 138.773C560.836 138.424 560.181 137.886 559.696 137.159C559.219 136.432 558.984 135.523 558.991 134.432V117.364ZM577.926 139V121.545H581.915V124.455H582.097C582.415 123.447 582.96 122.67 583.733 122.125C584.513 121.572 585.403 121.295 586.403 121.295C586.631 121.295 586.884 121.307 587.165 121.33C587.453 121.345 587.691 121.371 587.881 121.409V125.193C587.706 125.133 587.43 125.08 587.051 125.034C586.68 124.981 586.32 124.955 585.972 124.955C585.222 124.955 584.547 125.117 583.949 125.443C583.358 125.761 582.892 126.205 582.551 126.773C582.21 127.341 582.04 127.996 582.04 128.739V139H577.926ZM597.622 139.341C595.872 139.341 594.361 138.977 593.088 138.25C591.823 137.515 590.849 136.477 590.168 135.136C589.486 133.788 589.145 132.201 589.145 130.375C589.145 128.58 589.486 127.004 590.168 125.648C590.857 124.284 591.819 123.223 593.054 122.466C594.289 121.701 595.74 121.318 597.406 121.318C598.482 121.318 599.497 121.492 600.452 121.841C601.414 122.182 602.262 122.712 602.997 123.432C603.74 124.152 604.323 125.068 604.747 126.182C605.171 127.288 605.384 128.606 605.384 130.136V131.398H591.077V128.625H601.44C601.433 127.837 601.262 127.136 600.929 126.523C600.596 125.902 600.13 125.413 599.531 125.057C598.94 124.701 598.251 124.523 597.463 124.523C596.622 124.523 595.884 124.727 595.247 125.136C594.611 125.538 594.115 126.068 593.759 126.727C593.41 127.379 593.232 128.095 593.224 128.875V131.295C593.224 132.311 593.41 133.182 593.781 133.909C594.152 134.629 594.671 135.182 595.338 135.568C596.005 135.947 596.785 136.136 597.679 136.136C598.277 136.136 598.819 136.053 599.304 135.886C599.789 135.712 600.209 135.458 600.565 135.125C600.921 134.792 601.19 134.379 601.372 133.886L605.213 134.318C604.971 135.333 604.509 136.22 603.827 136.977C603.152 137.727 602.289 138.311 601.236 138.727C600.183 139.136 598.978 139.341 597.622 139.341ZM622.659 126.159L618.909 126.568C618.803 126.189 618.617 125.833 618.352 125.5C618.095 125.167 617.746 124.898 617.307 124.693C616.867 124.489 616.33 124.386 615.693 124.386C614.837 124.386 614.117 124.572 613.534 124.943C612.958 125.314 612.674 125.795 612.682 126.386C612.674 126.894 612.86 127.307 613.239 127.625C613.625 127.943 614.261 128.205 615.148 128.409L618.125 129.045C619.777 129.402 621.004 129.966 621.807 130.739C622.617 131.511 623.027 132.523 623.034 133.773C623.027 134.871 622.705 135.841 622.068 136.682C621.439 137.515 620.564 138.167 619.443 138.636C618.322 139.106 617.034 139.341 615.58 139.341C613.443 139.341 611.723 138.894 610.42 138C609.117 137.098 608.341 135.845 608.091 134.239L612.102 133.852C612.284 134.64 612.67 135.235 613.261 135.636C613.852 136.038 614.621 136.239 615.568 136.239C616.545 136.239 617.33 136.038 617.92 135.636C618.519 135.235 618.818 134.739 618.818 134.148C618.818 133.648 618.625 133.235 618.239 132.909C617.86 132.583 617.269 132.333 616.466 132.159L613.489 131.534C611.814 131.186 610.576 130.598 609.773 129.773C608.97 128.939 608.572 127.886 608.58 126.614C608.572 125.538 608.864 124.606 609.455 123.818C610.053 123.023 610.883 122.409 611.943 121.977C613.011 121.538 614.242 121.318 615.636 121.318C617.682 121.318 619.292 121.754 620.466 122.625C621.648 123.496 622.379 124.674 622.659 126.159ZM637.551 131.659V121.545H641.665V139H637.676V135.898H637.494C637.1 136.875 636.453 137.674 635.551 138.295C634.657 138.917 633.555 139.227 632.244 139.227C631.1 139.227 630.089 138.973 629.21 138.466C628.339 137.951 627.657 137.205 627.165 136.227C626.672 135.242 626.426 134.053 626.426 132.659V121.545H630.54V132.023C630.54 133.129 630.843 134.008 631.449 134.659C632.055 135.311 632.85 135.636 633.835 135.636C634.441 135.636 635.028 135.489 635.597 135.193C636.165 134.898 636.631 134.458 636.994 133.875C637.366 133.284 637.551 132.545 637.551 131.659ZM650.009 115.727V139H645.895V115.727H650.009ZM662.955 121.545V124.727H652.92V121.545H662.955ZM655.398 117.364H659.511V133.75C659.511 134.303 659.595 134.727 659.761 135.023C659.936 135.311 660.163 135.508 660.443 135.614C660.723 135.72 661.034 135.773 661.375 135.773C661.633 135.773 661.867 135.754 662.08 135.716C662.299 135.678 662.466 135.644 662.58 135.614L663.273 138.83C663.053 138.905 662.739 138.989 662.33 139.08C661.928 139.17 661.436 139.223 660.852 139.239C659.822 139.269 658.894 139.114 658.068 138.773C657.242 138.424 656.587 137.886 656.102 137.159C655.625 136.432 655.39 135.523 655.398 134.432V117.364ZM679.94 126.159L676.19 126.568C676.084 126.189 675.899 125.833 675.634 125.5C675.376 125.167 675.027 124.898 674.588 124.693C674.149 124.489 673.611 124.386 672.974 124.386C672.118 124.386 671.399 124.572 670.815 124.943C670.24 125.314 669.955 125.795 669.963 126.386C669.955 126.894 670.141 127.307 670.52 127.625C670.906 127.943 671.543 128.205 672.429 128.409L675.406 129.045C677.058 129.402 678.285 129.966 679.088 130.739C679.899 131.511 680.308 132.523 680.315 133.773C680.308 134.871 679.986 135.841 679.349 136.682C678.721 137.515 677.846 138.167 676.724 138.636C675.603 139.106 674.315 139.341 672.861 139.341C670.724 139.341 669.005 138.894 667.702 138C666.399 137.098 665.622 135.845 665.372 134.239L669.384 133.852C669.565 134.64 669.952 135.235 670.543 135.636C671.134 136.038 671.902 136.239 672.849 136.239C673.827 136.239 674.611 136.038 675.202 135.636C675.8 135.235 676.099 134.739 676.099 134.148C676.099 133.648 675.906 133.235 675.52 132.909C675.141 132.583 674.55 132.333 673.747 132.159L670.77 131.534C669.096 131.186 667.857 130.598 667.054 129.773C666.251 128.939 665.853 127.886 665.861 126.614C665.853 125.538 666.145 124.606 666.736 123.818C667.334 123.023 668.164 122.409 669.224 121.977C670.293 121.538 671.524 121.318 672.918 121.318C674.963 121.318 676.573 121.754 677.747 122.625C678.929 123.496 679.66 124.674 679.94 126.159Z" fill="white"/>
</g>
<defs>
<radialGradient id="paint0_radial_394_43793" cx="0" cy="0" r="1" gradientUnits="userSpaceOnUse" gradientTransform="translate(816 460) rotate(-118.36) scale(858.922 635.993)">
<stop stop-color="#6C758C"/>
<stop offset="1" stop-color="#6C758C" stop-opacity="0"/>
</radialGradient>
<radialGradient id="paint1_radial_394_43793" cx="0" cy="0" r="1" gradientUnits="userSpaceOnUse" gradientTransform="translate(-9.29863e-06 460) rotate(-56.3779) scale(1114.84 987.23)">
<stop stop-color="#404D6B"/>
<stop offset="1" stop-color="#404D6B" stop-opacity="0"/>
</radialGradient>
<clipPath id="clip0_394_43793">
<rect width="816" height="460" rx="24" fill="white"/>
</clipPath>
</defs>
</svg>
