<svg width="296" height="320" viewBox="0 0 296 320" fill="none" xmlns="http://www.w3.org/2000/svg">
<rect width="296" height="320" fill="#FAE26F"/>
<path fill-rule="evenodd" clip-rule="evenodd" d="M61.055 261.454H44.7976C42.553 261.454 40.7333 259.634 40.7333 257.39L40.7333 235.713C40.7333 233.469 42.553 231.649 44.7976 231.649L50.2168 231.649V238.423C50.2168 242.912 53.8561 246.552 58.3455 246.552H65.1194V257.39C65.1194 259.634 63.2997 261.454 61.055 261.454ZM64.5863 242.487C64.4082 242.175 64.1878 241.884 63.929 241.626L55.1428 232.839C54.8839 232.58 54.5937 232.36 54.2811 232.182V238.423C54.2811 240.668 56.1008 242.487 58.3455 242.487H64.5863ZM66.8029 238.752C68.3273 240.276 69.1837 242.344 69.1837 244.499V257.39C69.1837 261.879 65.5444 265.519 61.055 265.519H44.7976C40.3083 265.519 36.6689 261.879 36.6689 257.39V235.713C36.6689 231.224 40.3083 227.585 44.7976 227.585H52.2689C54.4247 227.585 56.4923 228.441 58.0167 229.965L66.8029 238.752Z" fill="black"/>
</svg>
