<svg width="296" height="48" viewBox="0 0 296 48" fill="none" xmlns="http://www.w3.org/2000/svg">
<rect width="296" height="48" fill="white"/>
<path d="M32 24L296 24" stroke="#3697F1" stroke-opacity="0.8" stroke-width="2"/>
<rect width="48" height="48" rx="24" fill="#348BDC"/>
<path d="M28.7345 31H19.3145V28.7C20.5412 27.7533 21.5879 26.92 22.4545 26.2C23.3212 25.48 24.0279 24.82 24.5745 24.22C25.1345 23.6067 25.5412 23.0333 25.7945 22.5C26.0479 21.9667 26.1745 21.4067 26.1745 20.82C26.1745 20.1 25.9545 19.5267 25.5145 19.1C25.0879 18.6733 24.4745 18.46 23.6745 18.46C22.9145 18.46 22.2012 18.6267 21.5345 18.96C20.8812 19.2933 20.2745 19.7333 19.7145 20.28V17.98C20.2479 17.5133 20.8479 17.1467 21.5145 16.88C22.1812 16.6 22.9812 16.46 23.9145 16.46C24.6479 16.46 25.3012 16.56 25.8745 16.76C26.4612 16.96 26.9612 17.2467 27.3745 17.62C27.7879 17.98 28.1012 18.4267 28.3145 18.96C28.5412 19.48 28.6545 20.0667 28.6545 20.72C28.6545 21.4533 28.5079 22.14 28.2145 22.78C27.9212 23.42 27.4879 24.06 26.9145 24.7C26.3545 25.34 25.6479 26.0067 24.7945 26.7C23.9545 27.38 22.9812 28.1333 21.8745 28.96H28.7345V31Z" fill="white"/>
</svg>
