<svg width="296" height="48" viewBox="0 0 296 48" fill="none" xmlns="http://www.w3.org/2000/svg">
<rect width="296" height="48" fill="white"/>
<path d="M32 24L296 24" stroke="#3697F1" stroke-opacity="0.8" stroke-width="2"/>
<rect width="48" height="48" rx="24" fill="#348BDC"/>
<path d="M28.8043 26.88C28.8043 27.5467 28.6776 28.1467 28.4243 28.68C28.171 29.2 27.811 29.6533 27.3443 30.04C26.8776 30.4133 26.3176 30.7 25.6643 30.9C25.011 31.1 24.2843 31.2 23.4843 31.2C22.4843 31.2 21.631 31.0867 20.9243 30.86C20.231 30.6333 19.6643 30.3533 19.2243 30.02V27.78C19.6776 28.1533 20.2376 28.4933 20.9043 28.8C21.571 29.0933 22.3843 29.24 23.3443 29.24C24.3043 29.24 25.0443 29.0267 25.5643 28.6C26.0843 28.1733 26.3443 27.5867 26.3443 26.84C26.3443 25.32 25.3576 24.56 23.3843 24.56H21.5843V22.54H23.4643C24.1976 22.54 24.791 22.36 25.2443 22C25.6976 21.6267 25.9243 21.1 25.9243 20.42C25.9243 19.8067 25.7043 19.3267 25.2643 18.98C24.8243 18.62 24.1843 18.44 23.3443 18.44C22.4776 18.44 21.7376 18.5867 21.1243 18.88C20.511 19.16 19.9576 19.5067 19.4643 19.92V17.7C19.931 17.3267 20.4976 17.0267 21.1643 16.8C21.831 16.5733 22.6443 16.46 23.6043 16.46C24.3243 16.46 24.971 16.5533 25.5443 16.74C26.131 16.9267 26.6243 17.1867 27.0243 17.52C27.4376 17.8533 27.751 18.2533 27.9643 18.72C28.191 19.1867 28.3043 19.7 28.3043 20.26C28.3043 20.7267 28.2243 21.14 28.0643 21.5C27.9176 21.86 27.7176 22.18 27.4643 22.46C27.211 22.7267 26.9176 22.9467 26.5843 23.12C26.251 23.28 25.9043 23.3933 25.5443 23.46C25.971 23.5133 26.3776 23.6333 26.7643 23.82C27.1643 23.9933 27.511 24.2267 27.8043 24.52C28.111 24.8 28.351 25.14 28.5243 25.54C28.711 25.94 28.8043 26.3867 28.8043 26.88Z" fill="white"/>
</svg>
