<svg width="296" height="48" viewBox="0 0 296 48" fill="none" xmlns="http://www.w3.org/2000/svg">
<rect width="296" height="48" fill="white"/>
<path d="M32 24L296 24" stroke="#3697F1" stroke-opacity="0.8" stroke-width="2"/>
<rect width="48" height="48" rx="24" fill="#348BDC"/>
<path d="M28.8802 26.2C28.8802 26.9867 28.7336 27.6933 28.4402 28.32C28.1602 28.9333 27.7802 29.4533 27.3002 29.88C26.8202 30.3067 26.2602 30.6333 25.6202 30.86C24.9936 31.0867 24.3336 31.2 23.6402 31.2C21.8802 31.2 20.5402 30.6667 19.6202 29.6C18.7002 28.52 18.2402 26.88 18.2402 24.68C18.2402 23.52 18.3602 22.44 18.6002 21.44C18.8536 20.4267 19.2336 19.5533 19.7402 18.82C20.2469 18.0867 20.8936 17.5133 21.6802 17.1C22.4802 16.6733 23.4336 16.46 24.5402 16.46C25.3002 16.46 25.9536 16.5333 26.5002 16.68C27.0602 16.8267 27.5402 17.02 27.9402 17.26V19.32C27.4336 19 26.8936 18.7733 26.3202 18.64C25.7602 18.4933 25.2002 18.42 24.6402 18.42C24.0269 18.42 23.4802 18.5333 23.0002 18.76C22.5336 18.9733 22.1336 19.2867 21.8002 19.7C21.4669 20.1 21.2002 20.58 21.0002 21.14C20.8002 21.7 20.6669 22.32 20.6002 23C21.0536 22.44 21.5736 22.0333 22.1602 21.78C22.7602 21.5267 23.4202 21.4 24.1402 21.4C24.7802 21.4 25.3869 21.5 25.9602 21.7C26.5336 21.8867 27.0336 22.18 27.4602 22.58C27.9002 22.98 28.2469 23.48 28.5002 24.08C28.7536 24.68 28.8802 25.3867 28.8802 26.2ZM23.6202 29.26C23.9936 29.26 24.3469 29.2 24.6802 29.08C25.0269 28.9467 25.3269 28.76 25.5802 28.52C25.8469 28.2667 26.0536 27.9533 26.2002 27.58C26.3602 27.1933 26.4402 26.7467 26.4402 26.24C26.4402 25.7467 26.3669 25.32 26.2202 24.96C26.0736 24.5867 25.8736 24.28 25.6202 24.04C25.3669 23.7867 25.0802 23.6 24.7602 23.48C24.4402 23.36 24.1069 23.3 23.7602 23.3C23.3602 23.3 22.9802 23.36 22.6202 23.48C22.2602 23.6 21.9469 23.7867 21.6802 24.04C21.4136 24.2933 21.2002 24.6067 21.0402 24.98C20.8936 25.3533 20.8202 25.7867 20.8202 26.28C20.8202 26.7467 20.8869 27.1667 21.0202 27.54C21.1536 27.9 21.3469 28.2133 21.6002 28.48C21.8536 28.7333 22.1469 28.9267 22.4802 29.06C22.8269 29.1933 23.2069 29.26 23.6202 29.26Z" fill="white"/>
</svg>
