<svg width="296" height="48" viewBox="0 0 296 48" fill="none" xmlns="http://www.w3.org/2000/svg">
<rect width="296" height="48" fill="white"/>
<path d="M32 24L296 24" stroke="#3697F1" stroke-opacity="0.8" stroke-width="2"/>
<rect width="48" height="48" rx="24" fill="#348BDC"/>
<path d="M28.6429 26.2C28.6429 26.9467 28.5096 27.6267 28.2429 28.24C27.9896 28.8533 27.6296 29.38 27.1629 29.82C26.6962 30.26 26.1296 30.6 25.4629 30.84C24.8096 31.08 24.0762 31.2 23.2629 31.2C22.3429 31.2 21.5629 31.1067 20.9229 30.92C20.2962 30.72 19.7562 30.4733 19.3029 30.18V27.94C19.7696 28.2733 20.3096 28.5733 20.9229 28.84C21.5362 29.1067 22.2829 29.24 23.1629 29.24C24.1362 29.24 24.8829 28.9667 25.4029 28.42C25.9362 27.86 26.2029 27.1467 26.2029 26.28C26.2029 25.3867 25.9696 24.7067 25.5029 24.24C25.0496 23.7733 24.4096 23.54 23.5829 23.54C23.0229 23.54 22.5696 23.6267 22.2229 23.8C21.8762 23.9733 21.6162 24.1667 21.4429 24.38H19.6429V16.66H27.9229V18.72H21.7229V22.36C21.9762 22.1733 22.2962 22.0067 22.6829 21.86C23.0696 21.7133 23.5629 21.64 24.1629 21.64C24.8296 21.64 25.4362 21.74 25.9829 21.94C26.5296 22.14 26.9962 22.4333 27.3829 22.82C27.7829 23.2067 28.0896 23.6867 28.3029 24.26C28.5296 24.82 28.6429 25.4667 28.6429 26.2Z" fill="white"/>
</svg>
