<svg width="32" height="32" viewBox="0 0 32 32" fill="none" xmlns="http://www.w3.org/2000/svg">
<path fill-rule="evenodd" clip-rule="evenodd" d="M11 12C12.6569 12 14 10.6569 14 9C14 7.34315 12.6569 6 11 6C9.34315 6 8 7.34315 8 9C8 10.6569 9.34315 12 11 12ZM11 15C14.3137 15 17 12.3137 17 9C17 5.68629 14.3137 3 11 3C7.68629 3 5 5.68629 5 9C5 12.3137 7.68629 15 11 15ZM4.94249 20.7718C3.38846 21.851 3 22.897 3 23.3846C3 24.2768 3.72323 25 4.61539 25H17.3846C18.2768 25 19 24.2768 19 23.3846C19 22.897 18.6115 21.851 17.0575 20.7718C15.585 19.7491 13.4366 19 11 19C8.56343 19 6.41502 19.7491 4.94249 20.7718ZM0 23.3846C0 19.6923 4.95 16 11 16C13.3618 16 15.5559 16.5627 17.3534 17.4684C18.9003 16.5716 20.8665 16 23 16C27.95 16 32 19.0769 32 22.1538C32 24.278 30.278 26 28.1539 26H21.188C20.3556 27.2081 18.9626 28 17.3846 28H4.61539C2.06638 28 0 25.9336 0 23.3846ZM21.9822 23H28.1539C28.6212 23 29 22.6212 29 22.1538C29 21.9486 28.8077 21.2097 27.6238 20.3723C26.5149 19.5879 24.874 19 23 19C21.9657 19 21.0024 19.1791 20.1604 19.4715C21.2127 20.5403 21.8684 21.7629 21.9822 23ZM25 10C25 11.1046 24.1046 12 23 12C21.8954 12 21 11.1046 21 10C21 8.89543 21.8954 8 23 8C24.1046 8 25 8.89543 25 10ZM28 10C28 12.7614 25.7614 15 23 15C20.2386 15 18 12.7614 18 10C18 7.23858 20.2386 5 23 5C25.7614 5 28 7.23858 28 10Z" fill="#348BDC"/>
</svg>
