<svg width="32" height="32" viewBox="0 0 32 32" fill="none" xmlns="http://www.w3.org/2000/svg">
<path fill-rule="evenodd" clip-rule="evenodd" d="M27 16C27 22.0751 22.0751 27 16 27C9.92487 27 5 22.0751 5 16C5 9.92487 9.92487 5 16 5C22.0751 5 27 9.92487 27 16ZM30 16C30 23.732 23.732 30 16 30C8.26801 30 2 23.732 2 16C2 8.26801 8.26801 2 16 2C23.732 2 30 8.26801 30 16ZM12.272 10.205C11.8329 9.5025 10.9075 9.28894 10.205 9.728C9.5025 10.1671 9.28894 11.0925 9.728 11.795L13.816 18.3358C14.263 19.051 14.5 19.8774 14.5 20.7208V23C14.5 23.8284 15.1716 24.5 16 24.5C16.8284 24.5 17.5 23.8284 17.5 23V20.7208C17.5 19.3151 17.105 17.9378 16.36 16.7458L12.272 10.205ZM22.272 11.795C22.7111 11.0925 22.4975 10.1671 21.795 9.728C21.0925 9.28894 20.1671 9.5025 19.728 10.205L17.5405 13.705C17.1014 14.4075 17.315 15.3329 18.0175 15.772C18.72 16.2111 19.6454 15.9975 20.0845 15.295L22.272 11.795Z" fill="#348BDC"/>
</svg>
