<svg xmlns="http://www.w3.org/2000/svg" width="20" height="20" fill="none"><path fill="#000" fill-opacity=".85" fill-rule="evenodd" d="M11.51 15.432c-.606 1.25-1.191 1.443-1.51 1.443s-.904-.192-1.51-1.443c-.465-.96-.809-2.322-.936-3.984.791.075 1.61.114 2.446.114s1.655-.039 2.446-.114c-.127 1.662-.47 3.024-.936 3.984m.985-5.873A24 24 0 0 1 10 9.687c-.862 0-1.697-.044-2.495-.128.047-2.12.429-3.843.985-4.991.606-1.25 1.191-1.443 1.51-1.443s.904.192 1.51 1.443c.556 1.148.938 2.87.985 4.991m1.847 1.633c-.106 1.894-.468 3.56-1.044 4.842a6.88 6.88 0 0 0 3.553-5.455c-.777.248-1.618.454-2.509.613m2.398-2.555c-.715.256-1.513.474-2.377.643-.07-2.089-.442-3.926-1.065-5.314a6.89 6.89 0 0 1 3.442 4.67M5.637 9.28c.07-2.089.442-3.926 1.065-5.314a6.89 6.89 0 0 0-3.442 4.67c.715.257 1.513.475 2.377.644M3.149 10.58a6.88 6.88 0 0 0 3.553 5.455c-.576-1.282-.938-2.948-1.044-4.842a19 19 0 0 1-2.509-.613M18.75 10a8.75 8.75 0 1 0-17.5 0 8.75 8.75 0 0 0 17.5 0" clip-rule="evenodd"/></svg>