<svg width="142" height="32" viewBox="0 0 142 32" fill="none" xmlns="http://www.w3.org/2000/svg">
<path fill-rule="evenodd" clip-rule="evenodd" d="M16 27C22.075 27 27 22.075 27 16C27 9.925 22.075 5 16 5C9.925 5 5 9.925 5 16C5 22.075 9.925 27 16 27ZM16 30C23.732 30 30 23.732 30 16C30 8.268 23.732 2 16 2C8.268 2 2 8.268 2 16C2 23.732 8.268 30 16 30Z" fill="black"/>
<path d="M41.598 23V8.45455H43.7926V21.1108H50.3835V23H41.598ZM57.3118 23.2202C56.2891 23.2202 55.3965 22.9858 54.6342 22.517C53.8719 22.0483 53.2801 21.3925 52.8587 20.5497C52.4373 19.7069 52.2266 18.7221 52.2266 17.5952C52.2266 16.4635 52.4373 15.474 52.8587 14.6264C53.2801 13.7789 53.8719 13.1207 54.6342 12.652C55.3965 12.1832 56.2891 11.9489 57.3118 11.9489C58.3345 11.9489 59.227 12.1832 59.9893 12.652C60.7517 13.1207 61.3435 13.7789 61.7649 14.6264C62.1863 15.474 62.397 16.4635 62.397 17.5952C62.397 18.7221 62.1863 19.7069 61.7649 20.5497C61.3435 21.3925 60.7517 22.0483 59.9893 22.517C59.227 22.9858 58.3345 23.2202 57.3118 23.2202ZM57.3189 21.4375C57.9818 21.4375 58.531 21.2623 58.9666 20.9119C59.4022 20.5616 59.7242 20.0952 59.9325 19.5128C60.1456 18.9304 60.2521 18.2888 60.2521 17.5881C60.2521 16.892 60.1456 16.2528 59.9325 15.6705C59.7242 15.0833 59.4022 14.6122 58.9666 14.2571C58.531 13.902 57.9818 13.7244 57.3189 13.7244C56.6513 13.7244 56.0973 13.902 55.657 14.2571C55.2214 14.6122 54.897 15.0833 54.6839 15.6705C54.4756 16.2528 54.3714 16.892 54.3714 17.5881C54.3714 18.2888 54.4756 18.9304 54.6839 19.5128C54.897 20.0952 55.2214 20.5616 55.657 20.9119C56.0973 21.2623 56.6513 21.4375 57.3189 21.4375ZM69.3413 27.3182C68.4748 27.3182 67.729 27.2045 67.104 26.9773C66.4838 26.75 65.9772 26.4493 65.5842 26.0753C65.1912 25.7012 64.8976 25.2917 64.7035 24.8466L66.5288 24.0938C66.6566 24.3021 66.8271 24.5223 67.0401 24.7543C67.2579 24.991 67.5515 25.1922 67.9208 25.358C68.2949 25.5237 68.7754 25.6065 69.3626 25.6065C70.1675 25.6065 70.8327 25.41 71.3583 25.017C71.8839 24.6288 72.1467 24.0085 72.1467 23.1562V21.0114H72.0117C71.8839 21.2434 71.6992 21.5014 71.4577 21.7855C71.221 22.0696 70.8943 22.3158 70.4776 22.5241C70.061 22.7325 69.5188 22.8366 68.8512 22.8366C67.9895 22.8366 67.2129 22.6354 66.5217 22.233C65.8351 21.8258 65.2906 21.2268 64.8881 20.4361C64.4904 19.6406 64.2915 18.6629 64.2915 17.5028C64.2915 16.3428 64.488 15.3485 64.881 14.5199C65.2788 13.6913 65.8233 13.0568 66.5146 12.6165C67.2058 12.1714 67.9895 11.9489 68.8654 11.9489C69.5425 11.9489 70.0894 12.0625 70.506 12.2898C70.9227 12.5123 71.247 12.7727 71.479 13.071C71.7158 13.3693 71.8981 13.6321 72.0259 13.8594H72.1822V12.0909H74.2631V23.2415C74.2631 24.179 74.0453 24.9484 73.6097 25.5497C73.1741 26.151 72.5846 26.5961 71.8413 26.8849C71.1026 27.1738 70.2693 27.3182 69.3413 27.3182ZM69.32 21.0753C69.9308 21.0753 70.4469 20.9332 70.8683 20.6491C71.2944 20.3603 71.6164 19.9484 71.8342 19.4134C72.0567 18.8736 72.168 18.2273 72.168 17.4744C72.168 16.7405 72.0591 16.0942 71.8413 15.5355C71.6235 14.9768 71.3039 14.5412 70.8825 14.2287C70.4611 13.9115 69.9402 13.7528 69.32 13.7528C68.6808 13.7528 68.1481 13.9186 67.7219 14.25C67.2958 14.5767 66.9738 15.0218 66.756 15.5852C66.543 16.1487 66.4364 16.7784 66.4364 17.4744C66.4364 18.1894 66.5453 18.8168 66.7631 19.3565C66.9809 19.8963 67.3029 20.3177 67.729 20.6207C68.1599 20.9238 68.6902 21.0753 69.32 21.0753ZM81.7063 23.2202C80.6836 23.2202 79.7911 22.9858 79.0288 22.517C78.2665 22.0483 77.6746 21.3925 77.2532 20.5497C76.8318 19.7069 76.6211 18.7221 76.6211 17.5952C76.6211 16.4635 76.8318 15.474 77.2532 14.6264C77.6746 13.7789 78.2665 13.1207 79.0288 12.652C79.7911 12.1832 80.6836 11.9489 81.7063 11.9489C82.729 11.9489 83.6216 12.1832 84.3839 12.652C85.1462 13.1207 85.738 13.7789 86.1594 14.6264C86.5808 15.474 86.7915 16.4635 86.7915 17.5952C86.7915 18.7221 86.5808 19.7069 86.1594 20.5497C85.738 21.3925 85.1462 22.0483 84.3839 22.517C83.6216 22.9858 82.729 23.2202 81.7063 23.2202ZM81.7134 21.4375C82.3763 21.4375 82.9255 21.2623 83.3612 20.9119C83.7968 20.5616 84.1187 20.0952 84.3271 19.5128C84.5401 18.9304 84.6467 18.2888 84.6467 17.5881C84.6467 16.892 84.5401 16.2528 84.3271 15.6705C84.1187 15.0833 83.7968 14.6122 83.3612 14.2571C82.9255 13.902 82.3763 13.7244 81.7134 13.7244C81.0458 13.7244 80.4918 13.902 80.0515 14.2571C79.6159 14.6122 79.2915 15.0833 79.0785 15.6705C78.8701 16.2528 78.766 16.892 78.766 17.5881C78.766 18.2888 78.8701 18.9304 79.0785 19.5128C79.2915 20.0952 79.6159 20.5616 80.0515 20.9119C80.4918 21.2623 81.0458 21.4375 81.7134 21.4375ZM94.6254 23V8.45455H96.82V21.1108H103.411V23H94.6254ZM105.744 23V12.0909H107.868V23H105.744ZM106.816 10.4077C106.447 10.4077 106.13 10.2846 105.865 10.0384C105.604 9.7874 105.474 9.48911 105.474 9.14347C105.474 8.79309 105.604 8.49479 105.865 8.24858C106.13 7.99763 106.447 7.87216 106.816 7.87216C107.186 7.87216 107.501 7.99763 107.761 8.24858C108.026 8.49479 108.159 8.79309 108.159 9.14347C108.159 9.48911 108.026 9.7874 107.761 10.0384C107.501 10.2846 107.186 10.4077 106.816 10.4077ZM115.298 27.3182C114.432 27.3182 113.686 27.2045 113.061 26.9773C112.441 26.75 111.934 26.4493 111.541 26.0753C111.148 25.7012 110.855 25.2917 110.661 24.8466L112.486 24.0938C112.614 24.3021 112.784 24.5223 112.997 24.7543C113.215 24.991 113.509 25.1922 113.878 25.358C114.252 25.5237 114.732 25.6065 115.32 25.6065C116.125 25.6065 116.79 25.41 117.315 25.017C117.841 24.6288 118.104 24.0085 118.104 23.1562V21.0114H117.969C117.841 21.2434 117.656 21.5014 117.415 21.7855C117.178 22.0696 116.851 22.3158 116.435 22.5241C116.018 22.7325 115.476 22.8366 114.808 22.8366C113.946 22.8366 113.17 22.6354 112.479 22.233C111.792 21.8258 111.248 21.2268 110.845 20.4361C110.447 19.6406 110.249 18.6629 110.249 17.5028C110.249 16.3428 110.445 15.3485 110.838 14.5199C111.236 13.6913 111.78 13.0568 112.472 12.6165C113.163 12.1714 113.946 11.9489 114.822 11.9489C115.5 11.9489 116.046 12.0625 116.463 12.2898C116.88 12.5123 117.204 12.7727 117.436 13.071C117.673 13.3693 117.855 13.6321 117.983 13.8594H118.139V12.0909H120.22V23.2415C120.22 24.179 120.002 24.9484 119.567 25.5497C119.131 26.151 118.542 26.5961 117.798 26.8849C117.06 27.1738 116.226 27.3182 115.298 27.3182ZM115.277 21.0753C115.888 21.0753 116.404 20.9332 116.825 20.6491C117.251 20.3603 117.573 19.9484 117.791 19.4134C118.014 18.8736 118.125 18.2273 118.125 17.4744C118.125 16.7405 118.016 16.0942 117.798 15.5355C117.58 14.9768 117.261 14.5412 116.839 14.2287C116.418 13.9115 115.897 13.7528 115.277 13.7528C114.638 13.7528 114.105 13.9186 113.679 14.25C113.253 14.5767 112.931 15.0218 112.713 15.5852C112.5 16.1487 112.393 16.7784 112.393 17.4744C112.393 18.1894 112.502 18.8168 112.72 19.3565C112.938 19.8963 113.26 20.3177 113.686 20.6207C114.117 20.9238 114.647 21.0753 115.277 21.0753ZM125.192 16.5227V23H123.068V8.45455H125.163V13.8665H125.298C125.554 13.2794 125.945 12.813 126.47 12.4673C126.996 12.1217 127.682 11.9489 128.53 11.9489C129.278 11.9489 129.931 12.1027 130.49 12.4105C131.054 12.7183 131.489 13.1776 131.797 13.7884C132.109 14.3944 132.266 15.152 132.266 16.0611V23H130.142V16.3168C130.142 15.5166 129.936 14.8963 129.524 14.456C129.112 14.0109 128.539 13.7884 127.805 13.7884C127.304 13.7884 126.854 13.8949 126.456 14.108C126.063 14.321 125.753 14.6335 125.526 15.0455C125.303 15.4527 125.192 15.9451 125.192 16.5227ZM140.192 12.0909V13.7955H134.233V12.0909H140.192ZM135.831 9.47727H137.955V19.7969C137.955 20.2088 138.016 20.5189 138.139 20.7273C138.262 20.9309 138.421 21.0705 138.615 21.1463C138.814 21.2173 139.029 21.2528 139.261 21.2528C139.432 21.2528 139.581 21.241 139.709 21.2173C139.837 21.1937 139.936 21.1747 140.007 21.1605L140.391 22.9148C140.268 22.9621 140.092 23.0095 139.865 23.0568C139.638 23.1089 139.354 23.1373 139.013 23.142C138.454 23.1515 137.933 23.0521 137.45 22.8438C136.967 22.6354 136.577 22.3134 136.278 21.8778C135.98 21.4422 135.831 20.8954 135.831 20.2372V9.47727Z" fill="black"/>
</svg>
