<svg width="160" height="32" viewBox="0 0 160 32" fill="none" xmlns="http://www.w3.org/2000/svg">
<g clip-path="url(#clip0_2096_37741)">
<path d="M63.8592 6.76367H60.0608L55.1316 15.4879L50.1734 6.76367H46.375L53.4499 18.6399V26.4635H56.7843V18.6399L63.8592 6.76367ZM75.1756 6.76367H60.3879V9.85937H66.129V26.4635H69.4635V9.85937H75.1756V6.76367ZM77.0615 16.2758C77.0615 15.2628 78.0473 14.7844 79.1781 14.7844C80.367 14.7844 81.3817 15.2909 81.9037 16.3885L84.5423 14.9532C83.5274 13.0958 81.5557 12.0263 79.1781 12.0263C76.2206 12.0263 73.8719 13.6868 73.8719 16.3321C73.8719 21.3697 81.6717 19.9625 81.6717 22.4673C81.6717 23.593 80.5989 24.0433 79.2071 24.0433C77.6123 24.0433 76.4526 23.2834 75.9886 22.017L73.292 23.5366C74.2199 25.563 76.3076 26.8293 79.2071 26.8293C82.3386 26.8293 84.8612 25.3096 84.8612 22.4954C84.8612 17.289 77.0615 18.8369 77.0615 16.2758ZM98.3712 12.3922V14.3903C97.2696 12.9269 95.5587 12.0263 93.2971 12.0263C89.3537 12.0263 86.0772 15.2346 86.0772 19.4278C86.0772 23.593 89.3537 26.8293 93.2971 26.8293C95.5587 26.8293 97.2696 25.9288 98.3712 24.4373V26.4635H101.502V12.3922H98.3712ZM93.79 23.9307C91.1804 23.9307 89.2088 22.0452 89.2088 19.4278C89.2088 16.8106 91.1804 14.9251 93.79 14.9251C96.3996 14.9251 98.3712 16.8106 98.3712 19.4278C98.3712 22.0452 96.3996 23.9307 93.79 23.9307ZM113.764 12.3922V19.9344C113.764 22.805 112.141 23.987 110.082 23.987C108.11 23.987 106.835 22.8613 106.835 20.7224V12.3922H103.703V21.032C103.703 24.6905 106.023 26.8293 109.271 26.8293C111.242 26.8293 112.808 26.1258 113.764 24.6624V26.4635H116.896V12.3922H113.764ZM122.529 14.7562V12.3922H119.398V26.4635H122.529V19.3716C122.529 16.2196 124.936 15.2909 126.995 15.4316V12.1389C125.168 12.1389 123.399 12.8425 122.529 14.7562ZM138.645 12.3922V19.9344C138.645 22.805 137.021 23.987 134.963 23.987C132.991 23.987 131.715 22.8613 131.715 20.7224V12.3922H128.584V21.032C128.584 24.6905 130.904 26.8293 134.151 26.8293C136.123 26.8293 137.689 26.1258 138.645 24.6624V26.4635H141.777V12.3922H138.645ZM147.236 16.2758C147.236 15.2628 148.222 14.7844 149.353 14.7844C150.542 14.7844 151.556 15.2909 152.078 16.3885L154.717 14.9532C153.702 13.0958 151.731 12.0263 149.353 12.0263C146.395 12.0263 144.047 13.6868 144.047 16.3321C144.047 21.3697 151.846 19.9625 151.846 22.4673C151.846 23.593 150.774 24.0433 149.382 24.0433C147.787 24.0433 146.627 23.2834 146.164 22.017L143.467 23.5366C144.395 25.563 146.482 26.8293 149.382 26.8293C152.513 26.8293 155.035 25.3096 155.035 22.4954C155.035 17.289 147.236 18.8369 147.236 16.2758Z" fill="white"/>
<path fill-rule="evenodd" clip-rule="evenodd" d="M12.902 6.7865C16.3004 2.15151 21.7149 -0.436937 24.2819 0.0607517C25.9282 0.379932 24.9305 2.10939 23.7411 4.06669C23.4308 4.57739 23.1268 5.04817 22.8535 5.47146C22.0794 6.67046 21.5513 7.48847 21.8204 7.75358C26.0872 3.77169 28.8306 3.32822 31.1168 3.32822C33.3805 3.32822 32.3157 4.9114 31.1514 6.64271L31.1168 6.69424C30.9481 6.94519 30.7737 7.19362 30.6058 7.43292C29.9514 8.36545 29.3943 9.1594 29.6441 9.424C32.1044 7.72455 34.6516 7.31404 35.8484 7.55423C37.0453 7.79441 37.3969 8.29795 35.7453 10.7767L34.1665 13.0759L34.2389 13.1891C34.7991 14.0631 35.6533 15.3959 35.6533 17.5193C35.6533 21.7805 32.2993 26.0165 30.4221 27.9103C30.2593 28.0746 30.0348 28.1626 29.8 28.1626H26.3131C26.0502 28.1626 25.8466 27.9416 25.8549 27.6866C26.0047 23.1468 21.0384 23.3336 17.7268 27.9699C17.6422 28.0885 17.5026 28.1626 17.354 28.1626H14.075C13.8389 28.1626 13.6108 28.0731 13.4537 27.9021C12.1786 26.5142 11.015 24.165 10.7214 23.1529C9.31942 25.2536 5.47828 26.4089 2.733 24.6113C-0.526893 22.4768 -0.505595 18.8458 0.90396 16.6288L3.76841 18.2087C3.3469 19.8198 3.9713 20.9292 5.1703 20.9292C6.90133 20.9293 7.58078 18.8929 8.5524 15.9809C9.43145 13.3463 10.5496 9.99492 12.902 6.7865ZM15.0003 18.3564C15.9556 16.2621 15.9557 14.2322 15.0006 13.8223C14.0456 13.4125 12.497 14.7781 11.5417 16.8724C11.3038 17.3943 11.1249 17.9121 11.0056 18.4019H14.9795L15.0003 18.3564ZM22.0378 13.8223C22.9929 14.2322 22.9928 16.2621 22.0375 18.3564L22.0166 18.4019H18.0427C18.1621 17.9121 18.3409 17.3943 18.5789 16.8724C19.5341 14.7781 21.0827 13.4125 22.0378 13.8223Z" fill="white" />
</g>
<defs>
<clipPath id="clip0_2096_37741">
<rect width="160" height="32" fill="white"/>
</clipPath>
</defs>
</svg>
