<svg xmlns="http://www.w3.org/2000/svg" width="64" height="64" fill="none"><path fill="#848894" fill-rule="evenodd" d="M10.092 11.506A29.9 29.9 0 0 0 2 32c0 7.825 2.996 14.95 7.904 20.292L30.39 31.805zm1.414-1.415 20.3 20.3L52.291 9.904A29.9 29.9 0 0 0 32 2a29.9 29.9 0 0 0-20.494 8.091m42.213 1.214-20.5 20.5 20.593 20.593.097.096A29.9 29.9 0 0 0 62 32c0-8.024-3.15-15.312-8.28-20.695M52.495 53.91l-.097-.097-20.593-20.593-20.5 20.5A29.9 29.9 0 0 0 32 62a29.9 29.9 0 0 0 20.495-8.092" clip-rule="evenodd"/></svg>