<svg width="20" height="20" viewBox="0 0 20 20" fill="none" xmlns="http://www.w3.org/2000/svg">
    <path fill-rule="evenodd" clip-rule="evenodd" d="M11.5098 15.4323C10.9038 16.6829 10.3186 16.875 10 16.875C9.68142 16.875 9.09622 16.6829 8.49019 15.4323C8.02484 14.4721 7.68117 13.1097 7.55392 11.4483C8.34543 11.5233 9.16376 11.5625 10 11.5625C10.8362 11.5625 11.6546 11.5233 12.4461 11.4483C12.3188 13.1097 11.9752 14.4721 11.5098 15.4323ZM12.4952 9.55912C11.6974 9.64277 10.8621 9.68746 10 9.68746C9.13791 9.68746 8.30255 9.64277 7.50482 9.55913C7.55151 7.43815 7.93391 5.71558 8.49019 4.56769C9.09622 3.31715 9.68142 3.125 10 3.125C10.3186 3.125 10.9038 3.31715 11.5098 4.56769C12.0661 5.71558 12.4485 7.43815 12.4952 9.55912ZM14.3421 11.1918C14.2356 13.0857 13.8736 14.7515 13.2979 16.0338C15.27 14.9537 16.6546 12.9349 16.851 10.5786C16.0743 10.8271 15.2329 11.0334 14.3421 11.1918ZM16.7399 8.63688C16.0249 8.89309 15.2266 9.11079 14.3632 9.28043C14.2937 7.1912 13.921 5.35409 13.2979 3.96618C15.0473 4.92435 16.3344 6.62109 16.7399 8.63688ZM5.63684 9.28043C5.70626 7.1912 6.07901 5.35409 6.70205 3.96618C4.95274 4.92435 3.66559 6.62109 3.26012 8.63688C3.97512 8.8931 4.77339 9.11079 5.63684 9.28043ZM3.149 10.5786C3.34535 12.9349 4.73004 14.9537 6.70205 16.0338C6.1264 14.7515 5.76441 13.0857 5.65792 11.1918C4.76712 11.0334 3.92565 10.8271 3.149 10.5786ZM18.75 10C18.75 5.16751 14.8325 1.25 10 1.25C5.16751 1.25 1.25 5.16751 1.25 10C1.25 14.8325 5.16751 18.75 10 18.75C14.8325 18.75 18.75 14.8325 18.75 10Z" fill="black" fill-opacity="0.85"/>
</svg>
