<svg xmlns="http://www.w3.org/2000/svg" width="32" height="32" fill="none"><path fill="#5282FF" fill-rule="evenodd" d="M16 2C8.268 2 2 8.268 2 16s6.268 14 14 14 14-6.268 14-14S23.732 2 16 2M0 16C0 7.163 7.163 0 16 0s16 7.163 16 16-7.163 16-16 16S0 24.837 0 16" clip-rule="evenodd"/><path fill="#5282FF" fill-rule="evenodd" d="M22.707 9.293a1 1 0 0 1 0 1.414l-12 12a1 1 0 0 1-1.414-1.414l12-12a1 1 0 0 1 1.414 0M20.5 19a1.5 1.5 0 1 0 0 3 1.5 1.5 0 0 0 0-3M17 20.5a3.5 3.5 0 1 1 7 0 3.5 3.5 0 0 1-7 0M11.5 10a1.5 1.5 0 1 0 0 3 1.5 1.5 0 0 0 0-3M8 11.5a3.5 3.5 0 1 1 7 0 3.5 3.5 0 0 1-7 0" clip-rule="evenodd"/></svg>