<svg xmlns="http://www.w3.org/2000/svg" width="48" height="48" fill="none"><path fill="#fff" d="M40.634 8.311a39.6 39.6 0 0 0-9.77-3.03.15.15 0 0 0-.157.074c-.422.75-.89 1.73-1.217 2.499a36.5 36.5 0 0 0-10.973 0 25 25 0 0 0-1.236-2.499.15.15 0 0 0-.157-.074 39.5 39.5 0 0 0-9.77 3.03.14.14 0 0 0-.064.055C1.067 17.663-.638 26.731.198 35.687a.17.17 0 0 0 .063.113c4.105 3.015 8.082 4.845 11.986 6.058a.155.155 0 0 0 .168-.055 28.5 28.5 0 0 0 2.452-3.988.152.152 0 0 0-.083-.212 26 26 0 0 1-3.745-1.785.154.154 0 0 1-.015-.255c.252-.188.504-.385.744-.583a.15.15 0 0 1 .155-.02c7.856 3.586 16.36 3.586 24.123 0a.15.15 0 0 1 .157.018c.24.199.492.397.745.585.087.065.082.2-.013.255a24.6 24.6 0 0 1-3.746 1.783.153.153 0 0 0-.081.214 32 32 0 0 0 2.45 3.986.15.15 0 0 0 .168.057c3.922-1.213 7.9-3.043 12.005-6.058a.15.15 0 0 0 .062-.111c1.001-10.354-1.676-19.348-7.097-27.32a.12.12 0 0 0-.062-.058M16.04 30.234c-2.365 0-4.314-2.171-4.314-4.838 0-2.666 1.911-4.838 4.314-4.838 2.422 0 4.352 2.19 4.314 4.838 0 2.667-1.911 4.838-4.314 4.838m15.95 0c-2.365 0-4.314-2.171-4.314-4.838 0-2.666 1.91-4.838 4.314-4.838 2.421 0 4.351 2.19 4.313 4.838 0 2.667-1.892 4.838-4.313 4.838"/></svg>