<svg xmlns="http://www.w3.org/2000/svg" width="1120" height="90" fill="none"><path fill="#262626" fill-rule="evenodd" d="M129.46 25.5h-8v19h8zm2 19h69.498c-.521-10.581-9.265-19-19.975-19H131.46zm69.498 2H131.46v19h49.523c10.71 0 19.454-8.419 19.975-19m-71.498 19v-19h-8v19zm-10-19H81c.521 10.581 9.265 19 19.975 19h18.485zm0-2v-19h-18.485c-10.71 0-19.454 8.419-19.975 19zm164.192-19h-10.694a8 8 0 0 0-8 8v10.87h18.694zm-18.694 20.87V57.5a8 8 0 0 0 8 8h10.694V46.37zm20.694 19.13h11.306a8 8 0 0 0 8-8V46.37h-19.306zm19.306-21.13V33.5a8 8 0 0 0-8-8h-11.306v18.87zM407.563 25.5H390.39l8.587 8.586zm-20.001 0h-10.604a8 8 0 0 0-8 8v24c0 1.854.63 3.56 1.688 4.916L397.562 35.5zm-15.499 38.328a7.97 7.97 0 0 0 4.895 1.672h50.604l-28.585-28.585zM430.39 65.5h30.642a8 8 0 0 0 8-8v-24a8 8 0 0 0-8-8h-50.641l-10 10zm152.605-37.277a5.7 5.7 0 0 0-.721-1.536 4.7 4.7 0 0 0-1.086-1.175 4.4 4.4 0 0 0-1.441-.731 6 6 0 0 0-1.775-.254q-1.723 0-3.07.879t-2.119 2.584q-.763 1.694-.763 4.13 0 2.457.763 4.163.762 1.704 2.119 2.594 1.357.88 3.154.88 1.629 0 2.819-.636a4.44 4.44 0 0 0 1.848-1.8q.62-1.125.646-2.616h-4.927v-3.072h8.677v2.606q0 2.785-1.169 4.818a8.05 8.05 0 0 1-3.216 3.135q-2.047 1.09-4.699 1.091-2.955 0-5.19-1.345-2.223-1.356-3.477-3.844-1.242-2.5-1.242-5.931 0-2.626.731-4.692.741-2.065 2.067-3.506a8.8 8.8 0 0 1 3.112-2.203Q575.821 21 577.92 21q1.775 0 3.31.53a8.7 8.7 0 0 1 2.725 1.482 8.2 8.2 0 0 1 1.974 2.288 8.2 8.2 0 0 1 1.013 2.923zm-49.962-6.926v21.69h3.874v-7.33H541q2.474 0 4.166-.92 1.692-.933 2.558-2.553.867-1.62.867-3.707 0-2.065-.867-3.686-.856-1.63-2.537-2.562-1.67-.932-4.135-.932zm3.874 11.13h3.571q1.44 0 2.359-.508a3.2 3.2 0 0 0 1.358-1.398q.449-.89.449-2.044t-.449-2.033q-.439-.88-1.368-1.366-.92-.498-2.37-.498h-3.55zm10.688 10.56h4.135l1.769-5.349h8.039l1.772 5.349h4.135l-7.539-21.69h-4.782zm12.898-8.505-2.894-8.737h-.167l-2.89 8.737zm29.784-13.185v21.69h13.992v-3.294h-10.118v-5.92h9.314v-3.294h-9.314V24.59h10.034v-3.293zm6.151 26.42a8.7 8.7 0 0 1 2.987.55q1.461.531 2.631 1.737 1.17 1.197 1.859 3.21t.689 4.977q.01 2.795-.585 5-.585 2.19-1.681 3.706-1.097 1.515-2.642 2.309t-3.477.794q-2.026 0-3.592-.805a6.8 6.8 0 0 1-2.516-2.203q-.961-1.398-1.18-3.198h3.811q.293 1.292 1.19 2.054.909.752 2.287.752 2.224 0 3.425-1.959t1.201-5.444h-.146a5.6 5.6 0 0 1-1.327 1.61 6 6 0 0 1-1.848 1.027q-1.023.36-2.172.36-1.879 0-3.383-.91a6.6 6.6 0 0 1-2.37-2.5q-.867-1.589-.877-3.632 0-2.119.961-3.802a7 7 0 0 1 2.704-2.67q1.733-.984 4.051-.963m.011 3.177q-1.128 0-2.036.562a3.96 3.96 0 0 0-1.42 1.503q-.513.943-.512 2.108.01 1.154.512 2.097a3.96 3.96 0 0 0 1.388 1.493q.888.55 2.026.551.846 0 1.577-.328a3.9 3.9 0 0 0 1.274-.911 4.3 4.3 0 0 0 .856-1.345q.313-.753.303-1.589 0-1.112-.523-2.054a4.06 4.06 0 0 0-1.409-1.515q-.888-.572-2.036-.572m-10.185 4.438h-3.906a5 5 0 0 0-.616-1.727 4.6 4.6 0 0 0-1.117-1.292 4.6 4.6 0 0 0-1.524-.794 5.9 5.9 0 0 0-1.828-.275q-1.743 0-3.09.89-1.347.878-2.11 2.584-.762 1.695-.762 4.14 0 2.49.762 4.194.774 1.695 2.11 2.563 1.347.858 3.08.858.96 0 1.796-.254a4.9 4.9 0 0 0 1.514-.773 4.5 4.5 0 0 0 1.138-1.25 4.8 4.8 0 0 0 .647-1.694l3.906.02a8.6 8.6 0 0 1-.951 2.903 8.5 8.5 0 0 1-1.889 2.393 8.7 8.7 0 0 1-2.736 1.61q-1.566.572-3.477.572-2.82 0-5.033-1.324t-3.488-3.823q-1.274-2.5-1.274-5.994 0-3.507 1.285-5.995 1.284-2.499 3.498-3.823 2.213-1.324 5.012-1.324 1.785 0 3.32.508a8.5 8.5 0 0 1 2.736 1.494q1.2.974 1.973 2.393.784 1.409 1.024 3.22m29.457-7.318h-8.019v21.69h3.873V61.76h3.942l4.203 7.944h4.323l-4.626-8.587q.21-.086.407-.183 1.692-.836 2.558-2.361.878-1.536.878-3.623 0-2.075-.867-3.632-.857-1.568-2.537-2.436-1.67-.868-4.135-.868m-4.146 10.484h3.571q1.442 0 2.36-.402.919-.412 1.358-1.197.449-.795.449-1.949 0-1.155-.449-1.97-.45-.825-1.368-1.25-.92-.433-2.37-.433h-3.551zm-4.069-37.258h15.927v21.746h-15.927zm-42.881 26.717h-31.548v21.747h31.548zM736.726 25.5h-28.712c-10.666 0-19.383 8.35-19.968 18.87h48.68zm-48.693 20.87c.455 10.642 9.227 19.13 19.981 19.13h28.712V46.37zm50.693 19.13h29.363c10.754 0 19.526-8.488 19.981-19.13h-49.344zm49.331-21.13c-.586-10.52-9.302-18.87-19.968-18.87h-29.363v18.87zm70.513-18.73a8 8 0 0 0-6.5 7.86v11h6.5zm-6.5 20.86v11a8 8 0 0 0 6.5 7.86V46.5zm8.5 19h23.5a8 8 0 0 0 8-8v-11h-31.5zm31.5-21v-11a8 8 0 0 0-8-8h-23.5v19zm26.5-19h-16.5a8 8 0 0 0-8 8v1h24.5zm-24.5 11v21a8 8 0 0 0 8 8h16.5v-29zm26.5 29h5.5a8 8 0 0 0 8-8v-21h-13.5zm13.5-31v-1a8 8 0 0 0-8-8h-5.5v9zm69.17-2.417a19.94 19.94 0 0 0-5.17 13.417 19.9 19.9 0 0 0 5.05 13.28l13.41-13.41zm1.41-1.415 13.29 13.288 13.41-13.41a19.9 19.9 0 0 0-13.28-5.046c-5.16 0-9.87 1.956-13.42 5.168m28.13 1.279-13.43 13.423 13.5 13.493.05.054a19.94 19.94 0 0 0 5.17-13.417c0-5.23-2.01-9.99-5.29-13.553m-1.29 28.385-.06-.055-13.49-13.493-13.42 13.424a19.9 19.9 0 0 0 13.55 5.292c5.16 0 9.87-1.956 13.42-5.168" clip-rule="evenodd"/></svg>