<svg width="160" height="32" viewBox="0 0 160 32" fill="none" xmlns="http://www.w3.org/2000/svg">
<path d="M63.8575 6.76331H60.0591L55.1299 15.4875L50.1717 6.76331H46.3733L53.4482 18.6395V26.4631H56.7826V18.6395L63.8575 6.76331ZM75.1739 6.76331H60.3862V9.859H66.1273V26.4631H69.4618V9.859H75.1739V6.76331ZM77.0598 16.2755C77.0598 15.2624 78.0456 14.784 79.1764 14.784C80.3653 14.784 81.38 15.2905 81.902 16.3881L84.5406 14.9528C83.5257 13.0954 81.554 12.026 79.1764 12.026C76.2189 12.026 73.8702 13.6864 73.8702 16.3318C73.8702 21.3693 81.67 19.9622 81.67 22.4669C81.67 23.5927 80.5972 24.0429 79.2054 24.0429C77.6106 24.0429 76.4509 23.283 75.9869 22.0167L73.2903 23.5363C74.2182 25.5626 76.3059 26.829 79.2054 26.829C82.3369 26.829 84.8595 25.3093 84.8595 22.4951C84.8595 17.2887 77.0598 18.8365 77.0598 16.2755ZM98.3695 12.3918V14.3899C97.2679 12.9266 95.557 12.026 93.2954 12.026C89.352 12.026 86.0755 15.2343 86.0755 19.4275C86.0755 23.5927 89.352 26.829 93.2954 26.829C95.557 26.829 97.2679 25.9285 98.3695 24.4369V26.4631H101.501V12.3918H98.3695ZM93.7883 23.9303C91.1787 23.9303 89.2071 22.0448 89.2071 19.4275C89.2071 16.8103 91.1787 14.9247 93.7883 14.9247C96.3979 14.9247 98.3695 16.8103 98.3695 19.4275C98.3695 22.0448 96.3979 23.9303 93.7883 23.9303ZM113.762 12.3918V19.934C113.762 22.8046 112.139 23.9866 110.081 23.9866C108.108 23.9866 106.833 22.8609 106.833 20.7221V12.3918H103.701V21.0316C103.701 24.6902 106.021 26.829 109.269 26.829C111.24 26.829 112.806 26.1255 113.762 24.662V26.4631H116.895V12.3918H113.762ZM122.528 14.7559V12.3918H119.396V26.4631H122.528V19.3712C122.528 16.2192 124.934 15.2905 126.993 15.4312V12.1385C125.166 12.1385 123.397 12.8422 122.528 14.7559ZM138.643 12.3918V19.934C138.643 22.8046 137.02 23.9866 134.961 23.9866C132.99 23.9866 131.714 22.8609 131.714 20.7221V12.3918H128.582V21.0316C128.582 24.6902 130.902 26.829 134.149 26.829C136.121 26.829 137.687 26.1255 138.643 24.662V26.4631H141.775V12.3918H138.643ZM147.235 16.2755C147.235 15.2624 148.221 14.784 149.351 14.784C150.54 14.784 151.554 15.2905 152.076 16.3881L154.716 14.9528C153.7 13.0954 151.729 12.026 149.351 12.026C146.394 12.026 144.045 13.6864 144.045 16.3318C144.045 21.3693 151.844 19.9622 151.844 22.4669C151.844 23.5927 150.772 24.0429 149.38 24.0429C147.785 24.0429 146.626 23.283 146.162 22.0167L143.465 23.5363C144.393 25.5626 146.48 26.829 149.38 26.829C152.512 26.829 155.034 25.3093 155.034 22.4951C155.034 17.2887 147.235 18.8365 147.235 16.2755Z" fill="white"/>
<path fill-rule="evenodd" clip-rule="evenodd" d="M12.902 6.7865C16.3004 2.15151 21.7149 -0.436937 24.2819 0.0607517C25.9282 0.379932 24.9305 2.10939 23.7411 4.06669C23.4308 4.57739 23.1268 5.04817 22.8535 5.47146C22.0794 6.67046 21.5513 7.48847 21.8204 7.75358C26.0872 3.77169 28.8306 3.32822 31.1168 3.32822C33.3805 3.32822 32.3157 4.9114 31.1514 6.64271L31.1168 6.69424C30.9481 6.94519 30.7737 7.19362 30.6058 7.43292C29.9514 8.36545 29.3943 9.1594 29.6441 9.424C32.1044 7.72455 34.6516 7.31404 35.8484 7.55423C37.0453 7.79441 37.3969 8.29795 35.7453 10.7767L34.1665 13.0759L34.2389 13.1891C34.7991 14.0631 35.6533 15.3959 35.6533 17.5193C35.6533 21.7805 32.2993 26.0165 30.4221 27.9103C30.2593 28.0746 30.0348 28.1626 29.8 28.1626H26.3131C26.0502 28.1626 25.8466 27.9416 25.8549 27.6866C26.0047 23.1468 21.0384 23.3336 17.7268 27.9699C17.6422 28.0885 17.5026 28.1626 17.354 28.1626H14.075C13.8389 28.1626 13.6108 28.0731 13.4537 27.9021C12.1786 26.5142 11.015 24.165 10.7214 23.1529C9.31942 25.2536 5.47828 26.4089 2.733 24.6113C-0.526893 22.4768 -0.505595 18.8458 0.90396 16.6288L3.76841 18.2087C3.3469 19.8198 3.9713 20.9292 5.1703 20.9292C6.90133 20.9293 7.58078 18.8929 8.5524 15.9809C9.43145 13.3463 10.5496 9.99492 12.902 6.7865ZM15.0003 18.3564C15.9556 16.2621 15.9557 14.2322 15.0006 13.8223C14.0456 13.4125 12.497 14.7781 11.5417 16.8724C11.3038 17.3943 11.1249 17.9121 11.0056 18.4019H14.9795L15.0003 18.3564ZM22.0378 13.8223C22.9929 14.2322 22.9928 16.2621 22.0375 18.3564L22.0166 18.4019H18.0427C18.1621 17.9121 18.3409 17.3943 18.5789 16.8724C19.5341 14.7781 21.0827 13.4125 22.0378 13.8223Z" fill="white"/>
</svg>
