<svg xmlns="http://www.w3.org/2000/svg" width="1120" height="90" fill="none"><path fill="#fff" fill-rule="evenodd" d="M129.46 25.5h-8v19h8zm2 19h69.49799999999999c-.521-10.581-9.265-19-19.975-19H131.46zm69.498 2H131.46v19h49.523c10.71 0 19.454-8.419 19.975-19m-71.498 19v-19h-8v19zm-10-19H81c.521 10.581 9.265 19 19.975 19h18.485zm0-2v-19h-18.485c-10.71 0-19.454 8.419-19.975 19h38.46M283.652 25.5h-10.694a8 8 0 0 0-8 8v10.87h18.694zm-18.694 20.87V57.5a8 8 0 0 0 8 8h10.694V46.37zm20.694 19.13h11.306a8 8 0 0 0 8-8V46.37h-19.306V65.5m19.306-21.13V33.5a8 8 0 0 0-8-8h-11.306v18.87zM407.563 25.5H390.39l8.587 8.586zm-20.001 0h-10.604a8 8 0 0 0-8 8v24c0 1.854.63 3.56 1.688 4.916L397.562 35.5zm-15.499 38.328a7.97 7.97 0 0 0 4.895 1.672h50.604l-28.585-28.585zM430.39 65.5h30.642a8 8 0 0 0 8-8v-24a8 8 0 0 0-8-8h-50.641l-10 10zM582.994 28.223a5.7 5.7 0 0 0-.72-1.536q-.45-.688-1.086-1.175a4.4 4.4 0 0 0-1.441-.731 6 6 0 0 0-1.775-.254q-1.723 0-3.07.879t-2.12 2.584q-.762 1.694-.762 4.13 0 2.457.762 4.163.762 1.704 2.12 2.594 1.357.88 3.153.88 1.63 0 2.819-.636a4.45 4.45 0 0 0 1.849-1.8q.619-1.125.646-2.616h-4.927v-3.072h8.677v2.606q0 2.785-1.17 4.818a8.05 8.05 0 0 1-3.216 3.135q-2.047 1.09-4.699 1.091-2.955 0-5.189-1.345-2.225-1.356-3.477-3.844-1.243-2.5-1.243-5.931 0-2.626.731-4.692.74-2.065 2.068-3.506a8.8 8.8 0 0 1 3.111-2.203q1.786-.762 3.884-.762 1.776 0 3.31.53a8.7 8.7 0 0 1 2.726 1.482 8.137 8.137 0 0 1 2.986 5.21zm-49.962-6.926v21.69h3.874v-7.33h4.093q2.475 0 4.166-.92 1.692-.933 2.559-2.553.866-1.62.866-3.707 0-2.065-.866-3.686-.856-1.63-2.538-2.562-1.67-.932-4.135-.932zm3.874 11.13h3.571q1.441 0 2.36-.508a3.2 3.2 0 0 0 1.357-1.398q.45-.89.449-2.044 0-1.154-.449-2.033-.438-.88-1.367-1.366-.92-.498-2.371-.498h-3.55zm10.689 10.56h4.135l1.768-5.349h8.04l1.772 5.349h4.135l-7.539-21.69h-4.783zm12.897-8.505-2.894-8.737h-.167l-2.889 8.737zm29.784-13.185v21.69h13.992v-3.294H594.15v-5.92h9.314v-3.294h-9.314V24.59h10.035v-3.293zm6.152 26.42a8.7 8.7 0 0 1 2.986.55q1.462.531 2.631 1.737 1.17 1.197 1.859 3.21t.689 4.977q.01 2.795-.585 5-.584 2.19-1.681 3.706-1.096 1.515-2.641 2.309-1.547.794-3.477.794-2.026 0-3.592-.805a6.8 6.8 0 0 1-2.517-2.203q-.96-1.398-1.18-3.198h3.811q.293 1.292 1.191 2.054.908.752 2.287.752 2.224 0 3.424-1.959 1.201-1.959 1.201-5.444h-.146a5.6 5.6 0 0 1-1.326 1.61 6 6 0 0 1-1.848 1.027q-1.023.36-2.172.36-1.88 0-3.383-.91a6.6 6.6 0 0 1-2.37-2.5q-.867-1.589-.878-3.632 0-2.119.961-3.802a7 7 0 0 1 2.704-2.67q1.733-.984 4.052-.963m.01 3.177q-1.127 0-2.036.562a3.96 3.96 0 0 0-1.42 1.503q-.512.943-.512 2.108.01 1.154.512 2.097a3.95 3.95 0 0 0 1.389 1.493q.888.55 2.025.551.846 0 1.577-.328a3.9 3.9 0 0 0 1.274-.911q.553-.594.856-1.345.313-.753.303-1.589a4.17 4.17 0 0 0-.522-2.054 4.06 4.06 0 0 0-1.41-1.515q-.887-.572-2.036-.572m-10.185 4.438h-3.905a5 5 0 0 0-.616-1.727 4.6 4.6 0 0 0-1.117-1.292 4.6 4.6 0 0 0-1.525-.794 5.9 5.9 0 0 0-1.827-.275q-1.744 0-3.091.89-1.347.878-2.109 2.584-.762 1.695-.762 4.14 0 2.49.762 4.194.772 1.695 2.109 2.563 1.347.858 3.08.858.962 0 1.796-.254a4.9 4.9 0 0 0 1.514-.773 4.5 4.5 0 0 0 1.139-1.25 4.8 4.8 0 0 0 .647-1.694l3.905.02a8.6 8.6 0 0 1-.95 2.903 8.5 8.5 0 0 1-1.89 2.393 8.7 8.7 0 0 1-2.736 1.61Q579.111 70 577.2 70q-2.819 0-5.033-1.324-2.213-1.324-3.487-3.823-1.274-2.5-1.274-5.994 0-3.507 1.284-5.995 1.284-2.499 3.498-3.823t5.012-1.324q1.786 0 3.321.508a8.5 8.5 0 0 1 2.735 1.494 7.9 7.9 0 0 1 1.974 2.393q.783 1.409 1.023 3.22m29.457-7.318h-8.019v21.69h3.874V61.76h3.942l4.202 7.944h4.323l-4.625-8.587a7 7 0 0 0 .407-.183q1.69-.836 2.558-2.361.877-1.536.877-3.623 0-2.075-.867-3.632-.855-1.568-2.537-2.436-1.67-.868-4.135-.868m-4.145 10.484h3.571q1.441 0 2.36-.402.918-.412 1.357-1.197.449-.795.449-1.949 0-1.155-.449-1.97-.449-.825-1.368-1.25-.918-.433-2.37-.433h-3.55zm-4.07-37.258h15.927v21.746h-15.927zm-42.88 26.717h-31.548v21.747h31.548zM736.726 25.5h-28.712c-10.667 0-19.383 8.35-19.969 18.87h48.681zm-48.694 20.87c.456 10.642 9.227 19.13 19.982 19.13h28.712V46.37zm50.694 19.13h29.362c10.754 0 19.526-8.488 19.982-19.13h-49.344V65.5m49.331-21.13c-.586-10.52-9.302-18.87-19.969-18.87h-29.362v18.87h49.331M858.57 25.64a8 8 0 0 0-6.5 7.86v11h6.5zm-6.5 20.86v11a8 8 0 0 0 6.5 7.86V46.5zm8.5 19h23.5a8 8 0 0 0 8-8v-11h-31.5zm31.5-21v-11a8 8 0 0 0-8-8h-23.5v19zM918.57 25.5h-16.5a8 8 0 0 0-8 8v1h24.5zm-24.5 11v21a8 8 0 0 0 8 8h16.5v-29zm26.5 29h5.5a8 8 0 0 0 8-8v-21h-13.5zm13.5-31v-1a8 8 0 0 0-8-8h-5.5v9zM1003.24 32.083a19.94 19.94 0 0 0-5.17 13.417c0 5.097 1.907 9.749 5.05 13.28l13.41-13.41zm1.41-1.415 13.29 13.288 13.41-13.41a19.9 19.9 0 0 0-13.28-5.046c-5.16 0-9.87 1.956-13.42 5.168m28.13 1.279-13.43 13.423 13.5 13.493.05.054a19.94 19.94 0 0 0 5.17-13.417c0-5.23-2.01-9.99-5.29-13.553m-1.29 28.385-.06-.055-13.49-13.493-13.42 13.424a19.9 19.9 0 0 0 13.55 5.292c5.16 0 9.87-1.956 13.42-5.168" clip-rule="evenodd"/></svg>