<svg xmlns="http://www.w3.org/2000/svg" width="327" height="310" fill="none"><path fill="#fff" fill-rule="evenodd" d="M84.46 33h-8v19h8zm2 19h69.498c-.521-10.581-9.265-19-19.975-19H86.461zm69.498 2H86.461v19h49.522c10.71 0 19.454-8.419 19.975-19M84.461 73V54h-8v19zm-10-19H36c.521 10.581 9.265 19 19.975 19h18.486zm0-2V33H55.975C45.265 33 36.521 41.419 36 52zm10.086 53H67.374l8.586 8.586zm-20 0H53.94a8 8 0 0 0-8 8v24c0 1.854.63 3.56 1.689 4.916L74.546 115zm-15.5 38.328A7.97 7.97 0 0 0 53.941 145h50.604L75.96 116.415zM107.374 145h30.642a8 8 0 0 0 8-8v-24a8 8 0 0 0-8-8H87.375l-10 10zm-12.72 33H65.942c-10.666 0-19.382 8.35-19.968 18.87h48.68zm-48.693 20.87c.455 10.642 9.227 19.13 19.981 19.13h28.712v-19.13zM96.654 218h29.363c10.754 0 19.526-8.488 19.981-19.13H96.655V218m49.331-21.13c-.585-10.52-9.302-18.87-19.968-18.87H96.654v18.87zM244.267 33h-10.693a8 8 0 0 0-8 8v10.87h18.693zm-18.693 20.87V65a8 8 0 0 0 8 8h10.693V53.87zM246.267 73h11.307a8 8 0 0 0 8-8V53.87h-19.307zm19.307-21.13V41a8 8 0 0 0-8-8h-11.307v18.87zm-15.538 55.353a5.7 5.7 0 0 0-.72-1.536 4.7 4.7 0 0 0-1.086-1.175 4.4 4.4 0 0 0-1.441-.731 6 6 0 0 0-1.775-.254q-1.723 0-3.07.879t-2.12 2.584q-.762 1.694-.762 4.13 0 2.457.762 4.163.762 1.704 2.12 2.594 1.358.879 3.153.879 1.63 0 2.819-.635a4.45 4.45 0 0 0 1.849-1.801q.618-1.124.646-2.615h-4.927v-3.072h8.677v2.606q0 2.785-1.17 4.818a8.04 8.04 0 0 1-3.216 3.135q-2.047 1.09-4.699 1.091-2.955 0-5.189-1.345-2.224-1.356-3.477-3.844-1.243-2.5-1.243-5.931 0-2.627.731-4.692.74-2.065 2.068-3.506a8.8 8.8 0 0 1 3.111-2.202q1.786-.763 3.884-.763 1.776 0 3.31.53a8.7 8.7 0 0 1 2.726 1.482 8.14 8.14 0 0 1 2.986 5.211zm-49.962-6.926v21.69h3.874v-7.329h4.093q2.475 0 4.166-.922 1.692-.932 2.559-2.552.866-1.62.866-3.707 0-2.065-.866-3.685-.856-1.632-2.538-2.563-1.67-.932-4.135-.932zm3.874 11.13h3.571q1.441 0 2.36-.508a3.2 3.2 0 0 0 1.357-1.398q.45-.89.449-2.044 0-1.154-.449-2.033-.438-.88-1.368-1.367-.918-.497-2.37-.497h-3.55zm10.689 10.56h4.135l1.768-5.349h8.04l1.772 5.349h4.135l-7.539-21.69h-4.783zm12.897-8.505-2.894-8.737h-.167l-2.889 8.737zm29.784-13.185v21.69h13.992v-3.294h-10.118v-5.92h9.314v-3.294h-9.314v-5.889h10.035v-3.293zm6.152 26.42a8.7 8.7 0 0 1 2.986.551q1.462.53 2.631 1.737 1.17 1.196 1.859 3.209t.689 4.977q.01 2.797-.585 4.999-.584 2.192-1.681 3.707t-2.641 2.309q-1.546.794-3.477.794-2.026 0-3.592-.805a6.8 6.8 0 0 1-2.517-2.203q-.96-1.398-1.18-3.198h3.811q.293 1.292 1.191 2.054.908.752 2.287.752 2.224 0 3.424-1.959 1.201-1.96 1.201-5.444h-.146a5.5 5.5 0 0 1-1.326 1.61 6 6 0 0 1-1.848 1.027 6.5 6.5 0 0 1-2.172.361q-1.88 0-3.383-.911a6.6 6.6 0 0 1-2.37-2.5q-.867-1.589-.878-3.632 0-2.119.961-3.802a7 7 0 0 1 2.704-2.669q1.733-.985 4.052-.964m.01 3.177q-1.127 0-2.036.561a3.97 3.97 0 0 0-1.42 1.504q-.512.943-.512 2.108.01 1.155.512 2.097a3.96 3.96 0 0 0 1.389 1.493q.887.55 2.025.551.846 0 1.577-.328a3.9 3.9 0 0 0 1.274-.911q.553-.594.856-1.345.313-.752.303-1.589 0-1.112-.522-2.054a4.06 4.06 0 0 0-1.41-1.515q-.887-.572-2.036-.572m-10.185 4.438h-3.905a5 5 0 0 0-.616-1.727 4.6 4.6 0 0 0-1.117-1.292 4.7 4.7 0 0 0-1.525-.794 5.9 5.9 0 0 0-1.827-.275q-1.744 0-3.091.889-1.347.88-2.109 2.584-.762 1.695-.762 4.141 0 2.49.762 4.194.772 1.695 2.109 2.563 1.347.858 3.08.858.962 0 1.796-.254a4.9 4.9 0 0 0 1.514-.773 4.5 4.5 0 0 0 1.139-1.25 4.8 4.8 0 0 0 .647-1.694l3.905.021a8.6 8.6 0 0 1-.95 2.902 8.5 8.5 0 0 1-1.89 2.393 8.7 8.7 0 0 1-2.736 1.61q-1.566.572-3.477.572-2.819 0-5.033-1.324-2.213-1.324-3.487-3.823-1.274-2.5-1.274-5.995 0-3.506 1.284-5.994 1.284-2.5 3.498-3.823 2.214-1.324 5.012-1.324 1.786 0 3.321.508a8.5 8.5 0 0 1 2.735 1.494 7.9 7.9 0 0 1 1.974 2.393q.783 1.408 1.023 3.22m29.457-7.319h-8.019v21.69h3.874v-7.943h3.942l4.202 7.943h4.323l-4.625-8.587q.209-.084.407-.182 1.69-.837 2.558-2.361.877-1.536.877-3.623 0-2.075-.867-3.632-.855-1.567-2.537-2.436-1.67-.869-4.135-.869m-4.145 10.485h3.571q1.441 0 2.36-.402.918-.413 1.357-1.197.449-.794.449-1.949 0-1.154-.449-1.969-.448-.827-1.368-1.25-.918-.435-2.37-.434h-3.55zm-4.07-37.258h15.927v21.746h-15.927zm-42.88 26.717h-31.548v21.747h31.548zm-20.583 50.183a8.004 8.004 0 0 0-6.5 7.86v11h6.5zm-6.5 20.86v11a8.004 8.004 0 0 0 6.5 7.86V198zm8.5 19h23.5a8 8 0 0 0 8-8v-11h-31.5zm31.5-21v-11a8 8 0 0 0-8-8h-23.5v19zm26.5-19h-16.5a8 8 0 0 0-8 8v1h24.5zm-24.5 11v21a8 8 0 0 0 8 8h16.5v-29zm26.5 29h5.5a8 8 0 0 0 8-8v-21h-13.5zm13.5-31v-1a8 8 0 0 0-8-8h-5.5v9zM81.168 251.583A19.93 19.93 0 0 0 76 265c0 5.097 1.907 9.749 5.046 13.281l13.41-13.411zm1.415-1.415 13.287 13.288 13.411-13.41A19.93 19.93 0 0 0 96 245c-5.163 0-9.87 1.956-13.417 5.168m28.125 1.279L97.284 264.87l13.493 13.493.055.054A19.92 19.92 0 0 0 116 265a19.93 19.93 0 0 0-5.292-13.553m-1.291 28.385-.054-.055-13.493-13.493-13.423 13.424A19.93 19.93 0 0 0 96 285c5.163 0 9.869-1.956 13.417-5.168" clip-rule="evenodd"/></svg>