<svg xmlns="http://www.w3.org/2000/svg" width="160" height="32" fill="none"><path fill="#000" fill-opacity=".85" d="M63.858 6.763h-3.799l-4.93 8.724-4.957-8.724h-3.799l7.075 11.877v7.823h3.335V18.64zm11.316 0H60.386V9.86h5.741v16.604h3.335V9.86h5.712zm1.886 9.513c0-1.014.986-1.492 2.116-1.492 1.19 0 2.204.506 2.726 1.604l2.639-1.435c-1.015-1.858-2.987-2.927-5.365-2.927-2.957 0-5.306 1.66-5.306 4.306 0 5.037 7.8 3.63 7.8 6.135 0 1.126-1.073 1.576-2.465 1.576-1.594 0-2.754-.76-3.218-2.026l-2.697 1.52c.928 2.026 3.016 3.292 5.915 3.292 3.132 0 5.654-1.52 5.654-4.334 0-5.206-7.8-3.658-7.8-6.22m21.31-3.884v1.998c-1.102-1.463-2.813-2.364-5.075-2.364-3.943 0-7.22 3.208-7.22 7.401 0 4.166 3.277 7.402 7.22 7.402 2.262 0 3.973-.9 5.075-2.392v2.026h3.131V12.392zM93.788 23.93c-2.61 0-4.58-1.885-4.58-4.503 0-2.617 1.97-4.502 4.58-4.502s4.582 1.885 4.582 4.502-1.972 4.503-4.582 4.503m19.974-11.538v7.542c0 2.87-1.623 4.053-3.681 4.053-1.973 0-3.248-1.126-3.248-3.265v-8.33h-3.132v8.64c0 3.658 2.32 5.797 5.568 5.797 1.971 0 3.537-.704 4.493-2.167v1.801h3.133V12.392zm8.766 2.364v-2.364h-3.132v14.071h3.132v-7.092c0-3.152 2.406-4.08 4.465-3.94V12.14c-1.827 0-3.596.703-4.465 2.617m16.115-2.364v7.542c0 2.87-1.623 4.053-3.682 4.053-1.971 0-3.247-1.126-3.247-3.265v-8.33h-3.132v8.64c0 3.658 2.32 5.797 5.567 5.797 1.972 0 3.538-.704 4.494-2.167v1.801h3.132V12.392zm8.592 3.884c0-1.014.986-1.492 2.116-1.492 1.189 0 2.203.506 2.725 1.604l2.64-1.435c-1.016-1.858-2.987-2.927-5.365-2.927-2.957 0-5.306 1.66-5.306 4.306 0 5.037 7.799 3.63 7.799 6.135 0 1.126-1.072 1.576-2.464 1.576-1.595 0-2.754-.76-3.218-2.026l-2.697 1.52c.928 2.026 3.015 3.292 5.915 3.292 3.132 0 5.654-1.52 5.654-4.334 0-5.206-7.799-3.658-7.799-6.22"/><path fill="#000" fill-opacity=".85" fill-rule="evenodd" d="M12.902 6.787C16.3 2.152 21.715-.437 24.282.06c1.646.319.648 2.048-.54 4.006-.311.51-.615.981-.889 1.404-.774 1.2-1.302 2.017-1.033 2.283 4.267-3.982 7.01-4.426 9.297-4.426 2.263 0 1.199 1.583.034 3.315l-.034.051c-.169.251-.343.5-.511.739-.655.932-1.212 1.726-.962 1.991 2.46-1.7 5.008-2.11 6.204-1.87 1.197.24 1.549.744-.103 3.223l-1.578 2.299.072.113c.56.874 1.414 2.207 1.414 4.33 0 4.262-3.354 8.498-5.23 10.391a.87.87 0 0 1-.623.253h-3.487a.46.46 0 0 1-.458-.476c.15-4.54-4.817-4.353-8.128.283a.46.46 0 0 1-.373.193h-3.279a.84.84 0 0 1-.621-.26c-1.275-1.389-2.439-3.738-2.733-4.75-1.402 2.1-5.243 3.256-7.988 1.458-3.26-2.134-3.239-5.765-1.829-7.982l2.864 1.58c-.421 1.61.203 2.72 1.402 2.72 1.731 0 2.41-2.036 3.382-4.948.88-2.635 1.998-5.986 4.35-9.194M15 18.357c.956-2.095.956-4.125 0-4.535-.954-.41-2.503.956-3.458 3.05a8.7 8.7 0 0 0-.536 1.53h3.973zm7.038-4.535c.955.41.955 2.44 0 4.534l-.021.046h-3.974c.12-.49.298-1.008.536-1.53.955-2.094 2.504-3.46 3.459-3.05" clip-rule="evenodd"/></svg>