<svg width="383" height="396" fill="none" xmlns="http://www.w3.org/2000/svg"><path fill-rule="evenodd" clip-rule="evenodd" d="M307.333 168.43c9.4-14.2 14.1-32.6 14.1-55.3 0-34.4-11.7-61.9-35.3-82.2-23.4-20.5-63-30.7-106.7-30.7-13.1 0-24.1.9-34.8 2.7-10.7 1.8-20.1 3.9-28.2 6.3-5.4 1.6-16.1 5.7-23.3 8.6-4.1 1.7-6.9 6-6.9 10.8v39.5c0 8.2 7.8 13.8 14.9 10.5a458.74 458.74 0 0 0 1.806-.818c2.367-1.074 4.452-2.02 5.894-2.581 5.7-2.3 12.4-4.2 20.1-5.8 7.7-1.6 16.3-2.4 25.7-2.4 22.2 0 43.1 5 52.3 14.9 9.2 10 13.8 22.499 13.8 37.499 0 13-2.7 24.1-8.2 33.2-5.5 9.1-13.1 18-22.9 26.5-7.9 6.9-15.2 13.5-22 19.8-6.8 6.3-12.6 13.2-17.5 20.7s-8.7 16-11.3 25.3c-1.6 5.6-2.7 20.3-3.3 31-.3 6.6 4.5 12.2 10.7 12.2h51.2c5.4 0 10-4.4 10.6-10.2.6-5.7 2-12.5 5.5-17.8 4-5.9 8.7-11.8 14.7-17.3s13-11 20.9-16.7c8-5.6 16.2-12.1 24.9-19.4 12.8-11.4 23.9-24.1 33.3-38.3zm-167.6 212.7c9 9.5 20.1 14.2 33.4 14.2 6.3 0 12.4-1.3 18.2-4 5.8-2.6 10.9-6 15.2-10.3 4.3-4.3 7.7-9.4 10.2-15.2 2.5-5.8 3.7-12.1 3.7-19 0-6.8-1.2-13.2-3.7-19-2.5-5.8-5.9-10.9-10.2-15.4-4.3-4.5-9.4-7.9-15.2-10.3-5.8-2.4-11.9-3.6-18.2-3.6-13.3 0-24.4 4.6-33.4 13.9s-13.5 20.8-13.5 34.5c0 13.4 4.5 24.8 13.5 34.2z" fill="#ECF2F9"/><path clip-rule="evenodd" d="M213.933 353.03h-193.5c-10 0-18.2-8.2-18.2-18.2v-125.4c0-10 8.2-18.2 18.2-18.2h193.5c10 0 18.2 8.2 18.2 18.2v125.4c0 10.1-8.2 18.2-18.2 18.2z" stroke="#00E6C5" stroke-width="4" stroke-linecap="round" stroke-linejoin="round" stroke-dasharray="4 10"/><path d="M21.034 214.732a5.2 5.2 0 1 0 0-10.4 5.2 5.2 0 0 0 0 10.4zm16.899 0a5.2 5.2 0 1 0 0-10.4 5.2 5.2 0 0 0 0 10.4zm16.9 0a5.2 5.2 0 1 0 0-10.4 5.2 5.2 0 0 0 0 10.4z" fill="#2EE5C0"/><path d="M2.533 228.129h228.9" stroke="#00E6C5" stroke-width="4" stroke-linecap="round" stroke-linejoin="round" stroke-dasharray="4 10"/><path d="M301.033 264.83l-216.9 12c-7.3.4-13.3-5.2-13.3-12.5V96.93c0-7.3 6-12.9 13.3-12.5l216.9 12c5.6.3 10.1 5.7 10.1 12v144.4c0 6.3-4.5 11.7-10.1 12z" fill="#027BF3"/><path fill-rule="evenodd" clip-rule="evenodd" d="M90.433 107.93c3.4.2 6.1-2.4 6.1-5.8s-2.7-6.3-6.1-6.4c-3.3-.2-6.1 2.4-6.1 5.8s2.7 6.3 6.1 6.4zm19.8.798c3.3.1 6-2.5 6-5.8s-2.7-6.1-6-6.3c-3.3-.1-6 2.5-6 5.8s2.7 6.2 6 6.3zm25.2-4.9c0 3.3-2.6 5.9-5.8 5.7-3.2-.1-5.9-2.9-5.9-6.2 0-3.3 2.6-5.9 5.9-5.7 3.2.1 5.8 2.9 5.8 6.2zm66.001 61.703l19.1-20.9 17.4 19.1-18.9 20.9 18.9 20.5-17.4 19.5-19.1-20.5-19.4 21.5-18.1-19.1 19.6-21.5-19.6-21 18.1-19.5 19.4 21z" fill="#fff"/><path d="M327.433 112.83c0-28.4-21.7-37.1-33.5-37.9-.1 0-33.5 2.3-33.5 45.3 0 25.5 21.2 45.5 46 44.6 7.8-.3 14.9-2.6 21-6.4v-45.6z" fill="#67B0F8"/><path d="M380.534 195.931c-2.9 3.4-7.6 3.7-10.5.8l-38.6-39 11.3-12.2 37.8 39c2.9 3 2.9 8 0 11.4z" fill="#FF4645"/><path d="M342.833 145.629l-11.3 12.2 3.7 3.7c1.9 1.9 4.9 2 6.8.2 1.1-1 2.2-2.1 3.2-3.2.6-.7 1.3-1.4 1.9-2.1 1.6-1.9 1.5-4.8-.3-6.6l-4-4.2z" fill="#D93654"/><path fill-rule="evenodd" clip-rule="evenodd" d="M267.633 154.13c-23-21.401-23-57.3 0-78.1 21.9-19.8 55.1-17 74.4 4.3 18.4 20.399 18.4 51.7 0 71.6-19.3 20.8-52.5 22.6-74.4 2.2zm9.4-10.802c15.6 15 39.8 14.2 54.1-.9 13.8-14.6 13.8-37.8 0-52.8-14.3-15.5-38.5-17-54.1-2.5-16.2 15.1-16.2 40.7 0 56.2z" fill="#00236B"/><path d="M41.034 42.73a2 2 0 1 0-4 0h4zm-4 8.3a2 2 0 0 0 4 0h-4zm4 17.2a2 2 0 1 0-4 0h4zm-4 8.9a2 2 0 0 0 4 0h-4zm19.2-15.2a2 2 0 0 0 0-4v4zm-8.2-4a2 2 0 1 0 0 4v-4zm-17.9 4a2 2 0 0 0 0-4v4zm-8.2-4a2 2 0 1 0 0 4v-4zm15.1-15.2v8.3h4v-8.3h-4zm0 25.5v8.9h4v-8.9h-4zm19.2-10.3h-8.2v4h8.2v-4zm-26.1 0h-8.2v4h8.2v-4z" fill="#2EE5C0"/></svg>