<svg width="393" height="341" fill="none" xmlns="http://www.w3.org/2000/svg"><path fill-rule="evenodd" clip-rule="evenodd" d="M312.633 51.627c4.1-9 22.3-32.1 22.3-32.1s-5 23.5-10.5 36.3c-3.8 8.6-15.6 4-11.8-4.2zm-59.2 28.4c4.1-8.9 26.7-40 26.7-40s-9.4 31.4-14.9 44.2c-3.8 8.6-15.6 4-11.8-4.2zm-217.9 52.399s-15.4 17.8-19.2 26c-3.5 7.5 7.3 11.7 10.7 3.8 5.1-11.7 8.5-29.8 8.5-29.8zm-9.1 171.301h335.1c28 0 27-40.7 8.5-54.4-15.2-11.3-33.1-7.5-33.1-7.5 3.9-7.5 16.6-38.7-16.4-68.4-25.1-22.6-89.2-10.6-89.2-10.6s-4-64.9-48.4-59c-5.9-23.6-29.8-34.4-45.3-26.1-27.3 14.6-4.6 43.4-4.6 43.4s-17.2-5.5-29.6 4.5c-21.5 17.3-10.8 45.6-10.8 45.6s-9.7-6.4-22.7.4c-32.4 16.9-26.2 42.3-24 49.3-5.6-1.1-28.5-4-36.9 14.1-9.7 20.9 10 32.8 10 32.8s-15.3 6.9-15.3 15.3c0 .595-.01 1.209-.021 1.837-.142 8.231-.322 18.763 22.721 18.763z" fill="#ECF2F9"/><path clip-rule="evenodd" d="M367.333 193.128h-14.9c-2.6 0-4.8-2.1-4.8-4.8v-9c0-2.6 2.1-4.8 4.8-4.8h15c1.3 0 2-1.4 1.3-2.5-3.8-5.5-10.3-9.1-17.6-8.8-7.7.3-14.5 5-17.7 11.7l-58.3.1c-5.1 0-9.5 3.7-9.4 8.8.1 5 4.1 8.4 9.1 8.4l58.5.1c3.3 6.9 10.3 11.7 18.4 11.7 6.8 0 12.9-3.4 16.6-8.6 1-.9.2-2.3-1-2.3z" stroke="#2EE5C0" stroke-width="4" stroke-linecap="round" stroke-linejoin="round"/><path d="M390.633 213.827l2 .033v-.033h-2zm-11.3 9.2a2 2 0 0 0 0 4v-4zm-137.2-83.3a2 2 0 0 0 0 4v-4zm148.4 4a2 2 0 1 0 0-4v4zm-11.2 79.3h-126.2v4h126.2v-4zm-126.2 0a9.182 9.182 0 0 1-9.2-9.2h-4c0 7.305 5.896 13.2 13.2 13.2v-4zm-9.2-9.2v-80.6h-4v80.6h4zm0-80.6c0-5.095 4.105-9.2 9.2-9.2v-4c-7.304 0-13.2 5.896-13.2 13.2h4zm9.2-9.2h126.3v-4h-126.3v4zm126.3 0c5.096 0 9.2 4.105 9.2 9.2h4c0-7.304-5.895-13.2-13.2-13.2v4zm9.2 9.2v80.6h4v-80.6h-4zm0 80.568c-.082 5.127-4.21 9.232-9.3 9.232v4c7.311 0 13.183-5.894 13.3-13.167l-4-.065zm-146.5-70.068h148.4v-4h-148.4v4zm148.4-4h-148.4v4h148.4v-4z" fill="#2EE5C0"/><path clip-rule="evenodd" d="M347.933 95.629h-59.9c-4.5 0-8.1 3.6-8.1 8.1v18.4h76.1v-18.4c0-4.4-3.6-8.1-8.1-8.1z" stroke="#2EE5C0" stroke-width="4" stroke-linecap="round" stroke-linejoin="round"/><path clip-rule="evenodd" d="M291.433 106.629h53.2v15.5h-53.2v-15.5z" stroke="#2EE5C0" stroke-width="4" stroke-linecap="round" stroke-linejoin="round"/><path d="M114.033 54.328s-15.4 17.8-19.2 26c-3.5 7.5 7.3 11.7 10.7 3.8 5-11.6 8.5-29.8 8.5-29.8z" fill="#ECF2F9"/><path d="M105.433 230.929l-1.973.329a2.002 2.002 0 0 0 1.763 1.66l.21-1.989zm-2.3-8.6l-1.189-1.608a1.999 1.999 0 0 0-.694 2.281l1.883-.673zm6.9-5.1l-1.138-1.644a.795.795 0 0 0-.051.036l1.189 1.608zm.8-4l-1.729 1.004.026.044 1.703-1.048zm-3.6-6.2l-1.736.992.007.012 1.729-1.004zm-3.9-1.3l-.788-1.838-.022.009.81 1.829zm-7.9 3.5l-1.542 1.274a1.999 1.999 0 0 0 2.352.554l-.81-1.828zm-6.3-6.3l-1.828-.81a2 2 0 0 0 .554 2.352l1.274-1.542zm3.5-7.9l1.829.81.01-.022-1.839-.788zm-1.3-3.9l-1.004 1.73.012.006.992-1.736zm-6.2-3.6l1.004-1.73-.012-.007-.992 1.737zm-4 .8l-1.6-1.2-.008.011 1.608 1.189zm-5.1 6.9l-.695 1.875c.835.31 1.774.03 2.303-.686l-1.608-1.189zm-8.6-2.3l-1.989.21a2 2 0 0 0 1.66 1.763l.33-1.973zm-.9-8.5l1.989-.211a2.328 2.328 0 0 0-.004-.037l-1.985.248zm-13.4 0l-1.984-.248a1.554 1.554 0 0 0-.005.037l1.99.211zm-.9 8.5l.329 1.973a2 2 0 0 0 1.66-1.763l-1.989-.21zm-8.6 2.3l-1.608 1.189c.524.709 1.45.991 2.28.694l-.672-1.883zm-5.1-6.9l-1.644 1.138.036.051 1.608-1.189zm-4-.8l1.004 1.729a.902.902 0 0 0 .044-.026l-1.048-1.703zm-6.2 3.6l.992 1.736.012-.007-1.004-1.729zm-1.3 3.9l-1.838.788.01.022 1.828-.81zm3.5 7.9l1.274 1.542a2 2 0 0 0 .555-2.352l-1.829.81zm-6.3 6.3l-.81 1.828c.82.364 1.781.137 2.352-.554l-1.542-1.274zm-7.9-3.5l.81-1.829a5.15 5.15 0 0 0-.022-.009l-.788 1.838zm-3.9 1.3l1.73 1.004.007-.012-1.737-.992zm-3.6 6.2l-1.73-1.004-.006.012 1.736.992zm.8 4l-1.2 1.6.011.008 1.19-1.608zm6.9 5.1l1.876.695a2 2 0 0 0-.687-2.303l-1.189 1.608zm-2.3 8.6l.21 1.989a2 2 0 0 0 1.763-1.66l-1.973-.329zm-8.5.9l-.21-1.989-.038.004.248 1.985zm-2 12.4l-1.536 1.28c.038.047.08.091.122.134l1.414-1.414zm2 1l-.248 1.984.038.005.21-1.989zm8.5.9l1.973-.329a2 2 0 0 0-1.762-1.66l-.21 1.989zm2.3 8.6l1.189 1.608a2 2 0 0 0 .695-2.281l-1.884.673zm-6.9 5.1l1.139 1.644a.688.688 0 0 0 .05-.036l-1.189-1.608zm-.8 4l1.73-1.004a1.023 1.023 0 0 0-.027-.044l-1.703 1.048zm3.6 6.2l1.737-.992-.007-.012-1.73 1.004zm3.9 1.3l.788 1.838a.209.209 0 0 0 .022-.01l-.81-1.828zm7.9-3.5l1.542-1.274a2 2 0 0 0-2.352-.555l.81 1.829zm6.3 6.3l1.829.81a2 2 0 0 0-.555-2.352l-1.274 1.542zm-3.5 7.9l-1.829-.81-.01.022 1.84.788zm1.3 3.9l1.004-1.73-.012-.007-.992 1.737zm6.2 3.6l-1.004 1.73.012.006.992-1.736zm4-.8l1.6 1.2.008-.011-1.608-1.189zm5.1-6.9l.695-1.876a2 2 0 0 0-2.303.687l1.608 1.189zm8.6 2.3l1.989-.211a2 2 0 0 0-1.66-1.762l-.329 1.973zm.9 8.5l-1.989.21.005.038 1.984-.248zm13.4 0l1.985.248.004-.038-1.989-.21zm.9-8.5l-.329-1.973a2 2 0 0 0-1.66 1.762l1.99.211zm8.6-2.3l1.608-1.189a2.001 2.001 0 0 0-2.28-.695l.672 1.884zm5.1 6.9l1.645-1.139-.037-.05-1.608 1.189zm4 .8l-1.004-1.73a8.45 8.45 0 0 0-.044.027l1.048 1.703zm6.2-3.6l-.992-1.737-.012.007 1.004 1.73zm1.3-3.9l1.838-.788-.01-.022-1.828.81zm-3.5-7.9l-1.274-1.542a2 2 0 0 0-.554 2.352l1.828-.81zm6.3-6.3l.81-1.829a2 2 0 0 0-2.352.555l1.542 1.274zm7.9 3.5l-.81 1.828.022.01.788-1.838zm3.9-1.3l-1.73-1.004-.006.012 1.736.992zm3.6-6.2l1.73 1.004.007-.012-1.737-.992zm-.8-4l1.2-1.6-.011-.008-1.189 1.608zm-6.9-5.1l-1.875-.695c-.31.835-.03 1.774.686 2.303l1.189-1.608zm2.3-8.6l-.21-1.989a2.002 2.002 0 0 0-1.763 1.66l1.973.329zm8.5-.9l-.181-1.992-.029.003.21 1.989zm2.4-1.7l-1.789-.895-.039.083 1.828.812zm.3-8.6l-1.996-.125a1.74 1.74 0 0 0-.004.125h2zm-31.4 3.601h-2v.015l2-.015zm28.911-8.69l-8.5-.9-.421 3.978 8.5.9.421-3.978zm-6.738.76c-.524-3.145-1.36-6.063-2.389-8.944l-3.767 1.346c.971 2.718 1.735 5.401 2.21 8.256l3.946-.658zm-3.084-6.663l6.9-5.1-2.378-3.216-6.9 5.1 2.378 3.216zm6.85-5.064c2.231-1.545 2.684-4.548 1.364-6.692l-3.406 2.096c.28.456.133 1.053-.235 1.308l2.277 3.288zm1.391-6.648l-3.6-6.2-3.459 2.008 3.6 6.2 3.459-2.008zm-3.593-6.188c-1.326-2.321-4.131-3.129-6.425-2.146l1.576 3.676a1.091 1.091 0 0 1 1.376.454l3.473-1.984zm-6.447-2.137l-7.9 3.5 1.62 3.657 7.9-3.5-1.62-3.657zm-5.548 4.055a48.884 48.884 0 0 0-6.568-6.568l-2.548 3.084a44.82 44.82 0 0 1 6.032 6.032l3.084-2.548zm-6.013-4.216l3.5-7.9-3.657-1.62-3.5 7.9 3.657 1.62zm3.51-7.922c.982-2.293.174-5.099-2.147-6.425l-1.984 3.473c.48.274.671.869.454 1.376l3.676 1.576zm-2.135-6.418l-6.2-3.6-2.008 3.459 6.2 3.6 2.008-3.459zm-6.212-3.607a5.08 5.08 0 0 0-6.592 1.337l3.2 2.4a1.08 1.08 0 0 1 1.408-.264l1.984-3.473zm-6.6 1.348l-5.1 6.9 3.216 2.378 5.1-6.9-3.216-2.378zm-2.797 6.213a49.26 49.26 0 0 0-8.966-2.397l-.658 3.946a45.187 45.187 0 0 1 8.234 2.202l1.39-3.751zm-7.306-.635l-.9-8.5-3.978.421.9 8.5 3.978-.421zm-.904-8.537c-.319-2.549-2.425-4.552-5.085-4.552v4c.54 0 1.034.397 1.116 1.048l3.969-.496zm-5.085-4.552h-7.2v4h7.2v-4zm-7.2 0c-2.66 0-4.766 2.003-5.084 4.552l3.969.496c.081-.651.575-1.048 1.115-1.048v-4zm-5.089 4.589l-.9 8.5 3.978.421.9-8.5-3.978-.421zm.76 6.738c-3.145.524-6.063 1.36-8.944 2.389l1.346 3.767c2.719-.971 5.401-1.735 8.256-2.21l-.658-3.946zm-6.663 3.084l-5.1-6.9-3.216 2.378 5.1 6.9 3.217-2.378zm-5.063-6.85c-1.545-2.231-4.55-2.684-6.693-1.364l2.096 3.406c.456-.28 1.053-.133 1.308.235l3.288-2.277zm-6.65-1.391l-6.2 3.6 2.01 3.459 6.2-3.6-2.01-3.459zm-6.187 3.593c-2.32 1.326-3.129 4.132-2.146 6.425l3.676-1.576a1.09 1.09 0 0 1 .454-1.376l-1.984-3.473zm-2.137 6.447l3.5 7.9 3.658-1.62-3.5-7.9-3.657 1.62zm4.055 5.548a48.884 48.884 0 0 0-6.568 6.568l3.084 2.548a44.82 44.82 0 0 1 6.032-6.032l-2.548-3.084zm-4.216 6.013l-7.9-3.5-1.62 3.657 7.9 3.5 1.62-3.657zm-7.922-3.509c-2.293-.983-5.098-.175-6.424 2.146l3.473 1.984a1.09 1.09 0 0 1 1.375-.454l1.576-3.676zm-6.417 2.134l-3.6 6.2 3.459 2.008 3.6-6.2-3.46-2.008zm-3.607 6.212a5.079 5.079 0 0 0 1.336 6.592l2.4-3.2a1.08 1.08 0 0 1-.263-1.408l-3.473-1.984zm1.347 6.6l6.9 5.1 2.378-3.216-6.9-5.1-2.378 3.216zm6.214 2.797a49.244 49.244 0 0 0-2.398 8.966l3.946.658a45.205 45.205 0 0 1 2.203-8.234l-3.751-1.39zm-.635 7.306l-8.5.9.42 3.978 8.5-.9-.42-3.978zm-8.538.904c-2.549.319-4.552 2.425-4.552 5.085h4c0-.54.397-1.034 1.048-1.116l-.496-3.969zm-4.552 5.085v7.2h4v-7.2h-4zm0 7.2c0 1.341.515 2.482 1.264 3.38l3.073-2.56c-.252-.302-.337-.562-.337-.82h-4zm1.386 3.514c.766.766 1.861 1.407 3.166 1.57l.496-3.969a1.48 1.48 0 0 1-.834-.429l-2.828 2.828zm3.204 1.575l8.5.9.42-3.978-8.5-.9-.42 3.978zm6.737-.76c.524 3.145 1.36 6.062 2.39 8.944l3.767-1.346c-.971-2.719-1.735-5.401-2.211-8.256l-3.946.658zm3.084 6.663l-6.9 5.1 2.378 3.216 6.9-5.1-2.378-3.216zm-6.85 5.064c-2.231 1.545-2.683 4.548-1.364 6.692l3.406-2.096c-.28-.456-.133-1.053.236-1.308l-2.277-3.288zm-1.39 6.648l3.6 6.2 3.459-2.008-3.6-6.2-3.46 2.008zm3.593 6.188c1.326 2.321 4.13 3.129 6.424 2.146l-1.576-3.676a1.09 1.09 0 0 1-1.375-.454l-3.473 1.984zm6.446 2.136l7.9-3.5-1.62-3.657-7.9 3.5 1.62 3.657zm5.548-4.054a48.942 48.942 0 0 0 6.568 6.568l2.548-3.084a44.878 44.878 0 0 1-6.032-6.032l-3.084 2.548zm6.014 4.216l-3.5 7.9 3.657 1.62 3.5-7.9-3.658-1.62zm-3.51 7.922c-.983 2.293-.175 5.098 2.146 6.424l1.984-3.473a1.09 1.09 0 0 1-.454-1.375l-3.676-1.576zm2.134 6.417l6.2 3.6 2.008-3.459-6.2-3.6-2.008 3.459zm6.212 3.607a5.078 5.078 0 0 0 6.592-1.336l-3.2-2.4a1.079 1.079 0 0 1-1.408.263l-1.984 3.473zm6.6-1.347l5.1-6.9-3.216-2.378-5.1 6.9 3.217 2.378zm2.797-6.214a49.262 49.262 0 0 0 8.966 2.398l.658-3.946a45.188 45.188 0 0 1-8.234-2.203l-1.39 3.751zm7.306.635l.9 8.5 3.978-.421-.9-8.5-3.978.421zm.905 8.538c.318 2.549 2.424 4.552 5.084 4.552v-4c-.54 0-1.034-.397-1.115-1.048l-3.97.496zm5.084 4.552h7.2v-4h-7.2v4zm7.2 0c2.66 0 4.766-2.003 5.085-4.552l-3.97-.496c-.08.651-.575 1.048-1.115 1.048v4zm5.089-4.59l.9-8.5-3.978-.421-.9 8.5 3.978.421zm-.76-6.737c3.145-.525 6.063-1.361 8.944-2.39l-1.346-3.767c-2.719.971-5.401 1.735-8.256 2.211l.658 3.946zm6.663-3.084l5.1 6.9 3.216-2.378-5.1-6.9-3.216 2.378zm5.064 6.849c1.545 2.232 4.548 2.685 6.692 1.365l-2.096-3.406c-.456.28-1.052.133-1.307-.236l-3.29 2.277zm6.648 1.391l6.2-3.6-2.008-3.459-6.2 3.6 2.008 3.459zm6.188-3.593c2.321-1.326 3.13-4.131 2.146-6.424l-3.676 1.576a1.09 1.09 0 0 1-.454 1.375l1.984 3.473zm2.137-6.446l-3.5-7.9-3.657 1.62 3.5 7.9 3.657-1.62zm-4.055-5.548a48.942 48.942 0 0 0 6.568-6.568l-3.084-2.548a44.878 44.878 0 0 1-6.032 6.032l2.548 3.084zm4.216-6.014l7.9 3.5 1.62-3.657-7.9-3.5-1.62 3.657zm7.922 3.51c2.293.983 5.099.175 6.425-2.146l-3.473-1.984a1.091 1.091 0 0 1-1.376.454l-1.576 3.676zm6.418-2.134l3.6-6.2-3.459-2.008-3.6 6.2 3.459 2.008zm3.607-6.212a5.08 5.08 0 0 0-1.337-6.592l-2.4 3.2c.403.302.557.894.264 1.408l3.473 1.984zm-1.348-6.6l-6.9-5.1-2.378 3.216 6.9 5.1 2.378-3.216zm-6.213-2.797a49.276 49.276 0 0 0 2.397-8.966l-3.946-.658a45.172 45.172 0 0 1-2.202 8.234l3.751 1.39zm.635-7.306l8.5-.9-.421-3.978-8.5.9.421 3.978zm8.47-.897a4.926 4.926 0 0 0 4.047-2.88l-3.656-1.624a.923.923 0 0 1-.753.52l.362 3.984zm4.008-2.798c.367-.734.511-1.554.511-2.294h-4c0 .26-.056.44-.089.505l3.578 1.789zm.511-2.294v-7.2h-4v7.2h4zm-.004-7.075c.174-2.774-1.922-4.894-4.448-5.21l-.496 3.969c.674.085.979.565.952.991l3.992.25zM59.933 261.83c-12.895 0-23.3-10.404-23.3-23.3h-4c0 15.105 12.195 27.3 27.3 27.3v-4zm-23.3-23.3c0-12.895 10.405-23.3 23.3-23.3v-4c-15.105 0-27.3 12.196-27.3 27.3h4zm23.3-23.3c12.896 0 23.3 10.405 23.3 23.3h4c0-15.104-12.195-27.3-27.3-27.3v4zm23.3 23.315c.092 12.871-10.391 23.285-23.3 23.285v4c15.092 0 27.408-12.185 27.3-27.314l-4 .029z" fill="#2EE5C0"/><path fill-rule="evenodd" clip-rule="evenodd" d="M229.633 38.129l16.9-.5c.8 0 1 1.2.5 2.1l-34.3 49.4c-.8 1.1-2.1 1.3-1.8-.1l9-36-16.9.5c-.8-.1-1.1-1.2-.5-2.1l34.1-50.4c.8-1.1 2.1-1.3 1.8.1l-8.8 37zm-170.8 44.498l10.7-.3c.5 0 .7.8.3 1.3l-22.9 32.4c-.4.7-1.3.8-1.1-.1l4.1-23.9-10.7.3c-.5 0-.7-.8-.3-1.3l22.7-33c.4-.7 1.3-.8 1.1.1l-3.9 24.5z" fill="#FC0"/><path d="M136.733 12.43a2 2 0 1 0-4 0h4zm-4 7.3a2 2 0 1 0 4 0h-4zm4 15.098a2 2 0 1 0-4 0h4zm-4 7.9a2 2 0 0 0 4 0h-4zm17.1-13.197a2 2 0 1 0 0-4v4zm-7.2-4a2 2 0 1 0 0 4v-4zm-15.8 4a2 2 0 1 0 0-4v4zm-7.2-4a2 2 0 1 0 0 4v-4zm13.1-13.101v7.3h4v-7.3h-4zm0 22.398v7.9h4v-7.9h-4zm17.1-9.297h-7.2v4h7.2v-4zm-23 0h-7.2v4h7.2v-4z" fill="#2EE5C0"/><path d="M63.833 330.328l90.9 10.1c2.3.2 4.3-3.1 4.3-7.2v-198.3c0-4.2-1.9-7.4-4.3-7.2l-90.9 12.1c-2 .2-3.7 3.4-3.7 7.3v175.9c0 3.9 1.7 7.1 3.7 7.3z" fill="#007CE9"/><path d="M312.733 333.428l-157.7 6.9c-4.1.2-7.4-3.1-7.4-7.2v-198.2c0-4.2 3.3-7.4 7.4-7.2l157.7 6.9c3.5.2 6.4 3.4 6.4 7.3v184.2c0 3.9-2.9 7.2-6.4 7.3z" fill="#00236B"/><path d="M147.593 200.629l171.5 3.4.08-4-171.5-3.4-.08 4zm-2.932 73.1l174.5-2.4-.055-4-174.5 2.4.055 4z" fill="#007CE9"/><path fill-rule="evenodd" clip-rule="evenodd" d="M168.133 155.129c2.1.2 3.9-1.7 3.9-4.1 0-2.4-1.7-4.5-3.9-4.6-2.1-.2-3.9 1.7-3.9 4.1 0 2.4 1.7 4.5 3.9 4.6zm17.9.901c2.1.1 3.8-1.7 3.8-4.1 0-2.3-1.7-4.4-3.8-4.5-2.2-.1-3.9 1.7-3.9 4.1 0 2.4 1.8 4.4 3.9 4.5zm21.3-3.1c0 2.4-1.7 4.2-3.8 4.1-2.1-.1-3.8-2.1-3.8-4.5s1.7-4.2 3.8-4.1c2.1.1 3.8 2.2 3.8 4.5zm13.4 4.997c2.1.1 3.7-1.7 3.7-4 0-2.4-1.7-4.4-3.7-4.4-2-.1-3.7 1.7-3.7 4s1.7 4.3 3.7 4.4zm20.5-3.097c0 2.3-1.6 4.1-3.6 4-2-.1-3.6-2.1-3.6-4.4 0-2.3 1.6-4.1 3.6-4 1.9.1 3.6 2.1 3.6 4.4zm12.9 4.9c1.9.1 3.5-1.7 3.5-4s-1.6-4.3-3.5-4.3c-2-.1-3.6 1.7-3.6 4s1.6 4.2 3.6 4.3z" fill="#FF4645"/><path fill-rule="evenodd" clip-rule="evenodd" d="M270.233 160.528c1.9.1 3.5-1.6 3.5-3.9s-1.6-4.2-3.5-4.3c-1.9-.1-3.5 1.6-3.5 3.9s1.6 4.2 3.5 4.3zm15.9.8c1.9.1 3.4-1.7 3.4-3.9s-1.5-4.1-3.4-4.3c-1.9-.1-3.4 1.6-3.4 3.9s1.5 4.2 3.4 4.3z" fill="#FC0"/><path d="M305.033 158.328c0 2.2-1.5 3.9-3.3 3.8-1.9-.1-3.4-2-3.4-4.2s1.5-4 3.4-3.8c1.8.1 3.3 2 3.3 4.2z" fill="#007CE9"/><path fill-rule="evenodd" clip-rule="evenodd" d="M168.133 227.227c2.1 0 3.9-1.9 3.9-4.3s-1.7-4.4-3.9-4.4c-2.1 0-3.9 1.9-3.9 4.3s1.7 4.4 3.9 4.4zm17.9.2c2.1 0 3.8-1.9 3.8-4.3 0-2.3-1.7-4.3-3.8-4.4-2.2 0-3.9 1.9-3.9 4.3s1.8 4.4 3.9 4.4zm21.3-3.998c0 2.4-1.7 4.2-3.8 4.2-2.1 0-3.8-2-3.8-4.3 0-2.4 1.7-4.3 3.8-4.2 2.1 0 3.8 1.9 3.8 4.3zm13.4 4.398c2.1 0 3.7-1.9 3.7-4.2 0-2.3-1.7-4.2-3.7-4.3-2 0-3.7 1.8-3.7 4.2 0 2.4 1.7 4.3 3.7 4.3zm20.5-3.9c0 2.3-1.6 4.2-3.6 4.1-2 0-3.6-1.9-3.6-4.2 0-2.3 1.6-4.2 3.6-4.1 1.9 0 3.6 1.9 3.6 4.2zm12.9 4.299c1.9 0 3.5-1.8 3.5-4.1s-1.6-4.2-3.5-4.2c-2 0-3.6 1.8-3.6 4.1s1.6 4.2 3.6 4.2zm19.6-3.897c0 2.3-1.6 4.1-3.5 4.1s-3.5-1.9-3.5-4.2c0-2.3 1.6-4.1 3.5-4.1 1.9.1 3.5 2 3.5 4.2zm12.4 4.298c1.9 0 3.4-1.8 3.4-4 0-2.3-1.5-4.1-3.4-4.1-1.9-.1-3.4 1.7-3.4 4 0 2.2 1.5 4.1 3.4 4.1z" fill="#FF4645"/><path d="M305.033 224.827c0 2.2-1.5 4-3.3 4-1.9 0-3.4-1.8-3.4-4.1 0-2.2 1.5-4 3.4-4 1.8 0 3.3 1.8 3.3 4.1z" fill="#FC0"/><path fill-rule="evenodd" clip-rule="evenodd" d="M237.633 297.33c2-.1 3.6-2 3.6-4.3s-1.7-4.2-3.6-4.1c-2 .1-3.6 2-3.6 4.3s1.6 4.2 3.6 4.1zm-13.2-3.902c0 2.3-1.6 4.3-3.7 4.3-2 .1-3.7-1.8-3.7-4.1s1.7-4.3 3.7-4.3c2-.1 3.7 1.8 3.7 4.1zm-20.9 4.902c2.1-.1 3.8-2 3.8-4.4 0-2.4-1.7-4.3-3.8-4.2-2.1.1-3.8 2-3.8 4.4 0 2.4 1.7 4.3 3.8 4.2zm-13.7-4c0 2.4-1.7 4.4-3.8 4.4-2.1.1-3.9-1.8-3.9-4.2 0-2.4 1.7-4.4 3.9-4.4 2.1 0 3.8 1.9 3.8 4.2zm-17.8.501c0 2.4-1.8 4.4-3.9 4.5-2.2.1-3.9-1.8-3.9-4.3s1.8-4.4 3.9-4.5c2.2 0 3.9 1.9 3.9 4.3z" fill="#FF4645"/><path fill-rule="evenodd" clip-rule="evenodd" d="M270.233 296.329c1.9-.1 3.5-1.9 3.5-4.2 0-2.3-1.6-4.1-3.5-4-1.9 0-3.5 1.9-3.5 4.2 0 2.3 1.6 4.1 3.5 4zm-16.1.4c1.9 0 3.5-1.9 3.5-4.2 0-2.3-1.6-4.1-3.5-4.1-2 0-3.6 1.9-3.6 4.2 0 2.3 1.6 4.2 3.6 4.1z" fill="#FC0"/><path fill-rule="evenodd" clip-rule="evenodd" d="M301.733 295.328c1.8 0 3.3-1.9 3.3-4.1 0-2.2-1.5-3.9-3.3-3.9-1.9 0-3.4 1.9-3.4 4.1 0 2.2 1.5 4 3.4 3.9zm-15.6.599c1.9-.1 3.4-2 3.4-4.2 0-2.3-1.5-4.1-3.4-4-1.9.1-3.4 1.9-3.4 4.2 0 2.3 1.5 4.1 3.4 4z" fill="#027BF3"/></svg>