<svg width="392" height="341" fill="none" xmlns="http://www.w3.org/2000/svg"><g opacity=".8"><path fill-rule="evenodd" clip-rule="evenodd" d="M311.7 51.487c4.1-9 22.3-32.1 22.3-32.1s-5 23.5-10.5 36.3c-3.8 8.6-15.6 4-11.8-4.2zm-59.2 28.4c4.1-8.9 26.7-40 26.7-40s-9.4 31.4-14.9 44.2c-3.8 8.6-15.6 4-11.8-4.2zM34.6 132.285s-15.4 17.8-19.2 26c-3.5 7.5 7.3 11.7 10.7 3.8 5.1-11.7 8.5-29.8 8.5-29.8zm-9.1 171.302h335.1c28 0 27-40.7 8.5-54.4-15.2-11.3-33.1-7.5-33.1-7.5 3.9-7.5 16.6-38.7-16.4-68.4-25.1-22.6-89.2-10.6-89.2-10.6s-4-64.9-48.4-59c-5.9-23.6-29.8-34.4-45.3-26.1-27.3 14.6-4.6 43.4-4.6 43.4s-17.2-5.5-29.6 4.5c-21.5 17.3-10.8 45.6-10.8 45.6s-9.7-6.4-22.7.4c-32.4 16.9-26.2 42.3-24 49.3-5.6-1.1-28.5-4-36.9 14.1-9.7 20.9 10 32.8 10 32.8s-15.3 6.9-15.3 15.3c0 .595-.01 1.209-.021 1.836-.142 8.231-.322 18.764 22.72 18.764z" fill="#fff" fill-opacity=".07"/><path clip-rule="evenodd" d="M366.4 192.988h-14.9c-2.6 0-4.8-2.1-4.8-4.8v-9c0-2.6 2.1-4.8 4.8-4.8h15c1.3 0 2-1.4 1.3-2.5-3.8-5.5-10.3-9.1-17.6-8.8-7.7.3-14.5 5-17.7 11.7l-58.3.1c-5.1 0-9.5 3.7-9.4 8.8.1 5 4.1 8.4 9.1 8.4l58.5.1c3.3 6.9 10.3 11.7 18.4 11.7 6.8 0 12.9-3.4 16.6-8.6 1-.9.2-2.3-1-2.3z" stroke="#2EE5C0" stroke-width="4" stroke-linecap="round" stroke-linejoin="round"/><path d="M389.7 213.687l2 .032v-.032h-2zm-11.3 9.2a2 2 0 1 0 0 4v-4zm-137.2-83.3a2 2 0 1 0 0 4v-4zm148.4 4a2 2 0 0 0 0-4v4zm-11.2 79.3H252.2v4h126.2v-4zm-126.2 0a9.182 9.182 0 0 1-9.2-9.2h-4c0 7.304 5.895 13.2 13.2 13.2v-4zm-9.2-9.2v-80.6h-4v80.6h4zm0-80.6c0-5.096 4.105-9.2 9.2-9.2v-4c-7.305 0-13.2 5.895-13.2 13.2h4zm9.2-9.2h126.3v-4H252.2v4zm126.3 0c5.095 0 9.2 4.104 9.2 9.2h4c0-7.305-5.895-13.2-13.2-13.2v4zm9.2 9.2v80.6h4v-80.6h-4zm0 80.567c-.082 5.127-4.211 9.233-9.3 9.233v4c7.311 0 13.182-5.895 13.3-13.168l-4-.065zm-146.5-70.067h148.4v-4H241.2v4zm148.4-4H241.2v4h148.4v-4z" fill="#2EE5C0"/><path clip-rule="evenodd" d="M347 95.488h-59.9c-4.5 0-8.1 3.6-8.1 8.1v18.4h76.1v-18.4c0-4.4-3.6-8.1-8.1-8.1z" stroke="#2EE5C0" stroke-width="4" stroke-linecap="round" stroke-linejoin="round"/><path clip-rule="evenodd" d="M290.5 106.488h53.2v15.5h-53.2v-15.5z" stroke="#2EE5C0" stroke-width="4" stroke-linecap="round" stroke-linejoin="round"/><path d="M113.1 54.188s-15.4 17.8-19.2 26c-3.5 7.5 7.3 11.7 10.7 3.8 5-11.6 8.5-29.8 8.5-29.8z" fill="#fff" fill-opacity=".07"/><path d="M104.5 230.788l-1.973.329a2 2 0 0 0 1.762 1.66l.211-1.989zm-2.3-8.6l-1.189-1.608a2 2 0 0 0-.694 2.281l1.883-.673zm6.9-5.1l-1.138-1.644-.051.036 1.189 1.608zm.8-4l-1.73 1.005.027.043 1.703-1.048zm-3.6-6.2l-1.737.993.007.012 1.73-1.005zm-3.9-1.3l-.788-1.838-.022.01.81 1.828zm-7.9 3.5l-1.542 1.274a2 2 0 0 0 2.352.555l-.81-1.829zm-6.3-6.3l-1.829-.81a2 2 0 0 0 .555 2.352l1.274-1.542zm3.5-7.9l1.829.81a.39.39 0 0 0 .01-.022l-1.839-.788zm-1.3-3.9l-1.004 1.73.012.007.992-1.737zm-6.2-3.6l1.004-1.729-.012-.007-.992 1.736zm-4 .8l-1.6-1.2-.008.011 1.608 1.189zm-5.1 6.9l-.695 1.876a2 2 0 0 0 2.303-.687l-1.608-1.189zm-8.6-2.3l-1.989.211a2 2 0 0 0 1.66 1.762l.329-1.973zm-.9-8.5l1.989-.21-.004-.038-1.985.248zm-13.4 0l-1.985-.248-.004.038 1.989.21zm-.9 8.5l.329 1.973a2 2 0 0 0 1.66-1.762l-1.989-.211zm-8.6 2.3l-1.608 1.189a2 2 0 0 0 2.28.695l-.672-1.884zm-5.1-6.9l-1.644 1.139a.78.78 0 0 0 .036.05l1.608-1.189zm-4-.8l1.004 1.73.044-.026-1.048-1.704zm-6.2 3.6l.992 1.737.012-.007-1.004-1.73zm-1.3 3.9l-1.838.788a.39.39 0 0 0 .01.022l1.828-.81zm3.5 7.9l1.274 1.542a2 2 0 0 0 .555-2.352l-1.829.81zm-6.3 6.3l-.81 1.829a2 2 0 0 0 2.352-.555l-1.542-1.274zm-7.9-3.5l.81-1.828a.209.209 0 0 0-.022-.01l-.788 1.838zm-3.9 1.3l1.73 1.005.006-.012-1.736-.993zm-3.6 6.2l-1.73-1.004-.006.012 1.736.992zm.8 4l-1.2 1.6.011.009 1.189-1.609zm6.9 5.1l1.876.695a2 2 0 0 0-.687-2.303l-1.189 1.608zm-2.3 8.6l.21 1.989a2 2 0 0 0 1.763-1.66l-1.973-.329zm-8.5.9l-.21-1.989-.038.005.248 1.984zm-2 12.4l-1.536 1.281a1.7 1.7 0 0 0 .122.133l1.414-1.414zm2 1l-.248 1.985.037.004.211-1.989zm8.5.9l1.973-.329a2 2 0 0 0-1.762-1.66l-.211 1.989zm2.3 8.6l1.189 1.609a2 2 0 0 0 .694-2.281l-1.883.672zm-6.9 5.1l1.138 1.645.05-.036-1.188-1.609zm-.8 4l1.73-1.004-.027-.044-1.703 1.048zm3.6 6.2l1.736-.992-.006-.012-1.73 1.004zm3.9 1.3l.788 1.839a.229.229 0 0 1 .022-.01l-.81-1.829zm7.9-3.5l1.542-1.273a2 2 0 0 0-2.352-.555l.81 1.828zm6.3 6.3l1.829.81a2 2 0 0 0-.555-2.352l-1.274 1.542zm-3.5 7.9l-1.829-.81a.617.617 0 0 1-.01.022l1.839.788zm1.3 3.9l1.004-1.729-.012-.007-.992 1.736zm6.2 3.6l-1.004 1.73.012.007.992-1.737zm4-.8l1.6 1.2.008-.011-1.608-1.189zm5.1-6.9l.695-1.875a2 2 0 0 0-2.303.686l1.608 1.189zm8.6 2.3l1.989-.21a2 2 0 0 0-1.66-1.763l-.329 1.973zm.9 8.5l-1.989.211.004.037 1.985-.248zm13.4 0l1.985.248.004-.037-1.989-.211zm.9-8.5l-.329-1.973a2 2 0 0 0-1.66 1.763l1.989.21zm8.6-2.3l1.608-1.189a2 2 0 0 0-2.28-.694l.672 1.883zm5.1 6.9l1.644-1.138a3.189 3.189 0 0 0-.036-.051l-1.608 1.189zm4 .8l-1.004-1.729a.902.902 0 0 0-.044.026l1.048 1.703zm6.2-3.6l-.992-1.736-.012.007 1.004 1.729zm1.3-3.9l1.838-.788a.617.617 0 0 1-.01-.022l-1.828.81zm-3.5-7.9l-1.274-1.542a2 2 0 0 0-.555 2.352l1.829-.81zm6.3-6.3l.81-1.828a2 2 0 0 0-2.352.555l1.542 1.273zm7.9 3.5l-.81 1.829.022.01.788-1.839zm3.9-1.3l-1.73-1.004-.006.012 1.736.992zm3.6-6.2l1.73 1.005.006-.012-1.736-.993zm-.8-4l1.2-1.6-.011-.008-1.189 1.608zm-6.9-5.1l-1.875-.694c-.31.835-.03 1.773.686 2.303l1.189-1.609zm2.3-8.6l-.211-1.989a2.001 2.001 0 0 0-1.762 1.66l1.973.329zm8.5-.9l-.181-1.992-.03.003.211 1.989zm2.4-1.7l-1.789-.894a6.399 6.399 0 0 0-.039.082l1.828.812zm.3-8.6l-1.996-.124a1.712 1.712 0 0 0-.004.124h2zm-31.4 3.602h-2v.014l2-.014zm28.911-8.691l-8.5-.9-.422 3.978 8.5.9.422-3.978zm-6.738.76c-.524-3.145-1.361-6.062-2.39-8.943l-3.766 1.345c.971 2.719 1.734 5.401 2.21 8.256l3.946-.658zm-3.084-6.662l6.9-5.1-2.378-3.217-6.9 5.1 2.378 3.217zm6.849-5.064c2.232-1.545 2.685-4.549 1.365-6.693l-3.406 2.096c.28.457.133 1.053-.235 1.308l2.276 3.289zm1.392-6.649l-3.6-6.2-3.46 2.009 3.6 6.2 3.46-2.009zm-3.594-6.188c-1.326-2.321-4.131-3.129-6.424-2.146l1.576 3.677a1.089 1.089 0 0 1 1.376.454l3.472-1.985zm-6.446-2.136l-7.9 3.5 1.62 3.657 7.9-3.5-1.62-3.657zm-5.548 4.055a48.891 48.891 0 0 0-6.568-6.569l-2.548 3.084a44.937 44.937 0 0 1 6.032 6.032l3.084-2.547zm-6.013-4.217l3.5-7.9-3.658-1.62-3.5 7.9 3.658 1.62zm3.51-7.922c.982-2.293.174-5.098-2.147-6.424l-1.984 3.473c.48.274.67.869.454 1.375l3.676 1.576zm-2.135-6.417l-6.2-3.6-2.008 3.459 6.2 3.6 2.008-3.459zm-6.212-3.607a5.078 5.078 0 0 0-6.592 1.336l3.2 2.4a1.079 1.079 0 0 1 1.408-.263l1.984-3.473zm-6.6 1.347l-5.1 6.9 3.216 2.378 5.1-6.9-3.216-2.378zm-2.797 6.214a49.262 49.262 0 0 0-8.966-2.398l-.658 3.946a45.27 45.27 0 0 1 8.234 2.203l1.39-3.751zm-7.306-.635l-.9-8.5-3.978.421.9 8.5 3.978-.421zm-.904-8.538c-.32-2.549-2.425-4.552-5.085-4.552v4c.54 0 1.034.397 1.115 1.048l3.97-.496zm-5.085-4.552h-7.2v4h7.2v-4zm-7.2 0c-2.66 0-4.766 2.003-5.085 4.552l3.97.496c.08-.651.575-1.048 1.115-1.048v-4zm-5.089 4.59l-.9 8.5 3.978.421.9-8.5-3.978-.421zm.76 6.737c-3.145.525-6.063 1.361-8.944 2.39l1.346 3.767c2.719-.971 5.401-1.735 8.256-2.211l-.658-3.946zm-6.663 3.084l-5.1-6.9-3.216 2.378 5.1 6.9 3.216-2.378zm-5.064-6.849c-1.545-2.232-4.548-2.684-6.692-1.365l2.096 3.407c.456-.281 1.053-.134 1.308.235l3.288-2.277zm-6.648-1.391l-6.2 3.6 2.008 3.459 6.2-3.6-2.008-3.459zm-6.188 3.593c-2.32 1.326-3.13 4.131-2.146 6.424l3.676-1.576a1.09 1.09 0 0 1 .454-1.375l-1.984-3.473zm-2.137 6.446l3.5 7.9 3.658-1.62-3.5-7.9-3.658 1.62zm4.055 5.548a48.891 48.891 0 0 0-6.568 6.569l3.084 2.547a44.937 44.937 0 0 1 6.032-6.032l-2.548-3.084zm-4.216 6.014l-7.9-3.5-1.62 3.657 7.9 3.5 1.62-3.657zm-7.922-3.51c-2.293-.983-5.098-.175-6.424 2.146l3.473 1.985c.273-.48.868-.672 1.375-.454l1.576-3.677zm-6.418 2.134l-3.6 6.2 3.46 2.009 3.6-6.2-3.46-2.009zm-3.606 6.212a5.079 5.079 0 0 0 1.336 6.592l2.4-3.2a1.079 1.079 0 0 1-.264-1.407l-3.472-1.985zm1.347 6.601l6.9 5.1 2.378-3.217-6.9-5.1-2.378 3.217zm6.214 2.797a49.233 49.233 0 0 0-2.398 8.965l3.946.658a45.227 45.227 0 0 1 2.203-8.234l-3.751-1.389zm-.636 7.305l-8.5.9.422 3.978 8.5-.9-.422-3.978zm-8.537.905C2.003 230.022 0 232.128 0 234.788h4c0-.54.397-1.034 1.048-1.115l-.496-3.969zM0 234.788v7.2h4v-7.2H0zm0 7.2c0 1.342.515 2.482 1.264 3.381l3.072-2.561c-.25-.302-.336-.561-.336-.82H0zm1.386 3.514c.766.767 1.861 1.408 3.166 1.571l.496-3.969a1.48 1.48 0 0 1-.834-.43l-2.828 2.828zm3.203 1.575l8.5.9.422-3.978-8.5-.9-.422 3.978zm6.738-.76c.524 3.145 1.36 6.063 2.39 8.944l3.766-1.345c-.97-2.719-1.734-5.402-2.21-8.257l-3.946.658zm3.084 6.663l-6.9 5.1 2.378 3.217 6.9-5.1-2.378-3.217zm-6.85 5.064c-2.231 1.545-2.684 4.549-1.364 6.692l3.406-2.096c-.28-.456-.133-1.052.235-1.307l-2.276-3.289zm-1.39 6.649l3.6 6.2 3.459-2.009-3.6-6.2-3.46 2.009zm3.593 6.188c1.326 2.32 4.13 3.128 6.424 2.146l-1.576-3.677a1.09 1.09 0 0 1-1.376-.454l-3.472 1.985zm6.446 2.136l7.9-3.5-1.62-3.657-7.9 3.5 1.62 3.657zm5.548-4.055a48.826 48.826 0 0 0 6.568 6.568l2.548-3.084a44.871 44.871 0 0 1-6.032-6.031l-3.084 2.547zm6.013 4.216l-3.5 7.9 3.658 1.62 3.5-7.9-3.658-1.62zm-3.51 7.922c-.982 2.294-.174 5.099 2.147 6.425l1.984-3.473a1.09 1.09 0 0 1-.454-1.376l-3.676-1.576zm2.135 6.418l6.2 3.6 2.008-3.459-6.2-3.6-2.008 3.459zm6.212 3.607a5.08 5.08 0 0 0 6.592-1.337l-3.2-2.4a1.08 1.08 0 0 1-1.408.264l-1.984 3.473zm6.6-1.348l5.1-6.9-3.216-2.378-5.1 6.9 3.216 2.378zm2.797-6.213a49.26 49.26 0 0 0 8.966 2.397l.658-3.946a45.187 45.187 0 0 1-8.234-2.202l-1.39 3.751zm7.306.635l.9 8.5 3.978-.421-.9-8.5-3.978.421zm.904 8.537c.32 2.549 2.425 4.552 5.085 4.552v-4c-.54 0-1.034-.397-1.115-1.048l-3.97.496zm5.085 4.552h7.2v-4h-7.2v4zm7.2 0c2.66 0 4.766-2.003 5.085-4.552l-3.97-.496c-.08.651-.575 1.048-1.115 1.048v4zm5.089-4.589l.9-8.5-3.978-.421-.9 8.5 3.978.421zm-.76-6.738c3.145-.524 6.063-1.36 8.944-2.389l-1.346-3.767c-2.719.971-5.401 1.735-8.256 2.21l.658 3.946zm6.663-3.084l5.1 6.9 3.216-2.378-5.1-6.9-3.216 2.378zm5.064 6.85c1.545 2.231 4.548 2.684 6.692 1.365l-2.096-3.407c-.456.281-1.053.133-1.308-.235l-3.288 2.277zm6.648 1.391l6.2-3.6-2.008-3.459-6.2 3.6 2.008 3.459zm6.188-3.593c2.32-1.326 3.13-4.131 2.146-6.425l-3.676 1.576a1.09 1.09 0 0 1-.454 1.376l1.984 3.473zm2.137-6.447l-3.5-7.9-3.658 1.62 3.5 7.9 3.658-1.62zm-4.055-5.548a48.826 48.826 0 0 0 6.568-6.568l-3.084-2.547a44.871 44.871 0 0 1-6.032 6.031l2.548 3.084zm4.216-6.013l7.9 3.5 1.62-3.657-7.9-3.5-1.62 3.657zm7.922 3.51c2.293.982 5.098.174 6.424-2.146l-3.472-1.985a1.091 1.091 0 0 1-1.376.454l-1.576 3.677zm6.418-2.134l3.6-6.2-3.46-2.009-3.6 6.2 3.46 2.009zm3.606-6.212a5.08 5.08 0 0 0-1.336-6.593l-2.4 3.2c.403.302.557.894.264 1.408l3.472 1.985zm-1.347-6.601l-6.9-5.1-2.378 3.217 6.9 5.1 2.378-3.217zm-6.214-2.797a49.174 49.174 0 0 0 2.398-8.966l-3.946-.658a45.263 45.263 0 0 1-2.202 8.235l3.75 1.389zm.636-7.306l8.5-.9-.422-3.978-8.5.9.422 3.978zm8.47-.897a4.925 4.925 0 0 0 4.047-2.879l-3.656-1.625a.921.921 0 0 1-.753.52l.362 3.984zm4.008-2.797c.367-.735.511-1.554.511-2.295h-4c0 .26-.056.44-.089.506l3.578 1.789zm.511-2.295v-7.2h-4v7.2h4zm-.004-7.075c.173-2.774-1.922-4.894-4.448-5.209l-.496 3.969c.674.084.979.564.952.991l3.992.249zM59 261.69c-12.895 0-23.3-10.405-23.3-23.3h-4c0 15.104 12.195 27.3 27.3 27.3v-4zm-23.3-23.3c0-12.896 10.404-23.3 23.3-23.3v-4c-15.105 0-27.3 12.195-27.3 27.3h4zm23.3-23.3c12.895 0 23.3 10.404 23.3 23.3h4c0-15.105-12.195-27.3-27.3-27.3v4zm23.3 23.314c.092 12.871-10.391 23.286-23.3 23.286v4c15.091 0 27.408-12.186 27.3-27.314l-4 .028z" fill="#2EE5C0"/><path fill-rule="evenodd" clip-rule="evenodd" d="M228.7 37.988l16.9-.5c.8 0 1 1.2.5 2.1l-34.3 49.4c-.8 1.1-2.1 1.3-1.8-.1l9-36-16.9.5c-.8-.1-1.1-1.2-.5-2.1l34.1-50.4c.8-1.1 2.1-1.3 1.8.1l-8.8 37zM57.9 82.486l10.7-.3c.5 0 .7.8.3 1.3l-22.9 32.4c-.4.7-1.3.8-1.1-.1l4.1-23.9-10.7.3c-.5 0-.7-.8-.3-1.3l22.7-33c.4-.7 1.3-.8 1.1.1l-3.9 24.5z" fill="#FC0"/><path d="M135.8 12.29a2 2 0 1 0-4 0h4zm-4 7.3a2 2 0 1 0 4 0h-4zm4 15.098a2 2 0 1 0-4 0h4zm-4 7.9a2 2 0 1 0 4 0h-4zm17.1-13.197a2 2 0 1 0 0-4v4zm-7.2-4a2 2 0 1 0 0 4v-4zm-15.8 4a2 2 0 1 0 0-4v4zm-7.2-4a2 2 0 1 0 0 4v-4zm13.1-13.102v7.3h4v-7.3h-4zm0 22.399v7.9h4v-7.9h-4zm17.1-9.297h-7.2v4h7.2v-4zm-23 0h-7.2v4h7.2v-4z" fill="#2EE5C0"/><path d="M62.9 330.187l90.9 10.1c2.3.2 4.3-3.1 4.3-7.2v-198.3c0-4.2-1.9-7.4-4.3-7.2l-90.9 12.1c-2 .2-3.7 3.4-3.7 7.3v175.9c0 3.9 1.7 7.1 3.7 7.3z" fill="#007CE9"/><path d="M311.8 333.287l-157.7 6.9c-4.1.2-7.4-3.1-7.4-7.2v-198.2c0-4.2 3.3-7.4 7.4-7.2l157.7 6.9c3.5.2 6.4 3.4 6.4 7.3v184.2c0 3.9-2.9 7.2-6.4 7.3z" fill="#00236B"/><path d="M146.66 200.488l171.5 3.4.08-3.999-171.5-3.4-.08 3.999zm-2.933 73.1l174.5-2.4-.055-4-174.5 2.4.055 4z" fill="#007CE9"/><path fill-rule="evenodd" clip-rule="evenodd" d="M167.2 154.988c2.1.2 3.9-1.7 3.9-4.1 0-2.4-1.7-4.5-3.9-4.6-2.1-.2-3.9 1.7-3.9 4.1 0 2.4 1.7 4.5 3.9 4.6zm17.9.901c2.1.1 3.8-1.7 3.8-4.1 0-2.3-1.7-4.4-3.8-4.5-2.2-.1-3.9 1.7-3.9 4.1 0 2.4 1.8 4.4 3.9 4.5zm21.3-3.1c0 2.4-1.7 4.2-3.8 4.1-2.1-.1-3.8-2.1-3.8-4.5s1.7-4.2 3.8-4.1c2.1.1 3.8 2.2 3.8 4.5zm13.4 4.998c2.1.1 3.7-1.7 3.7-4 0-2.4-1.7-4.4-3.7-4.4-2-.1-3.7 1.7-3.7 4s1.7 4.3 3.7 4.4zm20.5-3.098c0 2.3-1.6 4.1-3.6 4-2-.1-3.6-2.1-3.6-4.4 0-2.3 1.6-4.1 3.6-4 1.9.1 3.6 2.1 3.6 4.4zm12.9 4.9c1.9.1 3.5-1.7 3.5-4s-1.6-4.3-3.5-4.3c-2-.1-3.6 1.7-3.6 4s1.6 4.2 3.6 4.3z" fill="#FF4645"/><path fill-rule="evenodd" clip-rule="evenodd" d="M269.3 160.388c1.9.1 3.5-1.6 3.5-3.9s-1.6-4.2-3.5-4.3c-1.9-.1-3.5 1.6-3.5 3.9s1.6 4.2 3.5 4.3zm15.9.8c1.9.1 3.4-1.7 3.4-3.9s-1.5-4.1-3.4-4.3c-1.9-.1-3.4 1.6-3.4 3.9s1.5 4.2 3.4 4.3z" fill="#FC0"/><path d="M304.1 158.188c0 2.2-1.5 3.9-3.3 3.8-1.9-.1-3.4-2-3.4-4.2s1.5-4 3.4-3.8c1.8.1 3.3 2 3.3 4.2z" fill="#007CE9"/><path fill-rule="evenodd" clip-rule="evenodd" d="M167.2 227.087c2.1 0 3.9-1.9 3.9-4.3s-1.7-4.4-3.9-4.4c-2.1 0-3.9 1.9-3.9 4.3s1.7 4.4 3.9 4.4zm17.9.2c2.1 0 3.8-1.9 3.8-4.3 0-2.3-1.7-4.3-3.8-4.4-2.2 0-3.9 1.9-3.9 4.3s1.8 4.4 3.9 4.4zm21.3-3.999c0 2.4-1.7 4.2-3.8 4.2-2.1 0-3.8-2-3.8-4.3 0-2.4 1.7-4.3 3.8-4.2 2.1 0 3.8 1.9 3.8 4.3zm13.4 4.399c2.1 0 3.7-1.9 3.7-4.2 0-2.3-1.7-4.2-3.7-4.3-2 0-3.7 1.8-3.7 4.2 0 2.4 1.7 4.3 3.7 4.3zm20.5-3.9c0 2.3-1.6 4.2-3.6 4.1-2 0-3.6-1.9-3.6-4.2 0-2.3 1.6-4.2 3.6-4.1 1.9 0 3.6 1.9 3.6 4.2zm12.9 4.298c1.9 0 3.5-1.8 3.5-4.1s-1.6-4.2-3.5-4.2c-2 0-3.6 1.8-3.6 4.1s1.6 4.2 3.6 4.2zm19.6-3.897c0 2.3-1.6 4.1-3.5 4.1s-3.5-1.9-3.5-4.2c0-2.3 1.6-4.1 3.5-4.1 1.9.1 3.5 2 3.5 4.2zm12.4 4.299c1.9 0 3.4-1.8 3.4-4 0-2.3-1.5-4.1-3.4-4.1-1.9-.1-3.4 1.7-3.4 4 0 2.2 1.5 4.1 3.4 4.1z" fill="#FF4645"/><path d="M304.1 224.686c0 2.2-1.5 4-3.3 4-1.9 0-3.4-1.8-3.4-4.1 0-2.2 1.5-4 3.4-4 1.8 0 3.3 1.8 3.3 4.1z" fill="#FC0"/><path fill-rule="evenodd" clip-rule="evenodd" d="M236.7 297.189c2-.1 3.6-2 3.6-4.3s-1.7-4.2-3.6-4.1c-2 .1-3.6 2-3.6 4.3s1.6 4.2 3.6 4.1zm-13.2-3.902c0 2.3-1.6 4.3-3.7 4.3-2 .1-3.7-1.8-3.7-4.1s1.7-4.3 3.7-4.3c2-.1 3.7 1.8 3.7 4.1zm-20.9 4.902c2.1-.1 3.8-2 3.8-4.4 0-2.4-1.7-4.3-3.8-4.2-2.1.1-3.8 2-3.8 4.4 0 2.4 1.7 4.3 3.8 4.2zm-13.7-4c0 2.4-1.7 4.4-3.8 4.4-2.1.1-3.9-1.8-3.9-4.2 0-2.4 1.7-4.4 3.9-4.4 2.1 0 3.8 1.9 3.8 4.2zm-17.8.502c0 2.4-1.8 4.4-3.9 4.5-2.2.1-3.9-1.8-3.9-4.3s1.8-4.4 3.9-4.5c2.2 0 3.9 1.9 3.9 4.3z" fill="#FF4645"/><path fill-rule="evenodd" clip-rule="evenodd" d="M269.3 296.188c1.9-.1 3.5-1.9 3.5-4.2 0-2.3-1.6-4.1-3.5-4-1.9 0-3.5 1.9-3.5 4.2 0 2.3 1.6 4.1 3.5 4zm-16.1.4c1.9 0 3.5-1.9 3.5-4.2 0-2.3-1.6-4.1-3.5-4.1-2 0-3.6 1.9-3.6 4.2 0 2.3 1.6 4.2 3.6 4.1z" fill="#FC0"/><path fill-rule="evenodd" clip-rule="evenodd" d="M300.8 295.188c1.8 0 3.3-1.9 3.3-4.1 0-2.2-1.5-3.9-3.3-3.9-1.9 0-3.4 1.899-3.4 4.099 0 2.201 1.5 4.001 3.4 3.901zm-15.6.598c1.9-.1 3.4-2 3.4-4.2 0-2.3-1.5-4.1-3.4-4-1.9.1-3.4 1.9-3.4 4.2 0 2.3 1.5 4.1 3.4 4z" fill="#027BF3"/></g></svg>