<svg width="97" height="101" viewBox="0 0 97 101" fill="none" xmlns="http://www.w3.org/2000/svg">
  <path d="M63.48 16.38v-4M63.48 39.87v-4" stroke="#056FC6" stroke-width="5" stroke-miterlimit="10"/>
  <path d="M63.72 17.13v4" stroke="#027BF3" stroke-width="5" stroke-miterlimit="10"/>
  <path d="M65.87 21.56a.43.43 0 100-.86.43.43 0 000 .86zM70.16 21.56a.43.43 0 100-.86.43.43 0 000 .86zM74.45 21.56a.43.43 0 100-.86.43.43 0 000 .86zM65.87 26.08a.43.43 0 100-.87.43.43 0 000 .87zM70.16 26.08a.43.43 0 100-.87.43.43 0 000 .87zM74.45 26.08a.43.43 0 100-.87.43.43 0 000 .87zM65.87 30.6a.43.43 0 100-.87.43.43 0 000 .86zM70.16 30.6a.43.43 0 100-.87.43.43 0 000 .86zM74.45 30.6a.43.43 0 100-.87.43.43 0 000 .86zM65.87 45.05a.43.43 0 100-.86.43.43 0 000 .86zM70.16 45.05a.43.43 0 100-.86.43.43 0 000 .86zM74.45 45.05a.43.43 0 100-.86.43.43 0 000 .86zM65.87 49.56a.43.43 0 100-.86.43.43 0 000 .86zM70.16 49.56a.43.43 0 100-.86.43.43 0 000 .86zM74.45 49.56a.43.43 0 100-.86.43.43 0 000 .86zM65.87 54.08a.43.43 0 100-.86.43.43 0 000 .86zM70.16 54.08a.43.43 0 100-.86.43.43 0 000 .86zM74.45 54.08a.43.43 0 100-.86.43.43 0 000 .86z" fill="#056FC6"/>
  <path d="M4.06 80.85l-2.8-1.58V30.8l2.8 1.58v48.47z" fill="#18123D"/>
  <path d="M4.03 80.83l47.02-19.35V13.03L4.03 32.38v48.45z" fill="#464164"/>
  <path d="M0 31.33l47.7-19.65 3.35 1.35L2.79 32.91 0 31.33z" fill="#74718B"/>
  <path d="M91.9 80.08L45.3 59.72V11.24l46.6 20.37v48.47z" fill="#18123D"/>
  <path d="M91.88 80.06l2.76-1.14V30.47l-2.76 1.14v48.45z" fill="#464164"/>
  <path d="M45.19 11.36l2.87-1.25 46.58 20.36-2.87 1.25-46.58-20.36z" fill="#74718B"/>
  <path d="M80.65 59.99L40.7 42.53V.97l39.95 17.46V60z" fill="#fff"/>
  <path d="M45.34 9.41l27.79 12.4M45.34 12.17l27.79 12.4M45.34 14.92l27.79 12.4M45.34 17.68l16.77 7.45M45.34 20.43l16.77 7.45" stroke="#A8BFDA" stroke-width="3" stroke-miterlimit="10"/>
  <path d="M80.63 59.96l2.37-.97V17.45l-2.37.98v41.53z" fill="#D1D0D8"/>
  <path d="M40.6 1.08L43.07 0 83 17.45l-2.47 1.08L40.6 1.08z" fill="#A3A0B1"/>
  <path d="M69.8 82.34L29.83 64.88V23.33L69.8 40.78v41.56z" fill="#fff"/>
  <path d="M69.78 82.32l2.36-.98V39.81l-2.36.97v41.54z" fill="#CCE5FD"/>
  <path d="M29.74 23.43l2.47-1.07L72.14 39.8l-2.47 1.08-39.93-17.46z" fill="#D1D0D8"/>
  <path d="M62.35 85.82L22.4 68.36V26.8l39.95 17.46v41.56z" fill="#fff"/>
  <path d="M62.33 85.8l2.37-.98V43.29l-2.37.97V85.8z" fill="#CCE5FD"/>
  <path d="M22.3 26.9l2.47-1.07L64.7 43.28l-2.47 1.08L22.3 26.9z" fill="#D1D0D8"/>
  <path d="M54.41 88.9L14.46 71.44V29.88l39.95 17.46V88.9z" fill="#fff"/>
  <path d="M54.4 88.87l2.36-.98V46.36l-2.37.98v41.53z" fill="#CCE5FD"/>
  <path d="M14.36 29.98l2.47-1.07 39.93 17.45-2.47 1.08-39.93-17.46z" fill="#D1D0D8"/>
  <path d="M49.42 99l-2.8-1.57V48.95l2.8 1.58V99z" fill="#18123D"/>
  <path d="M49.4 98.97l47.02-19.34V31.18L49.4 50.53v48.44z" fill="#464164"/>
  <path d="M45.37 49.48l47.7-19.65 3.35 1.35-48.26 19.88-2.79-1.58z" fill="#74718B"/>
  <path d="M46.7 100.13L.12 79.79V31.31l46.6 20.37-.02 48.45z" fill="#18123D"/>
  <path d="M46.7 100.13l2.76-1.14V50.54l-2.76 1.14v48.45z" fill="#464164"/>
  <path d="M.08 31.31l2.8-1.13 46.58 20.36-2.8 1.14L.08 31.3z" fill="#74718B"/>
</svg>
