<svg xmlns="http://www.w3.org/2000/svg" width="16" height="16" viewBox="0 0 438.54 438.54"><path d="M394 235.54c-17.13-19.99-42.53-33.88-76.23-41.68 23.62-10.85 37.9-18.18 42.84-21.98 11.99-8.95 21.03-18.95 27.11-29.98 6.1-11.05 9.14-23.23 9.14-36.55 0-12.37-2-23.98-6-34.83a87.4 87.4 0 00-18.56-29.7 107.76 107.76 0 00-29.12-21.7c-10.09-4.94-19.22-8.65-27.4-11.13C296.16 2.85 277.98.3 261.23.3h-21.13c-3.8 0-7.66-.05-11.56-.15L222.4 0c-.95 0-2.28.05-4 .14-1.71.1-3.05.14-4 .14l-12.85.3-108.49 3.7L18.84 6 20 29.7c15.98 2.09 26.84 3.33 32.54 3.7 9.71.58 16.28 2 19.7 4.29 2.1 1.52 3.24 2.67 3.43 3.43 1.9 4.18 2.95 14.56 3.14 31.12.76 28.17 1.62 66.62 2.57 115.34l.57 141.9c0 24.36-.85 42.83-2.57 55.39-.76 4.56-2.76 9.42-6 14.56-8.75 3.61-20.45 6.56-35.11 8.85-4.38.57-10.85 1.7-19.41 3.43l-.57 26.83c45.49-1.52 71.37-2.57 77.66-3.14 40.73-2.48 69.1-3.52 85.08-3.14l56.24 1.14c22.09.76 40.93-.3 56.54-3.14 24.74-4.57 44.05-10.29 57.95-17.14 14.09-6.85 27.4-17.13 39.97-30.83 9.52-10.47 16.27-21.6 20.27-33.4 5.52-16.18 8.28-31.5 8.28-45.97 0-24.74-8.75-47.2-26.26-67.38zM170.47 33.13c14.84-2.48 27.21-3.71 37.11-3.71 32.55 0 56.82 7.13 72.8 21.4 16.17 14.28 24.27 32.08 24.27 53.4 0 30.26-8.47 51.58-25.4 63.95-16.95 12.37-42.07 18.56-75.38 18.56-12.56 0-22.94-.67-31.12-2-.2-6.47-.29-13.8-.29-21.99l.3-27.98c.18-29.88-.4-56.43-1.72-79.65a367.5 367.5 0 01-.57-21.98zM313.2 362.88c-7.04 13.7-18.66 24.46-34.83 32.26-16.18 7.81-36.74 11.7-61.67 11.7-12.18 0-25.5-3.03-39.97-9.12-2.28-5.52-3.43-9.72-3.43-12.57l-.86-77.09.3-49.39v-41.11c5.13-1.9 14.75-2.86 28.83-2.86 31.79 0 55.29 3.05 70.52 9.14 15.8 6.1 29.22 18.08 40.26 35.98 7.8 12.56 11.7 29.7 11.7 51.4 0 21.11-3.62 38.34-10.85 51.66z"/></svg>