<svg xmlns="http://www.w3.org/2000/svg" viewBox="0 0 24 24" width="24" height="24">
  <g fill="currentColor">
    <path d="M21.114 13.623l-2.417-.514.857-4.03 1.84-1.227c.45-.26.57-.826.264-1.246a.845.845 0 00-1.246-.265l-1.87 1.181-.49-.104a5.256 5.256 0 00-4.044-6.227 5.23 5.23 0 00-6.227 4.044l-.604-.129L5.95 3.267a.845.845 0 00-1.246-.265.845.845 0 00-.265 1.246l1.22 1.877-.857 4.03-2.417-.513a.917.917 0 00-1.1.716c-.112.529.185.989.714 1.101l2.416.514-.294 1.387c-.241 1.133-.194 2.209.142 3.227l-2.48 1.643a.845.845 0 00-.265 1.247c.26.45.826.57 1.246.264L5.1 18.225c.879 1.252 2.193 2.124 3.779 2.46l1.812.386a6.067 6.067 0 004.415-.72l1.517 2.336c.26.45.826.57 1.246.265.45-.26.57-.826.265-1.246l-1.598-2.51a6.117 6.117 0 001.481-2.882l.295-1.387 2.416.513a.917.917 0 001.1-.716.941.941 0 00-.713-1.101zm-7.491-10.62c1.813.386 3.002 2.217 2.617 4.03L9.593 5.62a3.402 3.402 0 014.029-2.616zM11.076 19.26l-1.813-.386a4.316 4.316 0 01-3.33-5.128L7.358 7.04 17.63 9.222l-1.425 6.706c-.498 2.341-2.825 3.82-5.128 3.33z"/>
    <path d="M9.36 9.8l5.316 1.13-.41 1.934-5.317-1.13zM8.538 13.668l5.316 1.13-.41 1.933-5.317-1.13z"/>
  </g>
</svg>
