<svg fill="none" xmlns="http://www.w3.org/2000/svg" viewBox="0 0 24 24" width="24" height="24"><path fill-rule="evenodd" clip-rule="evenodd" d="M22.903 11.295l-4.528-1.708v-5.12c0-.707-.436-1.339-1.097-1.589l-4.687-1.77a1.657 1.657 0 00-1.186 0l-4.688 1.77c-.66.25-1.097.882-1.097 1.59v5.119l-4.528 1.708A1.7 1.7 0 000 12.885v5.194c0 .642.36 1.232.933 1.52l4.687 2.358c.474.24 1.036.24 1.51 0L12 19.504l4.87 2.453c.474.24 1.036.24 1.51 0l4.687-2.359c.572-.287.933-.877.933-1.519v-5.194c0-.708-.436-1.34-1.097-1.59zm-6.122-1.67l-3.984 1.504V7.912l3.984-1.746v3.458zM12 2.6L7.219 4.402v.029L12 6.384l4.781-1.953v-.029L12 2.6zm-.844 15.536L7.172 20.14v-3.732l3.984-1.83v3.557zm-4.781-3.33l4.781-1.954v-.029l-4.781-1.802-4.781 1.802v.029l4.781 1.953zm16.031 3.33l-3.984 2.005v-3.732l3.984-1.83v3.557zm-4.781-3.33l4.781-1.954v-.029l-4.781-1.802-4.781 1.802v.029l4.781 1.953z" fill="currentColor"/></svg>
