<svg xmlns="http://www.w3.org/2000/svg" width="20" height="20" viewBox="0 0 20 20"><path fill="currentColor" fill-rule="evenodd" clip-rule="evenodd" d="M15 3.878v.26a9.999 9.999 0 00-1.647 1.33l-2.276 2.276a.833.833 0 001.179 1.179l2.267-2.268c.504-.503.951-1.058 1.336-1.655h.263l-.033.14a9.999 9.999 0 00-.256 2.249v.524a.833.833 0 001.667 0v-3.91a1.5 1.5 0 00-1.5-1.5L12.084 2.5a.833.833 0 000 1.667h.528a10 10 0 002.249-.256l.14-.033zM4.141 15a9.996 9.996 0 011.336-1.655l2.267-2.268a.833.833 0 011.179 1.179L6.647 14.53A10 10 0 015 15.861v.26l.14-.032a9.999 9.999 0 012.249-.256h.528a.833.833 0 010 1.667l-3.918-.002a1.5 1.5 0 01-1.499-1.5v-3.915a.833.833 0 011.667 0v.528a10 10 0 01-.256 2.249l-.033.14h.263z"/></svg>
