<svg xmlns="http://www.w3.org/2000/svg" width="20" height="20" viewBox="0 0 20 20"><path fill="currentColor" fill-rule="evenodd" clip-rule="evenodd" d="M16.077 2.744a.833.833 0 111.179 1.179L14.98 6.198c-.502.501-1.054.947-1.648 1.33v.26l.14-.032a10 10 0 012.25-.256h.527a.833.833 0 010 1.667l-3.918-.003a1.5 1.5 0 01-1.499-1.5V3.75a.833.833 0 011.667 0v.528c0 .757-.086 1.511-.256 2.248l-.033.14h.264a9.998 9.998 0 011.335-1.655l2.267-2.267zm-9.41 9.467v.26a10 10 0 00-1.648 1.331l-2.275 2.275a.833.833 0 101.179 1.179l2.267-2.267a10 10 0 001.335-1.656h.263l-.032.14a10 10 0 00-.256 2.25v.527a.833.833 0 001.667 0v-3.914a1.5 1.5 0 00-1.5-1.5l-3.917-.003a.833.833 0 000 1.667h.528c.757 0 1.511-.086 2.248-.256l.14-.033z"/></svg>
