<svg width="14" height="14" viewBox="0 0 14 14" fill="none" xmlns="http://www.w3.org/2000/svg">
    <path fill-rule="evenodd" fill="currentColor" d="M13.1191 0.625L8.98047 0.650391C8.77734 0.650391 8.625 0.802734 8.625 1.00586V1.84375C8.625 2.04688 8.77734 2.22461 8.98047 2.22461L10.8594 2.14844L10.9102 2.19922L3.82617 9.2832C3.77539 9.33398 3.72461 9.43555 3.72461 9.48633C3.72461 9.5625 3.77539 9.66406 3.82617 9.71484L4.41016 10.2988C4.46094 10.3496 4.5625 10.4004 4.63867 10.4004C4.68945 10.4004 4.79102 10.3496 4.8418 10.2988L11.9258 3.21484L11.9766 3.26562L11.9004 5.14453C11.9004 5.34766 12.0781 5.5 12.2812 5.5H13.1191C13.3223 5.5 13.4746 5.34766 13.4746 5.14453L13.5 1.00586C13.5 0.802734 13.3223 0.625 13.1191 0.625ZM11.4688 7.9375H11.0625C10.834 7.9375 10.6562 8.14062 10.6562 8.34375V12.2539C10.6562 12.3555 10.5801 12.4062 10.5039 12.4062H1.87109C1.76953 12.4062 1.71875 12.3555 1.71875 12.2539V3.62109C1.71875 3.54492 1.76953 3.46875 1.87109 3.46875H5.78125C5.98438 3.46875 6.1875 3.29102 6.1875 3.0625V2.65625C6.1875 2.45312 5.98438 2.25 5.78125 2.25H1.71875C1.0332 2.25 0.5 2.80859 0.5 3.46875V12.4062C0.5 13.0918 1.0332 13.625 1.71875 13.625H10.6562C11.3164 13.625 11.875 13.0918 11.875 12.4062V8.34375C11.875 8.14062 11.6719 7.9375 11.4688 7.9375Z"/>
</svg>
