<svg fill="none" xmlns="http://www.w3.org/2000/svg" viewBox="0 0 24 24" width="24" height="24"><path fill-rule="evenodd" clip-rule="evenodd" d="M22 12.219c0 5.523-4.477 10-10 10s-10-4.477-10-10 4.477-10 10-10 10 4.477 10 10zm-2 0a8 8 0 11-16 0 8 8 0 0116 0zm-9.25 4.243c0-.723.55-1.243 1.243-1.243.708 0 1.257.52 1.257 1.243 0 .722-.55 1.257-1.257 1.257a1.228 1.228 0 01-1.243-1.258zm1.475-9.743c-2.157 0-3.775 1.243-3.775 3.25v.025a.5.5 0 00.5.5h.803c.24 0 .435-.195.435-.435 0-1.123.868-1.722 2.037-1.722 1.138 0 1.887.599 1.887 1.453 0 .809-.42 1.183-1.468 1.662l-.3.135c-.883.39-1.213.974-1.213 1.992v.14a.5.5 0 00.5.5h.738a.5.5 0 00.5-.5v-.035c0-.45.12-.629.48-.794l.299-.134c1.258-.57 2.202-1.319 2.202-2.951v-.09c0-1.723-1.498-2.996-3.625-2.996z" fill="currentColor"/></svg>
