<svg width="16" height="16" viewBox="0 0 16 16" fill="none" xmlns="http://www.w3.org/2000/svg">
    <path d="M14.1953 1.82812H13.4844C13.3066 1.82812 13.1797 1.98047 13.1797 2.1582L13.2305 4.64648C12.1133 2.9707 10.1836 1.82812 8 1.82812C4.90234 1.82812 2.33789 4.03711 1.80469 6.95703C1.75391 7.16016 1.90625 7.3125 2.10938 7.3125H2.82031C2.97266 7.3125 3.09961 7.23633 3.125 7.08398C3.60742 4.84961 5.58789 3.14844 8 3.14844C10.0059 3.14844 11.7324 4.36719 12.5195 6.09375L9.32031 6.01758C9.14258 6.01758 9.01562 6.14453 9.01562 6.32227V7.00781C9.01562 7.18555 9.14258 7.3125 9.32031 7.3125H14.1953C14.3477 7.3125 14.5 7.18555 14.5 7.00781V2.13281C14.5 1.98047 14.3477 1.82812 14.1953 1.82812ZM13.8652 8.9375H13.1543C13.002 8.9375 12.875 9.03906 12.8496 9.19141C12.3672 11.4258 10.3867 13.1016 8 13.1016C5.96875 13.1016 4.24219 11.9082 3.45508 10.1816L6.6543 10.2578C6.83203 10.2578 6.98438 10.1309 6.98438 9.95312V9.24219C6.98438 9.08984 6.83203 8.9375 6.67969 8.9375H1.80469C1.62695 8.9375 1.5 9.08984 1.5 9.24219V14.1172C1.5 14.2949 1.62695 14.4219 1.80469 14.4219H2.49023C2.66797 14.4219 2.79492 14.2949 2.79492 14.1172L2.74414 11.6289C3.86133 13.3047 5.79102 14.4219 8 14.4219C11.0723 14.4219 13.6367 12.2383 14.1699 9.31836C14.2207 9.11523 14.0684 8.9375 13.8652 8.9375Z" fill="currentColor"/>
</svg>
