<svg width="16" height="16" viewBox="0 0 16 16" fill="currentColor" xmlns="http://www.w3.org/2000/svg">
    <path fill-rule="evenodd" clip-rule="evenodd" d="M13 3H3v9.6l3.445-2.94.028-.022a2.624 2.624 0 0 1 3.054 0l.028.021L13 12.6V3Zm1.357-1.614A1.593 1.593 0 0 1 15 2.655v10.547c0 .678-.416 1.218-.841 1.499-.417.275-1.24.517-1.898-.103L8.32 11.234a.64.64 0 0 0-.64 0l-3.942 3.364c-.58.546-1.348.461-1.838.18a1.808 1.808 0 0 1-.9-1.576V2.786C1 2.055 1.515 1 2.667 1H13.2c.405 0 .822.13 1.157.386Z"/>
</svg>
