<svg xmlns="http://www.w3.org/2000/svg" viewBox="0 0 12 12" width="12" height="12"><path fill="currentColor" d="M5.775 12l-1.107-1.098 4.831-4.793c1.384-1.375 1.072-2.914.147-3.832-1.077-1.068-2.592-.943-3.861.316l-3.71 3.68c-1.007 1-.22 1.87-.212 1.879.195.193.897.757 1.764-.104l4.122-4.09 1.108 1.099-4.123 4.09c-1.496 1.486-3.199.876-3.978.103C.331 8.828.05 8.184.006 7.53c-.04-.6.094-1.495.962-2.356l3.71-3.68c1.882-1.87 4.38-1.998 6.075-.316 1.473 1.461 1.896 4.001-.147 6.028L5.775 12z"/></svg>
