<svg xmlns="http://www.w3.org/2000/svg" viewBox="0 0 24 24" width="24" height="24">
    <path opacity="0.5" fill="currentColor" d="M8.91729819,17.242975 L12,15.034907 L15.0827018,17.242975 L13.9353115,13.6288208 L16.9879163,11.3793278 L13.1960883,11.3537257 L12,7.75539443 L10.8039117,11.3537257 L7.0120837,11.3793278 L10.0646885,13.6288208 L8.91729819,17.242975 Z M12,16.88 L7.34501917,20.2142552 C7.12052449,20.3750556 6.80818116,20.3234211 6.64738082,20.0989264 C6.55556567,19.9707426 6.52959336,19.8067599 6.57730376,19.6564773 L8.30990072,14.1989859 L3.70036739,10.8021776 C3.4780645,10.6383605 3.43065239,10.3253484 3.59446947,10.1030456 C3.68800713,9.97611317 3.83593807,9.90073859 3.99360858,9.89967402 L9.71939322,9.86101406 L11.5255258,4.42741585 C11.6126297,4.16537098 11.8956708,4.02355333 12.1577156,4.11065726 C12.3073402,4.1603926 12.4247389,4.27779126 12.4744742,4.42741585 L14.2806068,9.86101406 L20.0063914,9.89967402 C20.2825275,9.90153846 20.5048686,10.1269024 20.5030041,10.4030385 C20.5019396,10.560709 20.426565,10.7086399 20.2996326,10.8021776 L15.6900993,14.1989859 L17.4226962,19.6564773 C17.5062538,19.9196745 17.3606271,20.2007747 17.0974299,20.2843323 C16.9471474,20.3320427 16.7831647,20.3060703 16.6549808,20.2142552 L12,16.88 Z"/>
</svg>
